G75*
G70*
%OFA0B0*%
%FSLAX24Y24*%
%IPPOS*%
%LPD*%
%AMOC8*
5,1,8,0,0,1.08239X$1,22.5*
%
%ADD10R,0.0984X0.0197*%
%ADD11R,0.0984X0.0787*%
%ADD12R,0.0550X0.0137*%
%ADD13R,0.0394X0.0709*%
%ADD14R,0.0591X0.0106*%
%ADD15R,0.0106X0.0591*%
%ADD16R,0.0945X0.1102*%
%ADD17R,0.0394X0.0433*%
%ADD18R,0.0433X0.0394*%
%ADD19R,0.0630X0.0551*%
%ADD20R,0.0551X0.0709*%
%ADD21R,0.0748X0.0551*%
%ADD22R,0.0591X0.0315*%
%ADD23R,0.0472X0.0551*%
D10*
X004774Y013679D03*
X004774Y013994D03*
X004774Y014309D03*
X004774Y014623D03*
X004774Y014938D03*
D11*
X004774Y016080D03*
X002609Y016080D03*
X002609Y012537D03*
X004774Y012537D03*
D12*
X006950Y012581D03*
X006950Y012836D03*
X006950Y013092D03*
X006950Y013348D03*
X006950Y013604D03*
X006950Y013860D03*
X006950Y014116D03*
X006950Y014372D03*
X009829Y014372D03*
X009829Y014116D03*
X009829Y013860D03*
X009829Y013604D03*
X009829Y013348D03*
X009829Y013092D03*
X009829Y012836D03*
X009829Y012581D03*
X009829Y012325D03*
X009829Y012069D03*
X009829Y011813D03*
X009829Y011557D03*
X009829Y011301D03*
X009829Y011045D03*
X006950Y011045D03*
X006950Y011301D03*
X006950Y011557D03*
X006950Y011813D03*
X006950Y012069D03*
X006950Y012325D03*
D13*
X007738Y015609D03*
X008841Y015609D03*
D14*
X016240Y013871D03*
X016240Y013674D03*
X016240Y013477D03*
X016240Y013280D03*
X016240Y013083D03*
X016240Y012886D03*
X016240Y012690D03*
X016240Y012493D03*
X016240Y012296D03*
X016240Y012099D03*
X016240Y011902D03*
X016240Y011705D03*
X016240Y011509D03*
X016240Y011312D03*
X016240Y011115D03*
X016240Y010918D03*
X016240Y010721D03*
X016240Y010524D03*
X016240Y010327D03*
X016240Y010131D03*
X016240Y009934D03*
X016240Y009737D03*
X016240Y009540D03*
X016240Y009343D03*
X016240Y009146D03*
X022539Y009146D03*
X022539Y009343D03*
X022539Y009540D03*
X022539Y009737D03*
X022539Y009934D03*
X022539Y010131D03*
X022539Y010327D03*
X022539Y010524D03*
X022539Y010721D03*
X022539Y010918D03*
X022539Y011115D03*
X022539Y011312D03*
X022539Y011509D03*
X022539Y011705D03*
X022539Y011902D03*
X022539Y012099D03*
X022539Y012296D03*
X022539Y012493D03*
X022539Y012690D03*
X022539Y012886D03*
X022539Y013083D03*
X022539Y013280D03*
X022539Y013477D03*
X022539Y013674D03*
X022539Y013871D03*
D15*
X021752Y014658D03*
X021555Y014658D03*
X021358Y014658D03*
X021161Y014658D03*
X020964Y014658D03*
X020768Y014658D03*
X020571Y014658D03*
X020374Y014658D03*
X020177Y014658D03*
X019980Y014658D03*
X019783Y014658D03*
X019586Y014658D03*
X019390Y014658D03*
X019193Y014658D03*
X018996Y014658D03*
X018799Y014658D03*
X018602Y014658D03*
X018405Y014658D03*
X018209Y014658D03*
X018012Y014658D03*
X017815Y014658D03*
X017618Y014658D03*
X017421Y014658D03*
X017224Y014658D03*
X017027Y014658D03*
X017027Y008359D03*
X017224Y008359D03*
X017421Y008359D03*
X017618Y008359D03*
X017815Y008359D03*
X018012Y008359D03*
X018209Y008359D03*
X018405Y008359D03*
X018602Y008359D03*
X018799Y008359D03*
X018996Y008359D03*
X019193Y008359D03*
X019390Y008359D03*
X019586Y008359D03*
X019783Y008359D03*
X019980Y008359D03*
X020177Y008359D03*
X020374Y008359D03*
X020571Y008359D03*
X020768Y008359D03*
X020964Y008359D03*
X021161Y008359D03*
X021358Y008359D03*
X021555Y008359D03*
X021752Y008359D03*
D16*
X030246Y004510D03*
X030246Y002109D03*
X034734Y002109D03*
X034734Y004510D03*
D17*
X021170Y005244D03*
X021170Y005913D03*
X018600Y006233D03*
X018600Y005564D03*
X014960Y007254D03*
X014960Y007923D03*
X010990Y011174D03*
X010990Y011843D03*
X014430Y014214D03*
X013510Y014704D03*
X014430Y014883D03*
X013510Y015373D03*
X017250Y016904D03*
X018060Y017183D03*
X017250Y017573D03*
X018060Y016514D03*
X020590Y016574D03*
X020590Y017243D03*
X023890Y015843D03*
X023890Y015174D03*
X030230Y017134D03*
X030230Y017803D03*
D18*
X034055Y013309D03*
X034724Y013309D03*
X034724Y011509D03*
X034055Y011509D03*
X034055Y009809D03*
X034724Y009809D03*
X034724Y008009D03*
X034055Y008009D03*
X026924Y011709D03*
X026255Y011709D03*
X024924Y009109D03*
X024255Y009109D03*
X013004Y011309D03*
X012335Y011309D03*
X011724Y012509D03*
X011055Y012509D03*
X005894Y010319D03*
X005225Y010319D03*
X004955Y011209D03*
X005624Y011209D03*
X005624Y017509D03*
X004955Y017509D03*
D19*
X006790Y016710D03*
X006790Y015607D03*
D20*
X008132Y009001D03*
X008132Y006757D03*
D21*
X002561Y004454D03*
X002955Y009631D03*
D22*
X004077Y009320D03*
X004077Y008887D03*
X003998Y008454D03*
X004077Y008021D03*
X003998Y007588D03*
X004077Y007155D03*
X004234Y006722D03*
X004077Y006289D03*
D23*
X003980Y011409D03*
X002799Y011409D03*
X002799Y017309D03*
X003980Y017309D03*
X031899Y013309D03*
X033080Y013309D03*
X033080Y011509D03*
X031899Y011509D03*
X031899Y009809D03*
X033080Y009809D03*
X033080Y008009D03*
X031899Y008009D03*
M02*
