G75*
G70*
%OFA0B0*%
%FSLAX24Y24*%
%IPPOS*%
%LPD*%
%AMOC8*
5,1,8,0,0,1.08239X$1,22.5*
%
%ADD10C,0.0050*%
%ADD11C,0.0000*%
%ADD12C,0.0080*%
%ADD13C,0.0010*%
D10*
X027225Y006067D02*
X027270Y006022D01*
X027225Y006067D02*
X027225Y006157D01*
X027270Y006202D01*
X027315Y006202D01*
X027360Y006157D01*
X027360Y006112D01*
X027360Y006157D02*
X027405Y006202D01*
X027450Y006202D01*
X027495Y006157D01*
X027495Y006067D01*
X027450Y006022D01*
X027270Y006317D02*
X027270Y006362D01*
X027225Y006362D01*
X027225Y006317D01*
X027270Y006317D01*
X027270Y006464D02*
X027225Y006509D01*
X027225Y006599D01*
X027270Y006644D01*
X027315Y006644D01*
X027360Y006599D01*
X027360Y006554D01*
X027360Y006599D02*
X027405Y006644D01*
X027450Y006644D01*
X027495Y006599D01*
X027495Y006509D01*
X027450Y006464D01*
X027495Y006759D02*
X027315Y006759D01*
X027225Y006849D01*
X027315Y006939D01*
X027495Y006939D01*
X029780Y009009D02*
X030580Y009009D01*
X028210Y010539D02*
X028210Y011339D01*
X030050Y013609D02*
X030850Y013609D01*
X027595Y015067D02*
X027550Y015022D01*
X027595Y015067D02*
X027595Y015157D01*
X027550Y015202D01*
X027505Y015202D01*
X027325Y015022D01*
X027325Y015202D01*
X027325Y015317D02*
X027325Y015362D01*
X027370Y015362D01*
X027370Y015317D01*
X027325Y015317D01*
X027370Y015464D02*
X027325Y015509D01*
X027325Y015599D01*
X027370Y015644D01*
X027460Y015644D01*
X027505Y015599D01*
X027505Y015554D01*
X027460Y015464D01*
X027595Y015464D01*
X027595Y015644D01*
X027595Y015759D02*
X027415Y015759D01*
X027325Y015849D01*
X027415Y015939D01*
X027595Y015939D01*
X031990Y006779D02*
X031990Y005979D01*
D11*
X002540Y002859D02*
X002542Y002909D01*
X002548Y002959D01*
X002558Y003009D01*
X002571Y003057D01*
X002588Y003105D01*
X002609Y003151D01*
X002633Y003195D01*
X002661Y003237D01*
X002692Y003277D01*
X002726Y003314D01*
X002763Y003349D01*
X002802Y003380D01*
X002843Y003409D01*
X002887Y003434D01*
X002933Y003456D01*
X002980Y003474D01*
X003028Y003488D01*
X003077Y003499D01*
X003127Y003506D01*
X003177Y003509D01*
X003228Y003508D01*
X003278Y003503D01*
X003328Y003494D01*
X003376Y003482D01*
X003424Y003465D01*
X003470Y003445D01*
X003515Y003422D01*
X003558Y003395D01*
X003598Y003365D01*
X003636Y003332D01*
X003671Y003296D01*
X003704Y003257D01*
X003733Y003216D01*
X003759Y003173D01*
X003782Y003128D01*
X003801Y003081D01*
X003816Y003033D01*
X003828Y002984D01*
X003836Y002934D01*
X003840Y002884D01*
X003840Y002834D01*
X003836Y002784D01*
X003828Y002734D01*
X003816Y002685D01*
X003801Y002637D01*
X003782Y002590D01*
X003759Y002545D01*
X003733Y002502D01*
X003704Y002461D01*
X003671Y002422D01*
X003636Y002386D01*
X003598Y002353D01*
X003558Y002323D01*
X003515Y002296D01*
X003470Y002273D01*
X003424Y002253D01*
X003376Y002236D01*
X003328Y002224D01*
X003278Y002215D01*
X003228Y002210D01*
X003177Y002209D01*
X003127Y002212D01*
X003077Y002219D01*
X003028Y002230D01*
X002980Y002244D01*
X002933Y002262D01*
X002887Y002284D01*
X002843Y002309D01*
X002802Y002338D01*
X002763Y002369D01*
X002726Y002404D01*
X002692Y002441D01*
X002661Y002481D01*
X002633Y002523D01*
X002609Y002567D01*
X002588Y002613D01*
X002571Y002661D01*
X002558Y002709D01*
X002548Y002759D01*
X002542Y002809D01*
X002540Y002859D01*
X001890Y003461D02*
X001890Y019556D01*
X002540Y020159D02*
X002542Y020209D01*
X002548Y020259D01*
X002558Y020309D01*
X002571Y020357D01*
X002588Y020405D01*
X002609Y020451D01*
X002633Y020495D01*
X002661Y020537D01*
X002692Y020577D01*
X002726Y020614D01*
X002763Y020649D01*
X002802Y020680D01*
X002843Y020709D01*
X002887Y020734D01*
X002933Y020756D01*
X002980Y020774D01*
X003028Y020788D01*
X003077Y020799D01*
X003127Y020806D01*
X003177Y020809D01*
X003228Y020808D01*
X003278Y020803D01*
X003328Y020794D01*
X003376Y020782D01*
X003424Y020765D01*
X003470Y020745D01*
X003515Y020722D01*
X003558Y020695D01*
X003598Y020665D01*
X003636Y020632D01*
X003671Y020596D01*
X003704Y020557D01*
X003733Y020516D01*
X003759Y020473D01*
X003782Y020428D01*
X003801Y020381D01*
X003816Y020333D01*
X003828Y020284D01*
X003836Y020234D01*
X003840Y020184D01*
X003840Y020134D01*
X003836Y020084D01*
X003828Y020034D01*
X003816Y019985D01*
X003801Y019937D01*
X003782Y019890D01*
X003759Y019845D01*
X003733Y019802D01*
X003704Y019761D01*
X003671Y019722D01*
X003636Y019686D01*
X003598Y019653D01*
X003558Y019623D01*
X003515Y019596D01*
X003470Y019573D01*
X003424Y019553D01*
X003376Y019536D01*
X003328Y019524D01*
X003278Y019515D01*
X003228Y019510D01*
X003177Y019509D01*
X003127Y019512D01*
X003077Y019519D01*
X003028Y019530D01*
X002980Y019544D01*
X002933Y019562D01*
X002887Y019584D01*
X002843Y019609D01*
X002802Y019638D01*
X002763Y019669D01*
X002726Y019704D01*
X002692Y019741D01*
X002661Y019781D01*
X002633Y019823D01*
X002609Y019867D01*
X002588Y019913D01*
X002571Y019961D01*
X002558Y020009D01*
X002548Y020059D01*
X002542Y020109D01*
X002540Y020159D01*
X001889Y019556D02*
X001892Y019697D01*
X001902Y019837D01*
X001919Y019976D01*
X001942Y020115D01*
X001972Y020252D01*
X002009Y020388D01*
X002051Y020522D01*
X002101Y020654D01*
X002156Y020783D01*
X002217Y020909D01*
X002285Y021033D01*
X002358Y021153D01*
X002437Y021269D01*
X002521Y021381D01*
X002610Y021490D01*
X002705Y021594D01*
X002804Y021693D01*
X002908Y021788D01*
X003017Y021877D01*
X003129Y021961D01*
X003245Y022040D01*
X003365Y022113D01*
X003489Y022181D01*
X003615Y022242D01*
X003744Y022297D01*
X003876Y022347D01*
X004010Y022389D01*
X004146Y022426D01*
X004283Y022456D01*
X004422Y022479D01*
X004561Y022496D01*
X004701Y022506D01*
X004842Y022509D01*
X034937Y022509D01*
X035940Y020159D02*
X035942Y020209D01*
X035948Y020259D01*
X035958Y020309D01*
X035971Y020357D01*
X035988Y020405D01*
X036009Y020451D01*
X036033Y020495D01*
X036061Y020537D01*
X036092Y020577D01*
X036126Y020614D01*
X036163Y020649D01*
X036202Y020680D01*
X036243Y020709D01*
X036287Y020734D01*
X036333Y020756D01*
X036380Y020774D01*
X036428Y020788D01*
X036477Y020799D01*
X036527Y020806D01*
X036577Y020809D01*
X036628Y020808D01*
X036678Y020803D01*
X036728Y020794D01*
X036776Y020782D01*
X036824Y020765D01*
X036870Y020745D01*
X036915Y020722D01*
X036958Y020695D01*
X036998Y020665D01*
X037036Y020632D01*
X037071Y020596D01*
X037104Y020557D01*
X037133Y020516D01*
X037159Y020473D01*
X037182Y020428D01*
X037201Y020381D01*
X037216Y020333D01*
X037228Y020284D01*
X037236Y020234D01*
X037240Y020184D01*
X037240Y020134D01*
X037236Y020084D01*
X037228Y020034D01*
X037216Y019985D01*
X037201Y019937D01*
X037182Y019890D01*
X037159Y019845D01*
X037133Y019802D01*
X037104Y019761D01*
X037071Y019722D01*
X037036Y019686D01*
X036998Y019653D01*
X036958Y019623D01*
X036915Y019596D01*
X036870Y019573D01*
X036824Y019553D01*
X036776Y019536D01*
X036728Y019524D01*
X036678Y019515D01*
X036628Y019510D01*
X036577Y019509D01*
X036527Y019512D01*
X036477Y019519D01*
X036428Y019530D01*
X036380Y019544D01*
X036333Y019562D01*
X036287Y019584D01*
X036243Y019609D01*
X036202Y019638D01*
X036163Y019669D01*
X036126Y019704D01*
X036092Y019741D01*
X036061Y019781D01*
X036033Y019823D01*
X036009Y019867D01*
X035988Y019913D01*
X035971Y019961D01*
X035958Y020009D01*
X035948Y020059D01*
X035942Y020109D01*
X035940Y020159D01*
X037890Y019556D02*
X037887Y019697D01*
X037877Y019837D01*
X037860Y019976D01*
X037837Y020115D01*
X037807Y020252D01*
X037770Y020388D01*
X037728Y020522D01*
X037678Y020654D01*
X037623Y020783D01*
X037562Y020909D01*
X037494Y021032D01*
X037421Y021153D01*
X037342Y021269D01*
X037258Y021381D01*
X037169Y021490D01*
X037074Y021594D01*
X036975Y021693D01*
X036871Y021788D01*
X036762Y021877D01*
X036650Y021961D01*
X036534Y022040D01*
X036413Y022113D01*
X036290Y022181D01*
X036164Y022242D01*
X036035Y022297D01*
X035903Y022347D01*
X035769Y022389D01*
X035633Y022426D01*
X035496Y022456D01*
X035357Y022479D01*
X035218Y022496D01*
X035078Y022506D01*
X034937Y022509D01*
X037890Y019556D02*
X037890Y003461D01*
X035940Y002859D02*
X035942Y002909D01*
X035948Y002959D01*
X035958Y003009D01*
X035971Y003057D01*
X035988Y003105D01*
X036009Y003151D01*
X036033Y003195D01*
X036061Y003237D01*
X036092Y003277D01*
X036126Y003314D01*
X036163Y003349D01*
X036202Y003380D01*
X036243Y003409D01*
X036287Y003434D01*
X036333Y003456D01*
X036380Y003474D01*
X036428Y003488D01*
X036477Y003499D01*
X036527Y003506D01*
X036577Y003509D01*
X036628Y003508D01*
X036678Y003503D01*
X036728Y003494D01*
X036776Y003482D01*
X036824Y003465D01*
X036870Y003445D01*
X036915Y003422D01*
X036958Y003395D01*
X036998Y003365D01*
X037036Y003332D01*
X037071Y003296D01*
X037104Y003257D01*
X037133Y003216D01*
X037159Y003173D01*
X037182Y003128D01*
X037201Y003081D01*
X037216Y003033D01*
X037228Y002984D01*
X037236Y002934D01*
X037240Y002884D01*
X037240Y002834D01*
X037236Y002784D01*
X037228Y002734D01*
X037216Y002685D01*
X037201Y002637D01*
X037182Y002590D01*
X037159Y002545D01*
X037133Y002502D01*
X037104Y002461D01*
X037071Y002422D01*
X037036Y002386D01*
X036998Y002353D01*
X036958Y002323D01*
X036915Y002296D01*
X036870Y002273D01*
X036824Y002253D01*
X036776Y002236D01*
X036728Y002224D01*
X036678Y002215D01*
X036628Y002210D01*
X036577Y002209D01*
X036527Y002212D01*
X036477Y002219D01*
X036428Y002230D01*
X036380Y002244D01*
X036333Y002262D01*
X036287Y002284D01*
X036243Y002309D01*
X036202Y002338D01*
X036163Y002369D01*
X036126Y002404D01*
X036092Y002441D01*
X036061Y002481D01*
X036033Y002523D01*
X036009Y002567D01*
X035988Y002613D01*
X035971Y002661D01*
X035958Y002709D01*
X035948Y002759D01*
X035942Y002809D01*
X035940Y002859D01*
X037890Y003461D02*
X037887Y003320D01*
X037877Y003180D01*
X037860Y003041D01*
X037837Y002902D01*
X037807Y002765D01*
X037770Y002629D01*
X037728Y002495D01*
X037678Y002363D01*
X037623Y002234D01*
X037562Y002108D01*
X037494Y001985D01*
X037421Y001864D01*
X037342Y001748D01*
X037258Y001636D01*
X037169Y001527D01*
X037074Y001423D01*
X036975Y001324D01*
X036871Y001229D01*
X036762Y001140D01*
X036650Y001056D01*
X036534Y000977D01*
X036414Y000904D01*
X036290Y000836D01*
X036164Y000775D01*
X036035Y000720D01*
X035903Y000670D01*
X035769Y000628D01*
X035633Y000591D01*
X035496Y000561D01*
X035357Y000538D01*
X035218Y000521D01*
X035078Y000511D01*
X034937Y000508D01*
X034937Y000509D02*
X004842Y000509D01*
X004842Y000508D02*
X004701Y000511D01*
X004561Y000521D01*
X004422Y000538D01*
X004283Y000561D01*
X004146Y000591D01*
X004010Y000628D01*
X003876Y000670D01*
X003744Y000720D01*
X003615Y000775D01*
X003489Y000836D01*
X003365Y000904D01*
X003245Y000977D01*
X003129Y001056D01*
X003017Y001140D01*
X002908Y001229D01*
X002804Y001324D01*
X002705Y001423D01*
X002610Y001527D01*
X002521Y001636D01*
X002437Y001748D01*
X002358Y001864D01*
X002285Y001985D01*
X002217Y002108D01*
X002156Y002234D01*
X002101Y002363D01*
X002051Y002495D01*
X002009Y002629D01*
X001972Y002765D01*
X001942Y002902D01*
X001919Y003041D01*
X001902Y003180D01*
X001892Y003320D01*
X001889Y003461D01*
X003613Y013442D02*
X003615Y013468D01*
X003621Y013494D01*
X003631Y013519D01*
X003644Y013542D01*
X003660Y013562D01*
X003680Y013580D01*
X003702Y013595D01*
X003725Y013607D01*
X003751Y013615D01*
X003777Y013619D01*
X003803Y013619D01*
X003829Y013615D01*
X003855Y013607D01*
X003879Y013595D01*
X003900Y013580D01*
X003920Y013562D01*
X003936Y013542D01*
X003949Y013519D01*
X003959Y013494D01*
X003965Y013468D01*
X003967Y013442D01*
X003965Y013416D01*
X003959Y013390D01*
X003949Y013365D01*
X003936Y013342D01*
X003920Y013322D01*
X003900Y013304D01*
X003878Y013289D01*
X003855Y013277D01*
X003829Y013269D01*
X003803Y013265D01*
X003777Y013265D01*
X003751Y013269D01*
X003725Y013277D01*
X003701Y013289D01*
X003680Y013304D01*
X003660Y013322D01*
X003644Y013342D01*
X003631Y013365D01*
X003621Y013390D01*
X003615Y013416D01*
X003613Y013442D01*
X003613Y015175D02*
X003615Y015201D01*
X003621Y015227D01*
X003631Y015252D01*
X003644Y015275D01*
X003660Y015295D01*
X003680Y015313D01*
X003702Y015328D01*
X003725Y015340D01*
X003751Y015348D01*
X003777Y015352D01*
X003803Y015352D01*
X003829Y015348D01*
X003855Y015340D01*
X003879Y015328D01*
X003900Y015313D01*
X003920Y015295D01*
X003936Y015275D01*
X003949Y015252D01*
X003959Y015227D01*
X003965Y015201D01*
X003967Y015175D01*
X003965Y015149D01*
X003959Y015123D01*
X003949Y015098D01*
X003936Y015075D01*
X003920Y015055D01*
X003900Y015037D01*
X003878Y015022D01*
X003855Y015010D01*
X003829Y015002D01*
X003803Y014998D01*
X003777Y014998D01*
X003751Y015002D01*
X003725Y015010D01*
X003701Y015022D01*
X003680Y015037D01*
X003660Y015055D01*
X003644Y015075D01*
X003631Y015098D01*
X003621Y015123D01*
X003615Y015149D01*
X003613Y015175D01*
X032090Y003909D02*
X032092Y003949D01*
X032098Y003988D01*
X032108Y004027D01*
X032121Y004064D01*
X032139Y004100D01*
X032160Y004134D01*
X032184Y004166D01*
X032211Y004195D01*
X032241Y004222D01*
X032273Y004245D01*
X032308Y004265D01*
X032344Y004281D01*
X032382Y004294D01*
X032421Y004303D01*
X032460Y004308D01*
X032500Y004309D01*
X032540Y004306D01*
X032579Y004299D01*
X032617Y004288D01*
X032655Y004274D01*
X032690Y004255D01*
X032723Y004234D01*
X032755Y004209D01*
X032783Y004181D01*
X032809Y004151D01*
X032831Y004118D01*
X032850Y004083D01*
X032866Y004046D01*
X032878Y004008D01*
X032886Y003969D01*
X032890Y003929D01*
X032890Y003889D01*
X032886Y003849D01*
X032878Y003810D01*
X032866Y003772D01*
X032850Y003735D01*
X032831Y003700D01*
X032809Y003667D01*
X032783Y003637D01*
X032755Y003609D01*
X032723Y003584D01*
X032690Y003563D01*
X032655Y003544D01*
X032617Y003530D01*
X032579Y003519D01*
X032540Y003512D01*
X032500Y003509D01*
X032460Y003510D01*
X032421Y003515D01*
X032382Y003524D01*
X032344Y003537D01*
X032308Y003553D01*
X032273Y003573D01*
X032241Y003596D01*
X032211Y003623D01*
X032184Y003652D01*
X032160Y003684D01*
X032139Y003718D01*
X032121Y003754D01*
X032108Y003791D01*
X032098Y003830D01*
X032092Y003869D01*
X032090Y003909D01*
X032090Y002109D02*
X032092Y002149D01*
X032098Y002188D01*
X032108Y002227D01*
X032121Y002264D01*
X032139Y002300D01*
X032160Y002334D01*
X032184Y002366D01*
X032211Y002395D01*
X032241Y002422D01*
X032273Y002445D01*
X032308Y002465D01*
X032344Y002481D01*
X032382Y002494D01*
X032421Y002503D01*
X032460Y002508D01*
X032500Y002509D01*
X032540Y002506D01*
X032579Y002499D01*
X032617Y002488D01*
X032655Y002474D01*
X032690Y002455D01*
X032723Y002434D01*
X032755Y002409D01*
X032783Y002381D01*
X032809Y002351D01*
X032831Y002318D01*
X032850Y002283D01*
X032866Y002246D01*
X032878Y002208D01*
X032886Y002169D01*
X032890Y002129D01*
X032890Y002089D01*
X032886Y002049D01*
X032878Y002010D01*
X032866Y001972D01*
X032850Y001935D01*
X032831Y001900D01*
X032809Y001867D01*
X032783Y001837D01*
X032755Y001809D01*
X032723Y001784D01*
X032690Y001763D01*
X032655Y001744D01*
X032617Y001730D01*
X032579Y001719D01*
X032540Y001712D01*
X032500Y001709D01*
X032460Y001710D01*
X032421Y001715D01*
X032382Y001724D01*
X032344Y001737D01*
X032308Y001753D01*
X032273Y001773D01*
X032241Y001796D01*
X032211Y001823D01*
X032184Y001852D01*
X032160Y001884D01*
X032139Y001918D01*
X032121Y001954D01*
X032108Y001991D01*
X032098Y002030D01*
X032092Y002069D01*
X032090Y002109D01*
D12*
X031746Y005906D02*
X031313Y005906D01*
X031155Y006064D01*
X031155Y006693D01*
X031313Y006851D01*
X031746Y006851D01*
X032533Y006851D02*
X033124Y006851D01*
X033124Y005906D01*
X032533Y005906D01*
X033690Y007489D02*
X034190Y007489D01*
X034190Y008089D02*
X033690Y008089D01*
X033783Y008743D02*
X033960Y008743D01*
X033960Y010554D01*
X033783Y010554D01*
X032996Y010554D02*
X032819Y010554D01*
X032819Y008743D01*
X032996Y008743D01*
X032996Y009255D02*
X033783Y009255D01*
X035119Y008753D02*
X035296Y008753D01*
X035119Y008753D02*
X035119Y010564D01*
X035296Y010564D01*
X036083Y010564D02*
X036260Y010564D01*
X036260Y008753D01*
X036083Y008753D01*
X036083Y009265D02*
X035296Y009265D01*
X035296Y007834D02*
X035119Y007834D01*
X035119Y006023D01*
X035296Y006023D01*
X036083Y006023D02*
X036260Y006023D01*
X036260Y007834D01*
X036083Y007834D01*
X036083Y007322D02*
X035296Y007322D01*
X030652Y008332D02*
X030495Y008174D01*
X029865Y008174D01*
X029707Y008332D01*
X029707Y008765D01*
X030652Y008765D02*
X030652Y008332D01*
X030652Y009552D02*
X030652Y010143D01*
X029707Y010143D01*
X029707Y009552D01*
X028886Y010466D02*
X028453Y010466D01*
X028886Y010466D02*
X029044Y010624D01*
X029044Y011253D01*
X028886Y011411D01*
X028453Y011411D01*
X027666Y011411D02*
X027075Y011411D01*
X027075Y010466D01*
X027666Y010466D01*
X028060Y009899D02*
X026760Y009899D01*
X026760Y007319D01*
X028060Y007319D01*
X028060Y009899D01*
X028040Y012219D02*
X026740Y012219D01*
X026740Y014799D01*
X028040Y014799D01*
X028040Y012219D01*
X029977Y012932D02*
X029977Y013365D01*
X029977Y012932D02*
X030135Y012774D01*
X030765Y012774D01*
X030922Y012932D01*
X030922Y013365D01*
X030922Y014152D02*
X030922Y014743D01*
X029977Y014743D01*
X029977Y014152D01*
D13*
X029876Y014322D02*
X029776Y014322D01*
X029751Y014347D01*
X029751Y014397D01*
X029776Y014422D01*
X029751Y014469D02*
X029751Y014569D01*
X029751Y014519D02*
X029901Y014519D01*
X029851Y014469D01*
X029876Y014422D02*
X029901Y014397D01*
X029901Y014347D01*
X029876Y014322D01*
X029826Y014616D02*
X029826Y014716D01*
X029901Y014691D02*
X029826Y014616D01*
X029751Y014691D02*
X029901Y014691D01*
X025610Y013766D02*
X025610Y013716D01*
X025585Y013691D01*
X025610Y013644D02*
X025485Y013644D01*
X025460Y013619D01*
X025460Y013569D01*
X025485Y013544D01*
X025610Y013544D01*
X025460Y013691D02*
X025560Y013791D01*
X025585Y013791D01*
X025610Y013766D01*
X025460Y013791D02*
X025460Y013691D01*
X027127Y010390D02*
X027177Y010390D01*
X027202Y010365D01*
X027127Y010390D02*
X027102Y010365D01*
X027102Y010340D01*
X027202Y010240D01*
X027102Y010240D01*
X027249Y010240D02*
X027349Y010240D01*
X027299Y010240D02*
X027299Y010390D01*
X027349Y010340D01*
X027396Y010365D02*
X027422Y010390D01*
X027472Y010390D01*
X027497Y010365D01*
X027497Y010265D01*
X027472Y010240D01*
X027422Y010240D01*
X027396Y010265D01*
X029481Y010091D02*
X029481Y010041D01*
X029506Y010016D01*
X029481Y009969D02*
X029481Y009869D01*
X029481Y009919D02*
X029631Y009919D01*
X029581Y009869D01*
X029606Y009822D02*
X029631Y009797D01*
X029631Y009747D01*
X029606Y009722D01*
X029506Y009722D01*
X029481Y009747D01*
X029481Y009797D01*
X029506Y009822D01*
X029606Y010016D02*
X029631Y010041D01*
X029631Y010091D01*
X029606Y010116D01*
X029581Y010116D01*
X029556Y010091D01*
X029531Y010116D01*
X029506Y010116D01*
X029481Y010091D01*
X029556Y010091D02*
X029556Y010066D01*
X030985Y008706D02*
X030985Y008606D01*
X031085Y008706D01*
X031110Y008706D01*
X031135Y008681D01*
X031135Y008631D01*
X031110Y008606D01*
X030985Y008559D02*
X030985Y008459D01*
X031135Y008459D01*
X032585Y009522D02*
X032585Y009597D01*
X032610Y009622D01*
X032710Y009622D01*
X032735Y009597D01*
X032735Y009522D01*
X032585Y009522D01*
X032585Y009670D02*
X032585Y009770D01*
X032585Y009720D02*
X032735Y009720D01*
X032685Y009670D01*
X032560Y009817D02*
X032560Y009917D01*
X032585Y009964D02*
X032735Y009964D01*
X032735Y010039D01*
X032710Y010064D01*
X032660Y010064D01*
X032635Y010039D01*
X032635Y009964D01*
X032585Y010112D02*
X032635Y010162D01*
X032585Y010212D01*
X032735Y010212D01*
X032735Y010259D02*
X032585Y010259D01*
X032635Y010259D02*
X032635Y010334D01*
X032660Y010359D01*
X032710Y010359D01*
X032735Y010334D01*
X032735Y010259D01*
X032635Y010309D02*
X032585Y010359D01*
X032585Y010406D02*
X032585Y010506D01*
X032585Y010456D02*
X032735Y010456D01*
X032685Y010406D01*
X032735Y010112D02*
X032585Y010112D01*
X031525Y011394D02*
X031425Y011394D01*
X031377Y011419D02*
X031352Y011394D01*
X031302Y011394D01*
X031277Y011419D01*
X031277Y011444D01*
X031302Y011469D01*
X031327Y011469D01*
X031302Y011469D02*
X031277Y011494D01*
X031277Y011519D01*
X031302Y011544D01*
X031352Y011544D01*
X031377Y011519D01*
X031525Y011544D02*
X031525Y011394D01*
X034885Y010516D02*
X034885Y010416D01*
X034985Y010516D01*
X035010Y010516D01*
X035035Y010491D01*
X035035Y010441D01*
X035010Y010416D01*
X035010Y010369D02*
X034960Y010369D01*
X034935Y010344D01*
X034935Y010269D01*
X034935Y010319D02*
X034885Y010369D01*
X034885Y010269D02*
X035035Y010269D01*
X035035Y010344D01*
X035010Y010369D01*
X035035Y010222D02*
X034885Y010222D01*
X034935Y010172D01*
X034885Y010122D01*
X035035Y010122D01*
X035010Y010074D02*
X034960Y010074D01*
X034935Y010049D01*
X034935Y009974D01*
X034885Y009974D02*
X035035Y009974D01*
X035035Y010049D01*
X035010Y010074D01*
X034860Y009927D02*
X034860Y009827D01*
X034885Y009780D02*
X034885Y009680D01*
X034885Y009730D02*
X035035Y009730D01*
X034985Y009680D01*
X035010Y009632D02*
X035035Y009607D01*
X035035Y009532D01*
X034885Y009532D01*
X034885Y009607D01*
X034910Y009632D01*
X035010Y009632D01*
X034535Y008444D02*
X034435Y008444D01*
X034387Y008369D02*
X034312Y008444D01*
X034312Y008294D01*
X034240Y008268D02*
X034140Y008268D01*
X034093Y008294D02*
X034093Y008444D01*
X034018Y008444D01*
X033993Y008419D01*
X033993Y008369D01*
X034018Y008344D01*
X034093Y008344D01*
X033945Y008294D02*
X033895Y008344D01*
X033845Y008294D01*
X033845Y008444D01*
X033798Y008444D02*
X033798Y008294D01*
X033798Y008344D02*
X033723Y008344D01*
X033698Y008369D01*
X033698Y008419D01*
X033723Y008444D01*
X033798Y008444D01*
X033748Y008344D02*
X033698Y008294D01*
X033945Y008294D02*
X033945Y008444D01*
X034287Y008369D02*
X034387Y008369D01*
X034485Y008369D02*
X034535Y008369D01*
X034535Y008294D02*
X034535Y008444D01*
X033135Y007052D02*
X033135Y006952D01*
X033110Y006927D01*
X033060Y006927D01*
X033035Y006952D01*
X032987Y006927D02*
X032887Y006927D01*
X032840Y006927D02*
X032740Y006927D01*
X032790Y006927D02*
X032790Y007077D01*
X032840Y007027D01*
X032937Y007077D02*
X032937Y006927D01*
X032987Y007027D02*
X032937Y007077D01*
X033035Y007052D02*
X033060Y007077D01*
X033110Y007077D01*
X033135Y007052D01*
X036345Y006870D02*
X036395Y006820D01*
X036395Y006845D02*
X036395Y006770D01*
X036345Y006770D02*
X036495Y006770D01*
X036495Y006845D01*
X036470Y006870D01*
X036420Y006870D01*
X036395Y006845D01*
X036345Y006723D02*
X036495Y006723D01*
X036495Y006623D02*
X036345Y006623D01*
X036395Y006673D01*
X036345Y006723D01*
X036420Y006576D02*
X036395Y006551D01*
X036395Y006475D01*
X036345Y006475D02*
X036495Y006475D01*
X036495Y006551D01*
X036470Y006576D01*
X036420Y006576D01*
X036320Y006428D02*
X036320Y006328D01*
X036345Y006281D02*
X036345Y006181D01*
X036345Y006231D02*
X036495Y006231D01*
X036445Y006181D01*
X036470Y006134D02*
X036495Y006109D01*
X036495Y006034D01*
X036345Y006034D01*
X036345Y006109D01*
X036370Y006134D01*
X036470Y006134D01*
X025630Y008644D02*
X025505Y008644D01*
X025480Y008669D01*
X025480Y008719D01*
X025505Y008744D01*
X025630Y008744D01*
X025580Y008791D02*
X025630Y008841D01*
X025480Y008841D01*
X025480Y008791D02*
X025480Y008891D01*
X018995Y011694D02*
X018845Y011694D01*
X018845Y011794D01*
X018845Y011841D02*
X018845Y011941D01*
X018845Y011891D02*
X018995Y011891D01*
X018945Y011841D01*
M02*
