G75*
G70*
%OFA0B0*%
%FSLAX24Y24*%
%IPPOS*%
%LPD*%
%AMOC8*
5,1,8,0,0,1.08239X$1,22.5*
%
%ADD10R,0.1064X0.0277*%
%ADD11R,0.1064X0.0867*%
%ADD12C,0.0434*%
%ADD13R,0.0630X0.0217*%
%ADD14R,0.0474X0.0789*%
%ADD15R,0.0671X0.0186*%
%ADD16R,0.0186X0.0671*%
%ADD17OC8,0.0820*%
%ADD18R,0.1025X0.1182*%
%ADD19C,0.0880*%
%ADD20C,0.1380*%
%ADD21R,0.0474X0.0513*%
%ADD22R,0.0513X0.0474*%
%ADD23R,0.0710X0.0631*%
%ADD24R,0.0631X0.0789*%
%ADD25R,0.0828X0.0631*%
%ADD26R,0.0671X0.0395*%
%ADD27OC8,0.0680*%
%ADD28R,0.0552X0.0631*%
%ADD29C,0.0456*%
%ADD30C,0.0496*%
D10*
X004774Y013679D03*
X004774Y013994D03*
X004774Y014309D03*
X004774Y014623D03*
X004774Y014938D03*
D11*
X004774Y016080D03*
X002609Y016080D03*
X002609Y012537D03*
X004774Y012537D03*
D12*
X003790Y013442D03*
X003790Y015175D03*
D13*
X006950Y014372D03*
X006950Y014116D03*
X006950Y013860D03*
X006950Y013604D03*
X006950Y013348D03*
X006950Y013092D03*
X006950Y012836D03*
X006950Y012581D03*
X006950Y012325D03*
X006950Y012069D03*
X006950Y011813D03*
X006950Y011557D03*
X006950Y011301D03*
X006950Y011045D03*
X009829Y011045D03*
X009829Y011301D03*
X009829Y011557D03*
X009829Y011813D03*
X009829Y012069D03*
X009829Y012325D03*
X009829Y012581D03*
X009829Y012836D03*
X009829Y013092D03*
X009829Y013348D03*
X009829Y013604D03*
X009829Y013860D03*
X009829Y014116D03*
X009829Y014372D03*
D14*
X008841Y015609D03*
X007738Y015609D03*
D15*
X016240Y013871D03*
X016240Y013674D03*
X016240Y013477D03*
X016240Y013280D03*
X016240Y013083D03*
X016240Y012886D03*
X016240Y012690D03*
X016240Y012493D03*
X016240Y012296D03*
X016240Y012099D03*
X016240Y011902D03*
X016240Y011705D03*
X016240Y011509D03*
X016240Y011312D03*
X016240Y011115D03*
X016240Y010918D03*
X016240Y010721D03*
X016240Y010524D03*
X016240Y010327D03*
X016240Y010131D03*
X016240Y009934D03*
X016240Y009737D03*
X016240Y009540D03*
X016240Y009343D03*
X016240Y009146D03*
X022539Y009146D03*
X022539Y009343D03*
X022539Y009540D03*
X022539Y009737D03*
X022539Y009934D03*
X022539Y010131D03*
X022539Y010327D03*
X022539Y010524D03*
X022539Y010721D03*
X022539Y010918D03*
X022539Y011115D03*
X022539Y011312D03*
X022539Y011509D03*
X022539Y011705D03*
X022539Y011902D03*
X022539Y012099D03*
X022539Y012296D03*
X022539Y012493D03*
X022539Y012690D03*
X022539Y012886D03*
X022539Y013083D03*
X022539Y013280D03*
X022539Y013477D03*
X022539Y013674D03*
X022539Y013871D03*
D16*
X021752Y014658D03*
X021555Y014658D03*
X021358Y014658D03*
X021161Y014658D03*
X020964Y014658D03*
X020768Y014658D03*
X020571Y014658D03*
X020374Y014658D03*
X020177Y014658D03*
X019980Y014658D03*
X019783Y014658D03*
X019586Y014658D03*
X019390Y014658D03*
X019193Y014658D03*
X018996Y014658D03*
X018799Y014658D03*
X018602Y014658D03*
X018405Y014658D03*
X018209Y014658D03*
X018012Y014658D03*
X017815Y014658D03*
X017618Y014658D03*
X017421Y014658D03*
X017224Y014658D03*
X017027Y014658D03*
X017027Y008359D03*
X017224Y008359D03*
X017421Y008359D03*
X017618Y008359D03*
X017815Y008359D03*
X018012Y008359D03*
X018209Y008359D03*
X018405Y008359D03*
X018602Y008359D03*
X018799Y008359D03*
X018996Y008359D03*
X019193Y008359D03*
X019390Y008359D03*
X019586Y008359D03*
X019783Y008359D03*
X019980Y008359D03*
X020177Y008359D03*
X020374Y008359D03*
X020571Y008359D03*
X020768Y008359D03*
X020964Y008359D03*
X021161Y008359D03*
X021358Y008359D03*
X021555Y008359D03*
X021752Y008359D03*
D17*
X031990Y016109D03*
X032990Y016109D03*
X032990Y017109D03*
X031990Y017109D03*
X031990Y018109D03*
X032990Y018109D03*
X032990Y019109D03*
X031990Y019109D03*
X031990Y020109D03*
X032990Y020109D03*
D18*
X034734Y004510D03*
X034734Y002109D03*
X030246Y002109D03*
X030246Y004510D03*
D19*
X032490Y003909D03*
X032490Y002109D03*
D20*
X036590Y002859D03*
X036590Y020159D03*
X003190Y020159D03*
X003190Y002859D03*
D21*
X014960Y007254D03*
X014960Y007923D03*
X018600Y006233D03*
X018600Y005564D03*
X021170Y005244D03*
X021170Y005913D03*
X010990Y011174D03*
X010990Y011843D03*
X014430Y014214D03*
X013510Y014704D03*
X014430Y014883D03*
X013510Y015373D03*
X017250Y016904D03*
X018060Y017183D03*
X017250Y017573D03*
X018060Y016514D03*
X020590Y016574D03*
X020590Y017243D03*
X023890Y015843D03*
X023890Y015174D03*
X030230Y017134D03*
X030230Y017803D03*
D22*
X034055Y013309D03*
X034724Y013309D03*
X034724Y011509D03*
X034055Y011509D03*
X034055Y009809D03*
X034724Y009809D03*
X034724Y008009D03*
X034055Y008009D03*
X026924Y011709D03*
X026255Y011709D03*
X024924Y009109D03*
X024255Y009109D03*
X013004Y011309D03*
X012335Y011309D03*
X011724Y012509D03*
X011055Y012509D03*
X005894Y010319D03*
X005225Y010319D03*
X004955Y011209D03*
X005624Y011209D03*
X005624Y017509D03*
X004955Y017509D03*
D23*
X006790Y016710D03*
X006790Y015607D03*
D24*
X008132Y009001D03*
X008132Y006757D03*
D25*
X002955Y009631D03*
X002561Y004454D03*
D26*
X004077Y006289D03*
X004234Y006722D03*
X004077Y007155D03*
X003998Y007588D03*
X004077Y008021D03*
X003998Y008454D03*
X004077Y008887D03*
X004077Y009320D03*
D27*
X009890Y003209D03*
X010890Y003209D03*
X011890Y003209D03*
X012890Y003209D03*
X013890Y003209D03*
X014890Y003209D03*
X015890Y003209D03*
X016890Y003209D03*
X017890Y003209D03*
X018890Y003209D03*
X019890Y003209D03*
X020890Y003209D03*
X021890Y003209D03*
X022890Y003209D03*
X023890Y003209D03*
X024890Y003209D03*
X025890Y003209D03*
X026890Y003209D03*
X027890Y003209D03*
X028890Y003209D03*
X028890Y002209D03*
X027890Y002209D03*
X026890Y002209D03*
X025890Y002209D03*
X024890Y002209D03*
X023890Y002209D03*
X022890Y002209D03*
X021890Y002209D03*
X020890Y002209D03*
X019890Y002209D03*
X018890Y002209D03*
X017890Y002209D03*
X016890Y002209D03*
X015890Y002209D03*
X014890Y002209D03*
X013890Y002209D03*
X012890Y002209D03*
X011890Y002209D03*
X010890Y002209D03*
X009890Y002209D03*
X009890Y019809D03*
X010890Y019809D03*
X011890Y019809D03*
X012890Y019809D03*
X013890Y019809D03*
X014890Y019809D03*
X015890Y019809D03*
X016890Y019809D03*
X017890Y019809D03*
X018890Y019809D03*
X019890Y019809D03*
X020890Y019809D03*
X021890Y019809D03*
X022890Y019809D03*
X023890Y019809D03*
X024890Y019809D03*
X025890Y019809D03*
X026890Y019809D03*
X027890Y019809D03*
X028890Y019809D03*
X028890Y020809D03*
X027890Y020809D03*
X026890Y020809D03*
X025890Y020809D03*
X024890Y020809D03*
X023890Y020809D03*
X022890Y020809D03*
X021890Y020809D03*
X020890Y020809D03*
X019890Y020809D03*
X018890Y020809D03*
X017890Y020809D03*
X016890Y020809D03*
X015890Y020809D03*
X014890Y020809D03*
X013890Y020809D03*
X012890Y020809D03*
X011890Y020809D03*
X010890Y020809D03*
X009890Y020809D03*
D28*
X003980Y017309D03*
X002799Y017309D03*
X002799Y011409D03*
X003980Y011409D03*
X031899Y011509D03*
X033080Y011509D03*
X033080Y009809D03*
X031899Y009809D03*
X031899Y008009D03*
X033080Y008009D03*
X033080Y013309D03*
X031899Y013309D03*
D29*
X003690Y001459D03*
X004640Y002109D03*
X006140Y002959D03*
X007190Y003509D03*
X008390Y003509D03*
X006090Y004609D03*
X005040Y003909D03*
X004590Y005209D03*
X005990Y006109D03*
X007190Y005309D03*
X008890Y005509D03*
X009090Y006509D03*
X009190Y007409D03*
X010890Y007409D03*
X011590Y008109D03*
X010290Y008809D03*
X008990Y008809D03*
X007490Y009009D03*
X006590Y008109D03*
X006790Y007209D03*
X007480Y006759D03*
X005590Y007209D03*
X004690Y008459D03*
X005890Y009309D03*
X008290Y010309D03*
X007890Y011009D03*
X009190Y011309D03*
X010490Y010709D03*
X011690Y010509D03*
X011690Y011309D03*
X011690Y011909D03*
X012290Y012509D03*
X011390Y013209D03*
X010450Y013869D03*
X008590Y013909D03*
X008140Y013169D03*
X007690Y012439D03*
X009090Y012109D03*
X005630Y012409D03*
X005690Y013109D03*
X003790Y012409D03*
X002950Y008969D03*
X002560Y005089D03*
X006890Y002009D03*
X008390Y002009D03*
X012790Y005309D03*
X011890Y005509D03*
X010890Y005509D03*
X010890Y006509D03*
X013390Y006009D03*
X013890Y007009D03*
X014960Y006639D03*
X017890Y006109D03*
X017990Y005169D03*
X021470Y004579D03*
X024920Y008399D03*
X026590Y011009D03*
X027880Y011839D03*
X029790Y012009D03*
X027380Y014039D03*
X029790Y015409D03*
X030490Y015139D03*
X029710Y016119D03*
X029290Y017279D03*
X028890Y018209D03*
X029590Y018909D03*
X030230Y018429D03*
X031090Y017909D03*
X033990Y019509D03*
X035990Y018459D03*
X037040Y017909D03*
X036090Y017259D03*
X037040Y016559D03*
X036190Y015559D03*
X037140Y014809D03*
X035690Y014109D03*
X037140Y013509D03*
X037140Y011509D03*
X037140Y009259D03*
X037140Y007009D03*
X035890Y005309D03*
X036940Y004509D03*
X034690Y003309D03*
X035940Y001509D03*
X032990Y001309D03*
X032090Y001409D03*
X031590Y005409D03*
X030490Y006509D03*
X029990Y007009D03*
X033680Y006089D03*
X031900Y014109D03*
X034090Y016409D03*
X029990Y019809D03*
X030890Y020209D03*
X029890Y021809D03*
X028290Y021809D03*
X026390Y021809D03*
X024390Y021809D03*
X022390Y021809D03*
X020390Y021809D03*
X018390Y021809D03*
X016390Y021809D03*
X014290Y021809D03*
X012290Y021809D03*
X010390Y021809D03*
X008540Y020809D03*
X007690Y021959D03*
X004640Y020809D03*
X004140Y021709D03*
X004540Y019359D03*
X003190Y018909D03*
X005790Y016909D03*
X007590Y016709D03*
X008290Y016509D03*
X009290Y017709D03*
X008790Y019109D03*
X013390Y018609D03*
X013390Y017009D03*
X013510Y015929D03*
X014430Y015419D03*
X017100Y013799D03*
X018390Y013799D03*
X019390Y012999D03*
X019890Y013909D03*
X022390Y014809D03*
X023090Y015409D03*
X024490Y015969D03*
X024090Y017279D03*
X023390Y018009D03*
X024390Y018209D03*
X020590Y017809D03*
X018990Y018009D03*
X018060Y017689D03*
X017250Y018119D03*
X017390Y018909D03*
X019390Y015509D03*
X013690Y010509D03*
X013090Y009609D03*
X013590Y008809D03*
X011490Y009609D03*
X003790Y016309D03*
X032590Y021909D03*
X035190Y021209D03*
D30*
X019390Y011509D03*
X031390Y003009D03*
X033890Y002109D03*
X033890Y004509D03*
M02*
