G75*
G70*
%OFA0B0*%
%FSLAX24Y24*%
%IPPOS*%
%LPD*%
%AMOC8*
5,1,8,0,0,1.08239X$1,22.5*
%
%ADD10C,0.0090*%
%ADD11C,0.0050*%
%ADD12C,0.0060*%
%ADD13C,0.0080*%
%ADD14C,0.0000*%
%ADD15C,0.0100*%
%ADD16C,0.0010*%
%ADD17C,0.0220*%
%ADD18R,0.0180X0.0300*%
%ADD19C,0.0030*%
%ADD20R,0.0090X0.0010*%
%ADD21R,0.0150X0.0010*%
%ADD22R,0.0080X0.0010*%
%ADD23R,0.0160X0.0010*%
%ADD24R,0.0140X0.0010*%
%ADD25R,0.0190X0.0010*%
%ADD26R,0.0130X0.0010*%
%ADD27R,0.0200X0.0010*%
%ADD28R,0.0230X0.0010*%
%ADD29R,0.0250X0.0010*%
%ADD30R,0.0170X0.0010*%
%ADD31R,0.0260X0.0010*%
%ADD32R,0.0360X0.0010*%
%ADD33R,0.0280X0.0010*%
%ADD34R,0.0180X0.0010*%
%ADD35R,0.0270X0.0010*%
%ADD36R,0.0370X0.0010*%
%ADD37R,0.0310X0.0010*%
%ADD38R,0.0300X0.0010*%
%ADD39R,0.0290X0.0010*%
%ADD40R,0.0380X0.0010*%
%ADD41R,0.0120X0.0010*%
%ADD42R,0.0320X0.0010*%
%ADD43R,0.0100X0.0010*%
%ADD44R,0.0110X0.0010*%
%ADD45R,0.0070X0.0010*%
%ADD46R,0.0220X0.0010*%
%ADD47R,0.0240X0.0010*%
%ADD48R,0.0030X0.0010*%
%ADD49R,0.0020X0.0010*%
%ADD50R,0.0040X0.0010*%
%ADD51R,0.0060X0.0010*%
%ADD52R,0.0050X0.0010*%
%ADD53R,0.0350X0.0010*%
%ADD54R,0.0430X0.0010*%
%ADD55R,0.0460X0.0010*%
%ADD56R,0.0560X0.0010*%
%ADD57R,0.0630X0.0010*%
%ADD58R,0.0580X0.0010*%
%ADD59R,0.0570X0.0010*%
%ADD60R,0.0550X0.0010*%
%ADD61R,0.0530X0.0010*%
%ADD62R,0.0540X0.0010*%
%ADD63R,0.0520X0.0010*%
%ADD64R,0.0490X0.0010*%
%ADD65R,0.0480X0.0010*%
%ADD66R,0.0470X0.0010*%
%ADD67R,0.0330X0.0010*%
%ADD68R,0.0340X0.0010*%
%ADD69R,0.0500X0.0010*%
%ADD70R,0.0390X0.0010*%
%ADD71R,0.0400X0.0010*%
%ADD72R,0.0410X0.0010*%
%ADD73R,0.0420X0.0010*%
%ADD74R,0.0450X0.0010*%
%ADD75R,0.0610X0.0010*%
%ADD76R,0.0440X0.0010*%
%ADD77R,0.0760X0.0010*%
%ADD78R,0.0660X0.0010*%
D10*
X004305Y001124D02*
X004305Y001534D01*
X004510Y001534D01*
X004578Y001465D01*
X004578Y001329D01*
X004510Y001260D01*
X004305Y001260D01*
X004765Y001260D02*
X004902Y001397D01*
X004970Y001397D01*
X005149Y001397D02*
X005217Y001397D01*
X005217Y001124D01*
X005149Y001124D02*
X005285Y001124D01*
X005456Y001124D02*
X005456Y001397D01*
X005524Y001397D01*
X005592Y001329D01*
X005661Y001397D01*
X005729Y001329D01*
X005729Y001124D01*
X005592Y001124D02*
X005592Y001329D01*
X005916Y001397D02*
X005916Y001192D01*
X005984Y001124D01*
X006190Y001124D01*
X006190Y001397D01*
X006376Y001329D02*
X006445Y001397D01*
X006650Y001397D01*
X006582Y001260D02*
X006445Y001260D01*
X006376Y001329D01*
X006376Y001124D02*
X006582Y001124D01*
X006650Y001192D01*
X006582Y001260D01*
X007297Y001397D02*
X007434Y001124D01*
X007571Y001397D01*
X007758Y001397D02*
X007894Y001534D01*
X007894Y001124D01*
X007758Y001124D02*
X008031Y001124D01*
X008218Y001124D02*
X008286Y001124D01*
X008286Y001192D01*
X008218Y001192D01*
X008218Y001124D01*
X008448Y001192D02*
X008722Y001465D01*
X008722Y001192D01*
X008653Y001124D01*
X008517Y001124D01*
X008448Y001192D01*
X008448Y001465D01*
X008517Y001534D01*
X008653Y001534D01*
X008722Y001465D01*
X005217Y001534D02*
X005217Y001602D01*
X004765Y001397D02*
X004765Y001124D01*
D11*
X009744Y001109D02*
X009789Y001064D01*
X009970Y001064D01*
X010015Y001109D01*
X010015Y001199D01*
X009970Y001244D01*
X010015Y001359D02*
X010015Y001539D01*
X010015Y001449D02*
X009744Y001449D01*
X009834Y001359D01*
X009789Y001244D02*
X009744Y001199D01*
X009744Y001109D01*
X009789Y000950D02*
X009879Y000950D01*
X009925Y000905D01*
X009925Y000770D01*
X010015Y000770D02*
X009744Y000770D01*
X009744Y000905D01*
X009789Y000950D01*
X010744Y001109D02*
X010744Y001199D01*
X010789Y001244D01*
X010834Y001244D01*
X010879Y001199D01*
X010925Y001244D01*
X010970Y001244D01*
X011015Y001199D01*
X011015Y001109D01*
X010970Y001064D01*
X010970Y000962D02*
X011015Y000962D01*
X011015Y000917D01*
X010970Y000917D01*
X010970Y000962D01*
X010970Y000802D02*
X011015Y000757D01*
X011015Y000667D01*
X010970Y000622D01*
X010879Y000712D02*
X010879Y000757D01*
X010925Y000802D01*
X010970Y000802D01*
X010879Y000757D02*
X010834Y000802D01*
X010789Y000802D01*
X010744Y000757D01*
X010744Y000667D01*
X010789Y000622D01*
X010789Y001064D02*
X010744Y001109D01*
X010879Y001154D02*
X010879Y001199D01*
X010925Y001359D02*
X011015Y001449D01*
X010925Y001539D01*
X010744Y001539D01*
X010744Y001359D02*
X010925Y001359D01*
X011764Y001239D02*
X011764Y001149D01*
X011809Y001104D01*
X011854Y001104D01*
X011899Y001149D01*
X011899Y001239D01*
X011945Y001284D01*
X011990Y001284D01*
X012035Y001239D01*
X012035Y001149D01*
X011990Y001104D01*
X011899Y000990D02*
X011945Y000945D01*
X011945Y000810D01*
X012035Y000810D02*
X011764Y000810D01*
X011764Y000945D01*
X011809Y000990D01*
X011899Y000990D01*
X011764Y001239D02*
X011809Y001284D01*
X011854Y001399D02*
X011764Y001489D01*
X012035Y001489D01*
X012035Y001399D02*
X012035Y001579D01*
X012744Y001494D02*
X012789Y001539D01*
X012834Y001539D01*
X012879Y001494D01*
X012925Y001539D01*
X012970Y001539D01*
X013015Y001494D01*
X013015Y001404D01*
X012970Y001359D01*
X012970Y001244D02*
X013015Y001199D01*
X013015Y001109D01*
X012970Y001064D01*
X012879Y001109D02*
X012879Y001199D01*
X012925Y001244D01*
X012970Y001244D01*
X012879Y001109D02*
X012834Y001064D01*
X012789Y001064D01*
X012744Y001109D01*
X012744Y001199D01*
X012789Y001244D01*
X012789Y001359D02*
X012744Y001404D01*
X012744Y001494D01*
X012879Y001494D02*
X012879Y001449D01*
X012879Y000950D02*
X012925Y000905D01*
X012925Y000770D01*
X013015Y000770D02*
X012744Y000770D01*
X012744Y000905D01*
X012789Y000950D01*
X012879Y000950D01*
X013744Y000905D02*
X013789Y000950D01*
X013879Y000950D01*
X013925Y000905D01*
X013925Y000770D01*
X014015Y000770D02*
X013744Y000770D01*
X013744Y000905D01*
X013744Y001064D02*
X013744Y001199D01*
X013789Y001244D01*
X013970Y001244D01*
X014015Y001199D01*
X014015Y001064D01*
X013744Y001064D01*
X013834Y001359D02*
X013744Y001449D01*
X014015Y001449D01*
X014015Y001359D02*
X014015Y001539D01*
X014744Y001494D02*
X014789Y001539D01*
X014834Y001539D01*
X014879Y001494D01*
X014925Y001539D01*
X014970Y001539D01*
X015015Y001494D01*
X015015Y001404D01*
X014970Y001359D01*
X014970Y001244D02*
X014789Y001244D01*
X014744Y001199D01*
X014744Y001064D01*
X015015Y001064D01*
X015015Y001199D01*
X014970Y001244D01*
X014789Y001359D02*
X014744Y001404D01*
X014744Y001494D01*
X014879Y001494D02*
X014879Y001449D01*
X014879Y000950D02*
X014789Y000950D01*
X014744Y000905D01*
X014744Y000770D01*
X015015Y000770D01*
X014925Y000770D02*
X014925Y000905D01*
X014879Y000950D01*
X015744Y000905D02*
X015789Y000950D01*
X015879Y000950D01*
X015925Y000905D01*
X015925Y000770D01*
X016015Y000770D02*
X015744Y000770D01*
X015744Y000905D01*
X015744Y001064D02*
X015744Y001199D01*
X015789Y001244D01*
X015970Y001244D01*
X016015Y001199D01*
X016015Y001064D01*
X015744Y001064D01*
X015744Y001359D02*
X015879Y001359D01*
X015834Y001449D01*
X015834Y001494D01*
X015879Y001539D01*
X015970Y001539D01*
X016015Y001494D01*
X016015Y001404D01*
X015970Y001359D01*
X015744Y001359D02*
X015744Y001539D01*
X016744Y001539D02*
X016744Y001359D01*
X016789Y001244D02*
X016744Y001199D01*
X016744Y001064D01*
X017015Y001064D01*
X017015Y001199D01*
X016970Y001244D01*
X016789Y001244D01*
X016970Y001359D02*
X017015Y001359D01*
X016970Y001359D02*
X016789Y001539D01*
X016744Y001539D01*
X016789Y000950D02*
X016879Y000950D01*
X016925Y000905D01*
X016925Y000770D01*
X017015Y000770D02*
X016744Y000770D01*
X016744Y000905D01*
X016789Y000950D01*
X017744Y000905D02*
X017789Y000950D01*
X017879Y000950D01*
X017925Y000905D01*
X017925Y000770D01*
X018015Y000770D02*
X017744Y000770D01*
X017744Y000905D01*
X017744Y001064D02*
X018015Y001064D01*
X018015Y001244D01*
X018015Y001359D02*
X018015Y001539D01*
X018015Y001449D02*
X017744Y001449D01*
X017834Y001359D01*
X017744Y001244D02*
X017744Y001064D01*
X017879Y001064D02*
X017879Y001154D01*
X018744Y001064D02*
X019015Y001064D01*
X019015Y001244D01*
X018970Y001359D02*
X019015Y001404D01*
X019015Y001494D01*
X018970Y001539D01*
X018925Y001539D01*
X018879Y001494D01*
X018879Y001449D01*
X018879Y001494D02*
X018834Y001539D01*
X018789Y001539D01*
X018744Y001494D01*
X018744Y001404D01*
X018789Y001359D01*
X018744Y001244D02*
X018744Y001064D01*
X018789Y000950D02*
X018879Y000950D01*
X018925Y000905D01*
X018925Y000770D01*
X019015Y000770D02*
X018744Y000770D01*
X018744Y000905D01*
X018789Y000950D01*
X018879Y001064D02*
X018879Y001154D01*
X019744Y001064D02*
X020015Y001064D01*
X020015Y001244D01*
X019970Y001359D02*
X020015Y001404D01*
X020015Y001494D01*
X019970Y001539D01*
X019879Y001539D01*
X019834Y001494D01*
X019834Y001449D01*
X019879Y001359D01*
X019744Y001359D01*
X019744Y001539D01*
X019744Y001244D02*
X019744Y001064D01*
X019789Y000950D02*
X019744Y000905D01*
X019744Y000770D01*
X020015Y000770D01*
X019925Y000770D02*
X019925Y000905D01*
X019879Y000950D01*
X019789Y000950D01*
X019879Y001064D02*
X019879Y001154D01*
X020744Y001064D02*
X021015Y001064D01*
X021015Y001244D01*
X021015Y001359D02*
X020970Y001359D01*
X020789Y001539D01*
X020744Y001539D01*
X020744Y001359D01*
X020744Y001244D02*
X020744Y001064D01*
X020789Y000950D02*
X020879Y000950D01*
X020925Y000905D01*
X020925Y000770D01*
X021015Y000770D02*
X020744Y000770D01*
X020744Y000905D01*
X020789Y000950D01*
X020879Y001064D02*
X020879Y001154D01*
X021744Y001064D02*
X021744Y001244D01*
X021834Y001359D02*
X021744Y001449D01*
X022015Y001449D01*
X022015Y001359D02*
X022015Y001539D01*
X021879Y001154D02*
X021879Y001064D01*
X021879Y000950D02*
X021925Y000905D01*
X021925Y000770D01*
X022015Y000770D02*
X021744Y000770D01*
X021744Y000905D01*
X021789Y000950D01*
X021879Y000950D01*
X021744Y001064D02*
X022015Y001064D01*
X022744Y001064D02*
X022744Y001244D01*
X022789Y001359D02*
X022744Y001404D01*
X022744Y001494D01*
X022789Y001539D01*
X022834Y001539D01*
X022879Y001494D01*
X022925Y001539D01*
X022970Y001539D01*
X023015Y001494D01*
X023015Y001404D01*
X022970Y001359D01*
X022879Y001449D02*
X022879Y001494D01*
X022879Y001154D02*
X022879Y001064D01*
X022879Y000950D02*
X022925Y000905D01*
X022925Y000770D01*
X023015Y000770D02*
X022744Y000770D01*
X022744Y000905D01*
X022789Y000950D01*
X022879Y000950D01*
X022744Y001064D02*
X023015Y001064D01*
X023744Y001064D02*
X023744Y001244D01*
X023744Y001359D02*
X023879Y001359D01*
X023834Y001449D01*
X023834Y001494D01*
X023879Y001539D01*
X023970Y001539D01*
X024015Y001494D01*
X024015Y001404D01*
X023970Y001359D01*
X023879Y001154D02*
X023879Y001064D01*
X023879Y000950D02*
X023925Y000905D01*
X023925Y000770D01*
X024015Y000770D02*
X023744Y000770D01*
X023744Y000905D01*
X023789Y000950D01*
X023879Y000950D01*
X023744Y001064D02*
X024015Y001064D01*
X023744Y001359D02*
X023744Y001539D01*
X024744Y001539D02*
X024744Y001359D01*
X024744Y001244D02*
X024744Y001064D01*
X025015Y001064D01*
X024879Y001064D02*
X024879Y001154D01*
X024879Y000950D02*
X024925Y000905D01*
X024925Y000770D01*
X025015Y000770D02*
X024744Y000770D01*
X024744Y000905D01*
X024789Y000950D01*
X024879Y000950D01*
X024970Y001359D02*
X025015Y001359D01*
X024970Y001359D02*
X024789Y001539D01*
X024744Y001539D01*
X025744Y001449D02*
X026015Y001449D01*
X026015Y001359D02*
X026015Y001539D01*
X025834Y001359D02*
X025744Y001449D01*
X025744Y001244D02*
X026015Y001244D01*
X025879Y001244D02*
X025879Y001064D01*
X025879Y000950D02*
X025925Y000905D01*
X025925Y000770D01*
X026015Y000770D02*
X025744Y000770D01*
X025744Y000905D01*
X025789Y000950D01*
X025879Y000950D01*
X025744Y001064D02*
X026015Y001064D01*
X026744Y001064D02*
X027015Y001064D01*
X026879Y001064D02*
X026879Y001244D01*
X026744Y001244D02*
X027015Y001244D01*
X026970Y001359D02*
X027015Y001404D01*
X027015Y001494D01*
X026970Y001539D01*
X026925Y001539D01*
X026879Y001494D01*
X026879Y001449D01*
X026879Y001494D02*
X026834Y001539D01*
X026789Y001539D01*
X026744Y001494D01*
X026744Y001404D01*
X026789Y001359D01*
X026789Y000950D02*
X026879Y000950D01*
X026925Y000905D01*
X026925Y000770D01*
X027015Y000770D02*
X026744Y000770D01*
X026744Y000905D01*
X026789Y000950D01*
X027744Y000905D02*
X027789Y000950D01*
X027879Y000950D01*
X027925Y000905D01*
X027925Y000770D01*
X028015Y000770D02*
X027744Y000770D01*
X027744Y000905D01*
X027744Y001064D02*
X028015Y001064D01*
X027879Y001064D02*
X027879Y001244D01*
X027879Y001359D02*
X027834Y001449D01*
X027834Y001494D01*
X027879Y001539D01*
X027970Y001539D01*
X028015Y001494D01*
X028015Y001404D01*
X027970Y001359D01*
X027879Y001359D02*
X027744Y001359D01*
X027744Y001539D01*
X027744Y001244D02*
X028015Y001244D01*
X028744Y001244D02*
X029015Y001244D01*
X029015Y001359D02*
X028970Y001359D01*
X028789Y001539D01*
X028744Y001539D01*
X028744Y001359D01*
X028879Y001244D02*
X028879Y001064D01*
X028879Y000950D02*
X028925Y000905D01*
X028925Y000770D01*
X029015Y000770D02*
X028744Y000770D01*
X028744Y000905D01*
X028789Y000950D01*
X028879Y000950D01*
X028744Y001064D02*
X029015Y001064D01*
X029045Y003840D02*
X028774Y003840D01*
X028774Y003975D01*
X028819Y004020D01*
X028909Y004020D01*
X028955Y003975D01*
X028955Y003840D01*
X028909Y004134D02*
X028909Y004314D01*
X028909Y004429D02*
X028819Y004519D01*
X028774Y004609D01*
X028909Y004564D02*
X028909Y004429D01*
X029000Y004429D01*
X029045Y004474D01*
X029045Y004564D01*
X029000Y004609D01*
X028955Y004609D01*
X028909Y004564D01*
X028774Y004314D02*
X029045Y004314D01*
X029045Y004134D02*
X028774Y004134D01*
X028015Y004164D02*
X027744Y004164D01*
X027789Y004050D02*
X027879Y004050D01*
X027925Y004005D01*
X027925Y003870D01*
X028015Y003870D02*
X027744Y003870D01*
X027744Y004005D01*
X027789Y004050D01*
X027879Y004164D02*
X027879Y004344D01*
X027879Y004459D02*
X027879Y004639D01*
X027744Y004594D02*
X027879Y004459D01*
X027744Y004344D02*
X028015Y004344D01*
X028015Y004594D02*
X027744Y004594D01*
X027015Y004639D02*
X027015Y004459D01*
X026834Y004639D01*
X026789Y004639D01*
X026744Y004594D01*
X026744Y004504D01*
X026789Y004459D01*
X026744Y004344D02*
X027015Y004344D01*
X026879Y004344D02*
X026879Y004164D01*
X026879Y004050D02*
X026925Y004005D01*
X026925Y003870D01*
X027015Y003870D02*
X026744Y003870D01*
X026744Y004005D01*
X026789Y004050D01*
X026879Y004050D01*
X026744Y004164D02*
X027015Y004164D01*
X026015Y004164D02*
X025744Y004164D01*
X025789Y004050D02*
X025879Y004050D01*
X025925Y004005D01*
X025925Y003870D01*
X026015Y003870D02*
X025744Y003870D01*
X025744Y004005D01*
X025789Y004050D01*
X025879Y004164D02*
X025879Y004344D01*
X025744Y004344D02*
X026015Y004344D01*
X025970Y004459D02*
X025789Y004639D01*
X025970Y004639D01*
X026015Y004594D01*
X026015Y004504D01*
X025970Y004459D01*
X025789Y004459D01*
X025744Y004504D01*
X025744Y004594D01*
X025789Y004639D01*
X025015Y004594D02*
X025015Y004504D01*
X024970Y004459D01*
X024879Y004459D01*
X024879Y004594D01*
X024925Y004639D01*
X024970Y004639D01*
X025015Y004594D01*
X024879Y004459D02*
X024789Y004549D01*
X024744Y004639D01*
X024744Y004344D02*
X024744Y004164D01*
X025015Y004164D01*
X024879Y004164D02*
X024879Y004254D01*
X024879Y004050D02*
X024925Y004005D01*
X024925Y003870D01*
X025015Y003870D02*
X024744Y003870D01*
X024744Y004005D01*
X024789Y004050D01*
X024879Y004050D01*
X024015Y004164D02*
X023744Y004164D01*
X023744Y004344D01*
X023879Y004254D02*
X023879Y004164D01*
X023879Y004050D02*
X023925Y004005D01*
X023925Y003870D01*
X024015Y003870D02*
X023744Y003870D01*
X023744Y004005D01*
X023789Y004050D01*
X023879Y004050D01*
X023879Y004459D02*
X023879Y004639D01*
X023744Y004594D02*
X023879Y004459D01*
X023744Y004594D02*
X024015Y004594D01*
X023015Y004639D02*
X023015Y004459D01*
X022834Y004639D01*
X022789Y004639D01*
X022744Y004594D01*
X022744Y004504D01*
X022789Y004459D01*
X022744Y004344D02*
X022744Y004164D01*
X023015Y004164D01*
X022879Y004164D02*
X022879Y004254D01*
X022879Y004050D02*
X022789Y004050D01*
X022744Y004005D01*
X022744Y003870D01*
X023015Y003870D01*
X022925Y003870D02*
X022925Y004005D01*
X022879Y004050D01*
X022015Y004164D02*
X021744Y004164D01*
X021744Y004344D01*
X021789Y004459D02*
X021744Y004504D01*
X021744Y004594D01*
X021789Y004639D01*
X021970Y004459D01*
X022015Y004504D01*
X022015Y004594D01*
X021970Y004639D01*
X021789Y004639D01*
X021789Y004459D02*
X021970Y004459D01*
X021879Y004254D02*
X021879Y004164D01*
X021879Y004050D02*
X021925Y004005D01*
X021925Y003870D01*
X022015Y003870D02*
X021744Y003870D01*
X021744Y004005D01*
X021789Y004050D01*
X021879Y004050D01*
X021015Y004164D02*
X021015Y004344D01*
X020970Y004459D02*
X021015Y004504D01*
X021015Y004594D01*
X020970Y004639D01*
X020925Y004639D01*
X020879Y004594D01*
X020879Y004459D01*
X020970Y004459D01*
X020879Y004459D02*
X020789Y004549D01*
X020744Y004639D01*
X020744Y004344D02*
X020744Y004164D01*
X021015Y004164D01*
X020879Y004164D02*
X020879Y004254D01*
X020879Y004050D02*
X020925Y004005D01*
X020925Y003870D01*
X021015Y003870D02*
X020744Y003870D01*
X020744Y004005D01*
X020789Y004050D01*
X020879Y004050D01*
X020015Y004164D02*
X020015Y004344D01*
X019879Y004254D02*
X019879Y004164D01*
X019879Y004050D02*
X019925Y004005D01*
X019925Y003870D01*
X020015Y003870D02*
X019744Y003870D01*
X019744Y004005D01*
X019789Y004050D01*
X019879Y004050D01*
X019744Y004164D02*
X020015Y004164D01*
X019744Y004164D02*
X019744Y004344D01*
X019879Y004459D02*
X019744Y004594D01*
X020015Y004594D01*
X019879Y004639D02*
X019879Y004459D01*
X019015Y004459D02*
X018834Y004639D01*
X018789Y004639D01*
X018744Y004594D01*
X018744Y004504D01*
X018789Y004459D01*
X018744Y004344D02*
X018744Y004164D01*
X019015Y004164D01*
X019015Y004344D01*
X019015Y004459D02*
X019015Y004639D01*
X018879Y004254D02*
X018879Y004164D01*
X018879Y004050D02*
X018925Y004005D01*
X018925Y003870D01*
X019015Y003870D02*
X018744Y003870D01*
X018744Y004005D01*
X018789Y004050D01*
X018879Y004050D01*
X018015Y004164D02*
X018015Y004344D01*
X017970Y004459D02*
X017789Y004639D01*
X017970Y004639D01*
X018015Y004594D01*
X018015Y004504D01*
X017970Y004459D01*
X017789Y004459D01*
X017744Y004504D01*
X017744Y004594D01*
X017789Y004639D01*
X017744Y004344D02*
X017744Y004164D01*
X018015Y004164D01*
X017879Y004164D02*
X017879Y004254D01*
X017879Y004050D02*
X017789Y004050D01*
X017744Y004005D01*
X017744Y003870D01*
X018015Y003870D01*
X017925Y003870D02*
X017925Y004005D01*
X017879Y004050D01*
X017015Y004164D02*
X017015Y004299D01*
X016970Y004344D01*
X016789Y004344D01*
X016744Y004299D01*
X016744Y004164D01*
X017015Y004164D01*
X016879Y004050D02*
X016925Y004005D01*
X016925Y003870D01*
X017015Y003870D02*
X016744Y003870D01*
X016744Y004005D01*
X016789Y004050D01*
X016879Y004050D01*
X016879Y004459D02*
X016879Y004594D01*
X016925Y004639D01*
X016970Y004639D01*
X017015Y004594D01*
X017015Y004504D01*
X016970Y004459D01*
X016879Y004459D01*
X016789Y004549D01*
X016744Y004639D01*
X016015Y004594D02*
X015744Y004594D01*
X015879Y004459D01*
X015879Y004639D01*
X015789Y004344D02*
X015744Y004299D01*
X015744Y004164D01*
X016015Y004164D01*
X016015Y004299D01*
X015970Y004344D01*
X015789Y004344D01*
X015789Y004050D02*
X015879Y004050D01*
X015925Y004005D01*
X015925Y003870D01*
X016015Y003870D02*
X015744Y003870D01*
X015744Y004005D01*
X015789Y004050D01*
X015015Y004164D02*
X015015Y004299D01*
X014970Y004344D01*
X014789Y004344D01*
X014744Y004299D01*
X014744Y004164D01*
X015015Y004164D01*
X014879Y004050D02*
X014789Y004050D01*
X014744Y004005D01*
X014744Y003870D01*
X015015Y003870D01*
X014925Y003870D02*
X014925Y004005D01*
X014879Y004050D01*
X014789Y004459D02*
X014744Y004504D01*
X014744Y004594D01*
X014789Y004639D01*
X014834Y004639D01*
X015015Y004459D01*
X015015Y004639D01*
X014015Y004594D02*
X014015Y004504D01*
X013970Y004459D01*
X013789Y004639D01*
X013970Y004639D01*
X014015Y004594D01*
X013970Y004459D02*
X013789Y004459D01*
X013744Y004504D01*
X013744Y004594D01*
X013789Y004639D01*
X013789Y004344D02*
X013744Y004299D01*
X013744Y004164D01*
X014015Y004164D01*
X014015Y004299D01*
X013970Y004344D01*
X013789Y004344D01*
X013789Y004050D02*
X013879Y004050D01*
X013925Y004005D01*
X013925Y003870D01*
X014015Y003870D02*
X013744Y003870D01*
X013744Y004005D01*
X013789Y004050D01*
X013015Y004209D02*
X012970Y004164D01*
X013015Y004209D02*
X013015Y004299D01*
X012970Y004344D01*
X012925Y004344D01*
X012879Y004299D01*
X012879Y004209D01*
X012834Y004164D01*
X012789Y004164D01*
X012744Y004209D01*
X012744Y004299D01*
X012789Y004344D01*
X012789Y004459D02*
X012744Y004504D01*
X012744Y004594D01*
X012789Y004639D01*
X012834Y004639D01*
X013015Y004459D01*
X013015Y004639D01*
X012879Y004050D02*
X012925Y004005D01*
X012925Y003870D01*
X013015Y003870D02*
X012744Y003870D01*
X012744Y004005D01*
X012789Y004050D01*
X012879Y004050D01*
X012015Y004209D02*
X011970Y004164D01*
X012015Y004209D02*
X012015Y004299D01*
X011970Y004344D01*
X011925Y004344D01*
X011879Y004299D01*
X011879Y004209D01*
X011834Y004164D01*
X011789Y004164D01*
X011744Y004209D01*
X011744Y004299D01*
X011789Y004344D01*
X011789Y004459D02*
X011744Y004504D01*
X011744Y004594D01*
X011789Y004639D01*
X011970Y004459D01*
X012015Y004504D01*
X012015Y004594D01*
X011970Y004639D01*
X011789Y004639D01*
X011789Y004459D02*
X011970Y004459D01*
X011879Y004050D02*
X011925Y004005D01*
X011925Y003870D01*
X012015Y003870D02*
X011744Y003870D01*
X011744Y004005D01*
X011789Y004050D01*
X011879Y004050D01*
X011015Y004005D02*
X010970Y004050D01*
X010879Y004050D01*
X010879Y003960D01*
X010789Y004050D02*
X010744Y004005D01*
X010744Y003915D01*
X010789Y003870D01*
X010970Y003870D01*
X011015Y003915D01*
X011015Y004005D01*
X011015Y004164D02*
X010744Y004164D01*
X011015Y004344D01*
X010744Y004344D01*
X010744Y004459D02*
X010744Y004594D01*
X010789Y004639D01*
X010970Y004639D01*
X011015Y004594D01*
X011015Y004459D01*
X010744Y004459D01*
X010015Y004504D02*
X009970Y004459D01*
X009789Y004639D01*
X009970Y004639D01*
X010015Y004594D01*
X010015Y004504D01*
X009970Y004459D02*
X009789Y004459D01*
X009744Y004504D01*
X009744Y004594D01*
X009789Y004639D01*
X009789Y004344D02*
X009744Y004299D01*
X009744Y004209D01*
X009789Y004164D01*
X009970Y004164D01*
X010015Y004209D01*
X010015Y004299D01*
X009970Y004344D01*
X009879Y004050D02*
X009789Y004050D01*
X009744Y004005D01*
X009744Y003870D01*
X010015Y003870D01*
X009925Y003870D02*
X009925Y004005D01*
X009879Y004050D01*
X008775Y004369D02*
X008775Y004504D01*
X008594Y004504D01*
X008594Y004618D02*
X008639Y004663D01*
X008639Y004753D01*
X008685Y004798D01*
X008730Y004798D01*
X008775Y004753D01*
X008775Y004663D01*
X008730Y004618D01*
X008594Y004618D02*
X008549Y004618D01*
X008504Y004663D01*
X008504Y004753D01*
X008549Y004798D01*
X008504Y004913D02*
X008504Y005048D01*
X008549Y005093D01*
X008730Y005093D01*
X008775Y005048D01*
X008775Y004913D01*
X008504Y004913D01*
X008594Y004324D02*
X008730Y004324D01*
X008775Y004369D01*
X002940Y010544D02*
X002760Y010814D01*
X002645Y010814D02*
X002465Y010814D01*
X002555Y010814D02*
X002555Y010544D01*
X002760Y010544D02*
X002940Y010814D01*
X005534Y013444D02*
X005579Y013399D01*
X005760Y013399D01*
X005805Y013444D01*
X005805Y013534D01*
X005760Y013579D01*
X005760Y013694D02*
X005669Y013694D01*
X005624Y013739D01*
X005624Y013829D01*
X005669Y013874D01*
X005760Y013874D01*
X005805Y013829D01*
X005805Y013739D01*
X005760Y013694D01*
X005579Y013579D02*
X005534Y013534D01*
X005534Y013444D01*
X005624Y013988D02*
X005624Y014124D01*
X005669Y014169D01*
X005805Y014169D01*
X005805Y014283D02*
X005805Y014418D01*
X005760Y014463D01*
X005715Y014418D01*
X005715Y014328D01*
X005669Y014283D01*
X005624Y014328D01*
X005624Y014463D01*
X005669Y014578D02*
X005760Y014578D01*
X005805Y014623D01*
X005805Y014713D01*
X005760Y014758D01*
X005669Y014758D01*
X005624Y014713D01*
X005624Y014623D01*
X005669Y014578D01*
X005534Y014872D02*
X005534Y014917D01*
X005805Y014917D01*
X005805Y014872D02*
X005805Y014962D01*
X005760Y015069D02*
X005669Y015069D01*
X005624Y015114D01*
X005624Y015204D01*
X005669Y015249D01*
X005715Y015249D01*
X005715Y015069D01*
X005760Y015069D02*
X005805Y015114D01*
X005805Y015204D01*
X006390Y016009D02*
X007190Y016009D01*
X005805Y013988D02*
X005624Y013988D01*
X002949Y017924D02*
X002769Y018194D01*
X002655Y018149D02*
X002655Y018059D01*
X002610Y018014D01*
X002475Y018014D01*
X002565Y018014D02*
X002655Y017924D01*
X002769Y017924D02*
X002949Y018194D01*
X002655Y018149D02*
X002610Y018194D01*
X002475Y018194D01*
X002475Y017924D01*
X009744Y018370D02*
X009744Y018505D01*
X009789Y018550D01*
X009879Y018550D01*
X009925Y018505D01*
X009925Y018370D01*
X010015Y018370D02*
X009744Y018370D01*
X009744Y018664D02*
X009744Y018799D01*
X009789Y018844D01*
X009834Y018844D01*
X009879Y018799D01*
X009879Y018664D01*
X009744Y018664D02*
X010015Y018664D01*
X010015Y018799D01*
X009970Y018844D01*
X009925Y018844D01*
X009879Y018799D01*
X009970Y018959D02*
X010015Y018959D01*
X009970Y018959D02*
X009789Y019139D01*
X009744Y019139D01*
X009744Y018959D01*
X010744Y018959D02*
X010879Y018959D01*
X010834Y019049D01*
X010834Y019094D01*
X010879Y019139D01*
X010970Y019139D01*
X011015Y019094D01*
X011015Y019004D01*
X010970Y018959D01*
X010970Y018844D02*
X011015Y018799D01*
X011015Y018664D01*
X010744Y018664D01*
X010744Y018799D01*
X010789Y018844D01*
X010834Y018844D01*
X010879Y018799D01*
X010879Y018664D01*
X010879Y018550D02*
X010925Y018505D01*
X010925Y018370D01*
X011015Y018370D02*
X010744Y018370D01*
X010744Y018505D01*
X010789Y018550D01*
X010879Y018550D01*
X010879Y018799D02*
X010925Y018844D01*
X010970Y018844D01*
X010744Y018959D02*
X010744Y019139D01*
X011744Y019094D02*
X011744Y019004D01*
X011789Y018959D01*
X011789Y018844D02*
X011744Y018799D01*
X011744Y018664D01*
X012015Y018664D01*
X012015Y018799D01*
X011970Y018844D01*
X011925Y018844D01*
X011879Y018799D01*
X011879Y018664D01*
X011879Y018550D02*
X011925Y018505D01*
X011925Y018370D01*
X012015Y018370D02*
X011744Y018370D01*
X011744Y018505D01*
X011789Y018550D01*
X011879Y018550D01*
X011879Y018799D02*
X011834Y018844D01*
X011789Y018844D01*
X011970Y018959D02*
X012015Y019004D01*
X012015Y019094D01*
X011970Y019139D01*
X011925Y019139D01*
X011879Y019094D01*
X011879Y019049D01*
X011879Y019094D02*
X011834Y019139D01*
X011789Y019139D01*
X011744Y019094D01*
X012744Y019049D02*
X013015Y019049D01*
X013015Y018959D02*
X013015Y019139D01*
X012834Y018959D02*
X012744Y019049D01*
X012789Y018844D02*
X012834Y018844D01*
X012879Y018799D01*
X012879Y018664D01*
X012879Y018550D02*
X012925Y018505D01*
X012925Y018370D01*
X013015Y018370D02*
X012744Y018370D01*
X012744Y018505D01*
X012789Y018550D01*
X012879Y018550D01*
X012744Y018664D02*
X012744Y018799D01*
X012789Y018844D01*
X012879Y018799D02*
X012925Y018844D01*
X012970Y018844D01*
X013015Y018799D01*
X013015Y018664D01*
X012744Y018664D01*
X013744Y018754D02*
X013834Y018844D01*
X014015Y018844D01*
X014015Y018959D02*
X013970Y018959D01*
X013789Y019139D01*
X013744Y019139D01*
X013744Y018959D01*
X013879Y018844D02*
X013879Y018664D01*
X013834Y018664D02*
X013744Y018754D01*
X013834Y018664D02*
X014015Y018664D01*
X013879Y018550D02*
X013925Y018505D01*
X013925Y018370D01*
X014015Y018370D02*
X013744Y018370D01*
X013744Y018505D01*
X013789Y018550D01*
X013879Y018550D01*
X014744Y018505D02*
X014744Y018370D01*
X015015Y018370D01*
X014925Y018370D02*
X014925Y018505D01*
X014879Y018550D01*
X014789Y018550D01*
X014744Y018505D01*
X014834Y018664D02*
X014744Y018754D01*
X014834Y018844D01*
X015015Y018844D01*
X014970Y018959D02*
X015015Y019004D01*
X015015Y019094D01*
X014970Y019139D01*
X014879Y019139D01*
X014834Y019094D01*
X014834Y019049D01*
X014879Y018959D01*
X014744Y018959D01*
X014744Y019139D01*
X014879Y018844D02*
X014879Y018664D01*
X014834Y018664D02*
X015015Y018664D01*
X015744Y018754D02*
X015834Y018844D01*
X016015Y018844D01*
X015970Y018959D02*
X016015Y019004D01*
X016015Y019094D01*
X015970Y019139D01*
X015925Y019139D01*
X015879Y019094D01*
X015879Y019049D01*
X015879Y019094D02*
X015834Y019139D01*
X015789Y019139D01*
X015744Y019094D01*
X015744Y019004D01*
X015789Y018959D01*
X015879Y018844D02*
X015879Y018664D01*
X015834Y018664D02*
X015744Y018754D01*
X015834Y018664D02*
X016015Y018664D01*
X015879Y018550D02*
X015925Y018505D01*
X015925Y018370D01*
X016015Y018370D02*
X015744Y018370D01*
X015744Y018505D01*
X015789Y018550D01*
X015879Y018550D01*
X016744Y018505D02*
X016744Y018370D01*
X017015Y018370D01*
X016925Y018370D02*
X016925Y018505D01*
X016879Y018550D01*
X016789Y018550D01*
X016744Y018505D01*
X016834Y018664D02*
X016744Y018754D01*
X016834Y018844D01*
X017015Y018844D01*
X017015Y018959D02*
X017015Y019139D01*
X017015Y019049D02*
X016744Y019049D01*
X016834Y018959D01*
X016879Y018844D02*
X016879Y018664D01*
X016834Y018664D02*
X017015Y018664D01*
X017744Y018664D02*
X017744Y018799D01*
X017789Y018844D01*
X017879Y018844D01*
X017925Y018799D01*
X017925Y018664D01*
X018015Y018664D02*
X017744Y018664D01*
X017789Y018550D02*
X017879Y018550D01*
X017925Y018505D01*
X017925Y018370D01*
X018015Y018370D02*
X017744Y018370D01*
X017744Y018505D01*
X017789Y018550D01*
X017925Y018754D02*
X018015Y018844D01*
X018015Y018959D02*
X018015Y019139D01*
X018015Y019049D02*
X017744Y019049D01*
X017834Y018959D01*
X018744Y018979D02*
X018925Y018979D01*
X019015Y019069D01*
X018925Y019159D01*
X018744Y019159D01*
X018744Y018864D02*
X018744Y018684D01*
X018879Y018684D01*
X018834Y018774D01*
X018834Y018819D01*
X018879Y018864D01*
X018970Y018864D01*
X019015Y018819D01*
X019015Y018729D01*
X018970Y018684D01*
X018970Y018582D02*
X019015Y018582D01*
X019015Y018537D01*
X018970Y018537D01*
X018970Y018582D01*
X019015Y018422D02*
X019015Y018242D01*
X018834Y018422D01*
X018789Y018422D01*
X018744Y018377D01*
X018744Y018287D01*
X018789Y018242D01*
X019744Y018370D02*
X019744Y018505D01*
X019789Y018550D01*
X019879Y018550D01*
X019925Y018505D01*
X019925Y018370D01*
X020015Y018370D02*
X019744Y018370D01*
X019789Y018664D02*
X019744Y018709D01*
X019744Y018799D01*
X019789Y018844D01*
X019970Y018844D01*
X020015Y018799D01*
X020015Y018709D01*
X019970Y018664D01*
X019789Y018664D01*
X019925Y018754D02*
X020015Y018844D01*
X020015Y018959D02*
X020015Y019139D01*
X020015Y019049D02*
X019744Y019049D01*
X019834Y018959D01*
X020744Y018959D02*
X020744Y019139D01*
X020789Y019139D01*
X020970Y018959D01*
X021015Y018959D01*
X021015Y018844D02*
X020879Y018709D01*
X020925Y018664D02*
X020744Y018844D01*
X020744Y018664D02*
X021015Y018664D01*
X020879Y018550D02*
X020925Y018505D01*
X020925Y018370D01*
X021015Y018370D02*
X020744Y018370D01*
X020744Y018505D01*
X020789Y018550D01*
X020879Y018550D01*
X021744Y018505D02*
X021744Y018370D01*
X022015Y018370D01*
X021925Y018370D02*
X021925Y018505D01*
X021879Y018550D01*
X021789Y018550D01*
X021744Y018505D01*
X021744Y018664D02*
X022015Y018664D01*
X021925Y018664D02*
X021744Y018844D01*
X021744Y018959D02*
X021879Y018959D01*
X021834Y019049D01*
X021834Y019094D01*
X021879Y019139D01*
X021970Y019139D01*
X022015Y019094D01*
X022015Y019004D01*
X021970Y018959D01*
X022015Y018844D02*
X021879Y018709D01*
X021744Y018959D02*
X021744Y019139D01*
X022744Y019094D02*
X022744Y019004D01*
X022789Y018959D01*
X022744Y018844D02*
X022925Y018664D01*
X022879Y018709D02*
X023015Y018844D01*
X022970Y018959D02*
X023015Y019004D01*
X023015Y019094D01*
X022970Y019139D01*
X022925Y019139D01*
X022879Y019094D01*
X022879Y019049D01*
X022879Y019094D02*
X022834Y019139D01*
X022789Y019139D01*
X022744Y019094D01*
X022744Y018664D02*
X023015Y018664D01*
X022879Y018550D02*
X022789Y018550D01*
X022744Y018505D01*
X022744Y018370D01*
X023015Y018370D01*
X022925Y018370D02*
X022925Y018505D01*
X022879Y018550D01*
X023744Y018505D02*
X023744Y018370D01*
X024015Y018370D01*
X023925Y018370D02*
X023925Y018505D01*
X023879Y018550D01*
X023789Y018550D01*
X023744Y018505D01*
X023789Y018664D02*
X023834Y018664D01*
X023879Y018709D01*
X023879Y018799D01*
X023925Y018844D01*
X023970Y018844D01*
X024015Y018799D01*
X024015Y018709D01*
X023970Y018664D01*
X023789Y018664D02*
X023744Y018709D01*
X023744Y018799D01*
X023789Y018844D01*
X023744Y018959D02*
X023879Y018959D01*
X023834Y019049D01*
X023834Y019094D01*
X023879Y019139D01*
X023970Y019139D01*
X024015Y019094D01*
X024015Y019004D01*
X023970Y018959D01*
X023744Y018959D02*
X023744Y019139D01*
X024744Y019139D02*
X024744Y018959D01*
X024744Y018844D02*
X024744Y018754D01*
X024744Y018799D02*
X024970Y018799D01*
X025015Y018754D01*
X025015Y018709D01*
X024970Y018664D01*
X024879Y018550D02*
X024925Y018505D01*
X024925Y018370D01*
X025015Y018370D02*
X024744Y018370D01*
X024744Y018505D01*
X024789Y018550D01*
X024879Y018550D01*
X024970Y018959D02*
X025015Y018959D01*
X024970Y018959D02*
X024789Y019139D01*
X024744Y019139D01*
X025744Y019139D02*
X025744Y018959D01*
X025879Y018959D01*
X025834Y019049D01*
X025834Y019094D01*
X025879Y019139D01*
X025970Y019139D01*
X026015Y019094D01*
X026015Y019004D01*
X025970Y018959D01*
X025970Y018799D02*
X025744Y018799D01*
X025744Y018754D02*
X025744Y018844D01*
X025970Y018799D02*
X026015Y018754D01*
X026015Y018709D01*
X025970Y018664D01*
X025879Y018550D02*
X025789Y018550D01*
X025744Y018505D01*
X025744Y018370D01*
X026015Y018370D01*
X025925Y018370D02*
X025925Y018505D01*
X025879Y018550D01*
X026744Y018505D02*
X026744Y018370D01*
X027015Y018370D01*
X026925Y018370D02*
X026925Y018505D01*
X026879Y018550D01*
X026789Y018550D01*
X026744Y018505D01*
X026744Y018754D02*
X026744Y018844D01*
X026744Y018799D02*
X026970Y018799D01*
X027015Y018754D01*
X027015Y018709D01*
X026970Y018664D01*
X026970Y018959D02*
X027015Y019004D01*
X027015Y019094D01*
X026970Y019139D01*
X026925Y019139D01*
X026879Y019094D01*
X026879Y019049D01*
X026879Y019094D02*
X026834Y019139D01*
X026789Y019139D01*
X026744Y019094D01*
X026744Y019004D01*
X026789Y018959D01*
X027744Y019049D02*
X028015Y019049D01*
X028015Y018959D02*
X028015Y019139D01*
X027834Y018959D02*
X027744Y019049D01*
X027744Y018844D02*
X027744Y018754D01*
X027744Y018799D02*
X027970Y018799D01*
X028015Y018754D01*
X028015Y018709D01*
X027970Y018664D01*
X027879Y018550D02*
X027925Y018505D01*
X027925Y018370D01*
X028015Y018370D02*
X027744Y018370D01*
X027744Y018505D01*
X027789Y018550D01*
X027879Y018550D01*
X028744Y018505D02*
X028744Y018415D01*
X028789Y018370D01*
X028970Y018370D01*
X029015Y018415D01*
X029015Y018505D01*
X028970Y018550D01*
X028879Y018550D01*
X028879Y018460D01*
X028789Y018550D02*
X028744Y018505D01*
X028744Y018664D02*
X029015Y018844D01*
X028744Y018844D01*
X028744Y018959D02*
X028744Y019094D01*
X028789Y019139D01*
X028970Y019139D01*
X029015Y019094D01*
X029015Y018959D01*
X028744Y018959D01*
X028744Y018664D02*
X029015Y018664D01*
X028974Y021470D02*
X028974Y021605D01*
X029019Y021650D01*
X029109Y021650D01*
X029155Y021605D01*
X029155Y021470D01*
X029245Y021470D02*
X028974Y021470D01*
X028845Y021470D02*
X028845Y021650D01*
X028845Y021764D02*
X028574Y021944D01*
X028574Y022059D02*
X028574Y022239D01*
X028574Y022149D02*
X028845Y022149D01*
X028974Y022194D02*
X029019Y022239D01*
X029109Y022239D01*
X029155Y022194D01*
X029155Y022059D01*
X029245Y022059D02*
X028974Y022059D01*
X028974Y022194D01*
X029155Y022149D02*
X029245Y022239D01*
X029245Y021944D02*
X028974Y021944D01*
X028845Y021944D02*
X028574Y021764D01*
X028574Y021650D02*
X028574Y021470D01*
X028845Y021470D01*
X028709Y021470D02*
X028709Y021560D01*
X028974Y021764D02*
X029245Y021764D01*
X029155Y021854D01*
X029245Y021944D01*
X028015Y021854D02*
X027970Y021899D01*
X027744Y021899D01*
X027744Y021854D02*
X027744Y021944D01*
X027789Y022059D02*
X027744Y022104D01*
X027744Y022194D01*
X027789Y022239D01*
X027970Y022059D01*
X028015Y022104D01*
X028015Y022194D01*
X027970Y022239D01*
X027789Y022239D01*
X027789Y022059D02*
X027970Y022059D01*
X028015Y021854D02*
X028015Y021809D01*
X027970Y021764D01*
X027879Y021650D02*
X027925Y021605D01*
X027925Y021470D01*
X028015Y021470D02*
X027744Y021470D01*
X027744Y021605D01*
X027789Y021650D01*
X027879Y021650D01*
X027015Y021809D02*
X027015Y021854D01*
X026970Y021899D01*
X026744Y021899D01*
X026744Y021854D02*
X026744Y021944D01*
X026789Y022059D02*
X026744Y022104D01*
X026744Y022194D01*
X026789Y022239D01*
X026834Y022239D01*
X027015Y022059D01*
X027015Y022239D01*
X027015Y021809D02*
X026970Y021764D01*
X026879Y021650D02*
X026925Y021605D01*
X026925Y021470D01*
X027015Y021470D02*
X026744Y021470D01*
X026744Y021605D01*
X026789Y021650D01*
X026879Y021650D01*
X026015Y021809D02*
X025970Y021764D01*
X026015Y021809D02*
X026015Y021854D01*
X025970Y021899D01*
X025744Y021899D01*
X025744Y021854D02*
X025744Y021944D01*
X025879Y022059D02*
X025744Y022194D01*
X026015Y022194D01*
X025879Y022239D02*
X025879Y022059D01*
X025879Y021650D02*
X025789Y021650D01*
X025744Y021605D01*
X025744Y021470D01*
X026015Y021470D01*
X025925Y021470D02*
X025925Y021605D01*
X025879Y021650D01*
X025015Y021809D02*
X024970Y021764D01*
X025015Y021809D02*
X025015Y021854D01*
X024970Y021899D01*
X024744Y021899D01*
X024744Y021854D02*
X024744Y021944D01*
X024879Y022059D02*
X024879Y022194D01*
X024925Y022239D01*
X024970Y022239D01*
X025015Y022194D01*
X025015Y022104D01*
X024970Y022059D01*
X024879Y022059D01*
X024789Y022149D01*
X024744Y022239D01*
X024789Y021650D02*
X024879Y021650D01*
X024925Y021605D01*
X024925Y021470D01*
X025015Y021470D02*
X024744Y021470D01*
X024744Y021605D01*
X024789Y021650D01*
X024015Y021809D02*
X023970Y021764D01*
X024015Y021809D02*
X024015Y021899D01*
X023970Y021944D01*
X023925Y021944D01*
X023879Y021899D01*
X023879Y021809D01*
X023834Y021764D01*
X023789Y021764D01*
X023744Y021809D01*
X023744Y021899D01*
X023789Y021944D01*
X023879Y022059D02*
X023879Y022194D01*
X023925Y022239D01*
X023970Y022239D01*
X024015Y022194D01*
X024015Y022104D01*
X023970Y022059D01*
X023879Y022059D01*
X023789Y022149D01*
X023744Y022239D01*
X023789Y021650D02*
X023879Y021650D01*
X023925Y021605D01*
X023925Y021470D01*
X024015Y021470D02*
X023744Y021470D01*
X023744Y021605D01*
X023789Y021650D01*
X023015Y021809D02*
X022970Y021764D01*
X023015Y021809D02*
X023015Y021899D01*
X022970Y021944D01*
X022925Y021944D01*
X022879Y021899D01*
X022879Y021809D01*
X022834Y021764D01*
X022789Y021764D01*
X022744Y021809D01*
X022744Y021899D01*
X022789Y021944D01*
X022879Y022059D02*
X022744Y022194D01*
X023015Y022194D01*
X022879Y022239D02*
X022879Y022059D01*
X022879Y021650D02*
X022789Y021650D01*
X022744Y021605D01*
X022744Y021470D01*
X023015Y021470D01*
X022925Y021470D02*
X022925Y021605D01*
X022879Y021650D01*
X022015Y021764D02*
X021744Y021764D01*
X021789Y021650D02*
X021879Y021650D01*
X021925Y021605D01*
X021925Y021470D01*
X022015Y021470D02*
X021744Y021470D01*
X021744Y021605D01*
X021789Y021650D01*
X021925Y021764D02*
X021744Y021944D01*
X021879Y022059D02*
X021879Y022239D01*
X021744Y022194D02*
X021879Y022059D01*
X022015Y021944D02*
X021879Y021809D01*
X021744Y022194D02*
X022015Y022194D01*
X021015Y022194D02*
X020970Y022239D01*
X020925Y022239D01*
X020879Y022194D01*
X020879Y022059D01*
X020970Y022059D01*
X021015Y022104D01*
X021015Y022194D01*
X020879Y022059D02*
X020789Y022149D01*
X020744Y022239D01*
X020744Y021944D02*
X020925Y021764D01*
X020879Y021809D02*
X021015Y021944D01*
X021015Y021764D02*
X020744Y021764D01*
X020789Y021650D02*
X020879Y021650D01*
X020925Y021605D01*
X020925Y021470D01*
X021015Y021470D02*
X020744Y021470D01*
X020744Y021605D01*
X020789Y021650D01*
X020015Y021809D02*
X019970Y021764D01*
X019789Y021764D01*
X019744Y021809D01*
X019744Y021899D01*
X019789Y021944D01*
X019970Y021944D01*
X020015Y021899D01*
X020015Y021809D01*
X019925Y021854D02*
X020015Y021944D01*
X019970Y022059D02*
X019789Y022239D01*
X019970Y022239D01*
X020015Y022194D01*
X020015Y022104D01*
X019970Y022059D01*
X019789Y022059D01*
X019744Y022104D01*
X019744Y022194D01*
X019789Y022239D01*
X019789Y021650D02*
X019744Y021605D01*
X019744Y021470D01*
X020015Y021470D01*
X019925Y021470D02*
X019925Y021605D01*
X019879Y021650D01*
X019789Y021650D01*
X019015Y021605D02*
X019015Y021515D01*
X018970Y021470D01*
X018789Y021470D01*
X018744Y021515D01*
X018744Y021605D01*
X018789Y021650D01*
X018879Y021650D02*
X018879Y021560D01*
X018879Y021650D02*
X018970Y021650D01*
X019015Y021605D01*
X019015Y021764D02*
X018744Y021764D01*
X019015Y021944D01*
X018744Y021944D01*
X018744Y022059D02*
X018744Y022194D01*
X018789Y022239D01*
X018970Y022239D01*
X019015Y022194D01*
X019015Y022059D01*
X018744Y022059D01*
X018015Y022104D02*
X017970Y022059D01*
X017789Y022239D01*
X017970Y022239D01*
X018015Y022194D01*
X018015Y022104D01*
X017970Y022059D02*
X017789Y022059D01*
X017744Y022104D01*
X017744Y022194D01*
X017789Y022239D01*
X017789Y021944D02*
X017879Y021944D01*
X017925Y021899D01*
X017925Y021764D01*
X018015Y021764D02*
X017744Y021764D01*
X017744Y021899D01*
X017789Y021944D01*
X017925Y021854D02*
X018015Y021944D01*
X017879Y021650D02*
X017789Y021650D01*
X017744Y021605D01*
X017744Y021470D01*
X018015Y021470D01*
X017925Y021470D02*
X017925Y021605D01*
X017879Y021650D01*
X017015Y021650D02*
X016925Y021560D01*
X016925Y021605D02*
X016925Y021470D01*
X017015Y021470D02*
X016744Y021470D01*
X016744Y021605D01*
X016789Y021650D01*
X016879Y021650D01*
X016925Y021605D01*
X016879Y021764D02*
X016879Y021854D01*
X016744Y021944D02*
X016744Y021764D01*
X017015Y021764D01*
X017015Y021944D01*
X016970Y022059D02*
X017015Y022104D01*
X017015Y022194D01*
X016970Y022239D01*
X016925Y022239D01*
X016879Y022194D01*
X016879Y022104D01*
X016834Y022059D01*
X016789Y022059D01*
X016744Y022104D01*
X016744Y022194D01*
X016789Y022239D01*
X016645Y022329D02*
X016645Y021445D01*
X016015Y021470D02*
X015744Y021470D01*
X015744Y021605D01*
X015789Y021650D01*
X015879Y021650D01*
X015925Y021605D01*
X015925Y021470D01*
X015879Y021764D02*
X015879Y021944D01*
X015834Y021944D02*
X016015Y021944D01*
X016015Y022059D02*
X015834Y022239D01*
X015789Y022239D01*
X015744Y022194D01*
X015744Y022104D01*
X015789Y022059D01*
X015834Y021944D02*
X015744Y021854D01*
X015834Y021764D01*
X016015Y021764D01*
X016015Y022059D02*
X016015Y022239D01*
X015015Y022194D02*
X014744Y022194D01*
X014879Y022059D01*
X014879Y022239D01*
X014879Y021944D02*
X014879Y021764D01*
X014834Y021764D02*
X014744Y021854D01*
X014834Y021944D01*
X015015Y021944D01*
X015015Y021764D02*
X014834Y021764D01*
X014789Y021650D02*
X014879Y021650D01*
X014925Y021605D01*
X014925Y021470D01*
X015015Y021470D02*
X014744Y021470D01*
X014744Y021605D01*
X014789Y021650D01*
X014015Y021764D02*
X013834Y021764D01*
X013744Y021854D01*
X013834Y021944D01*
X014015Y021944D01*
X013970Y022059D02*
X014015Y022104D01*
X014015Y022194D01*
X013970Y022239D01*
X013925Y022239D01*
X013879Y022194D01*
X013879Y022059D01*
X013970Y022059D01*
X013879Y022059D02*
X013789Y022149D01*
X013744Y022239D01*
X013879Y021944D02*
X013879Y021764D01*
X013879Y021650D02*
X013925Y021605D01*
X013925Y021470D01*
X014015Y021470D02*
X013744Y021470D01*
X013744Y021605D01*
X013789Y021650D01*
X013879Y021650D01*
X013015Y021809D02*
X012970Y021764D01*
X013015Y021809D02*
X013015Y021899D01*
X012970Y021944D01*
X012925Y021944D01*
X012879Y021899D01*
X012879Y021809D01*
X012834Y021764D01*
X012789Y021764D01*
X012744Y021809D01*
X012744Y021899D01*
X012789Y021944D01*
X012789Y022059D02*
X012834Y022059D01*
X012879Y022104D01*
X012879Y022194D01*
X012925Y022239D01*
X012970Y022239D01*
X013015Y022194D01*
X013015Y022104D01*
X012970Y022059D01*
X012925Y022059D01*
X012879Y022104D01*
X012879Y022194D02*
X012834Y022239D01*
X012789Y022239D01*
X012744Y022194D01*
X012744Y022104D01*
X012789Y022059D01*
X012789Y021650D02*
X012879Y021650D01*
X012925Y021605D01*
X012925Y021470D01*
X013015Y021470D02*
X012744Y021470D01*
X012744Y021605D01*
X012789Y021650D01*
X012015Y021764D02*
X012015Y021899D01*
X011970Y021944D01*
X011925Y021944D01*
X011879Y021899D01*
X011879Y021764D01*
X011879Y021650D02*
X011925Y021605D01*
X011925Y021470D01*
X012015Y021470D02*
X011744Y021470D01*
X011744Y021605D01*
X011789Y021650D01*
X011879Y021650D01*
X011744Y021764D02*
X012015Y021764D01*
X011879Y021899D02*
X011834Y021944D01*
X011789Y021944D01*
X011744Y021899D01*
X011744Y021764D01*
X011789Y022059D02*
X011744Y022104D01*
X011744Y022194D01*
X011789Y022239D01*
X011834Y022239D01*
X012015Y022059D01*
X012015Y022239D01*
X011015Y022194D02*
X010744Y022194D01*
X010879Y022059D01*
X010879Y022239D01*
X010834Y021944D02*
X010879Y021899D01*
X010879Y021764D01*
X010879Y021650D02*
X010925Y021605D01*
X010925Y021470D01*
X011015Y021470D02*
X010744Y021470D01*
X010744Y021605D01*
X010789Y021650D01*
X010879Y021650D01*
X010744Y021764D02*
X010744Y021899D01*
X010789Y021944D01*
X010834Y021944D01*
X010879Y021899D02*
X010925Y021944D01*
X010970Y021944D01*
X011015Y021899D01*
X011015Y021764D01*
X010744Y021764D01*
X010015Y021764D02*
X010015Y021899D01*
X009970Y021944D01*
X009925Y021944D01*
X009879Y021899D01*
X009879Y021764D01*
X009879Y021650D02*
X009925Y021605D01*
X009925Y021470D01*
X010015Y021470D02*
X009744Y021470D01*
X009744Y021605D01*
X009789Y021650D01*
X009879Y021650D01*
X009744Y021764D02*
X010015Y021764D01*
X009879Y021899D02*
X009834Y021944D01*
X009789Y021944D01*
X009744Y021899D01*
X009744Y021764D01*
X009879Y022059D02*
X009789Y022149D01*
X009744Y022239D01*
X009879Y022194D02*
X009879Y022059D01*
X009970Y022059D01*
X010015Y022104D01*
X010015Y022194D01*
X009970Y022239D01*
X009925Y022239D01*
X009879Y022194D01*
X031044Y013594D02*
X031089Y013639D01*
X031179Y013639D01*
X031225Y013594D01*
X031225Y013459D01*
X031315Y013459D02*
X031044Y013459D01*
X031044Y013594D01*
X031225Y013549D02*
X031315Y013639D01*
X031315Y013344D02*
X031044Y013344D01*
X031044Y013164D02*
X031315Y013164D01*
X031225Y013254D01*
X031315Y013344D01*
X031179Y013050D02*
X031089Y013050D01*
X031044Y013005D01*
X031044Y012870D01*
X031315Y012870D01*
X031225Y012870D02*
X031225Y013005D01*
X031179Y013050D01*
X030420Y006024D02*
X030240Y006024D01*
X030330Y006024D02*
X030330Y005754D01*
X030125Y005754D02*
X029945Y006024D01*
X029831Y006024D02*
X029651Y006024D01*
X029651Y005754D01*
X029831Y005754D01*
X029945Y005754D02*
X030125Y006024D01*
X029741Y005889D02*
X029651Y005889D01*
X029651Y005524D02*
X029786Y005524D01*
X029831Y005479D01*
X029831Y005389D01*
X029786Y005344D01*
X029651Y005344D01*
X029651Y005254D02*
X029651Y005524D01*
X029945Y005524D02*
X029945Y005254D01*
X030035Y005344D01*
X030125Y005254D01*
X030125Y005524D01*
X030240Y005524D02*
X030375Y005524D01*
X030420Y005479D01*
X030420Y005389D01*
X030375Y005344D01*
X030240Y005344D01*
X030330Y005344D02*
X030420Y005254D01*
X030240Y005254D02*
X030240Y005524D01*
D12*
X029140Y003709D02*
X028640Y003709D01*
X028390Y003459D01*
X028390Y001959D01*
X028640Y001709D01*
X029140Y001709D01*
X029390Y001959D01*
X029390Y003459D01*
X029140Y003709D01*
X028390Y003459D02*
X028140Y003709D01*
X027640Y003709D01*
X027390Y003459D01*
X027390Y001959D01*
X027140Y001709D01*
X026640Y001709D01*
X026390Y001959D01*
X026390Y003459D01*
X026640Y003709D01*
X027140Y003709D01*
X027390Y003459D01*
X026390Y003459D02*
X026140Y003709D01*
X025640Y003709D01*
X025390Y003459D01*
X025390Y001959D01*
X025140Y001709D01*
X024640Y001709D01*
X024390Y001959D01*
X024390Y003459D01*
X024640Y003709D01*
X025140Y003709D01*
X025390Y003459D01*
X024390Y003459D02*
X024140Y003709D01*
X023640Y003709D01*
X023390Y003459D01*
X023390Y001959D01*
X023140Y001709D01*
X022640Y001709D01*
X022390Y001959D01*
X022390Y003459D01*
X022640Y003709D01*
X023140Y003709D01*
X023390Y003459D01*
X022390Y003459D02*
X022140Y003709D01*
X021640Y003709D01*
X021390Y003459D01*
X021390Y001959D01*
X021140Y001709D01*
X020640Y001709D01*
X020390Y001959D01*
X020390Y003459D01*
X020640Y003709D01*
X021140Y003709D01*
X021390Y003459D01*
X020390Y003459D02*
X020140Y003709D01*
X019640Y003709D01*
X019390Y003459D01*
X019390Y001959D01*
X019140Y001709D01*
X018640Y001709D01*
X018390Y001959D01*
X018390Y003459D01*
X018640Y003709D01*
X019140Y003709D01*
X019390Y003459D01*
X018390Y003459D02*
X018140Y003709D01*
X017640Y003709D01*
X017390Y003459D01*
X017390Y001959D01*
X017140Y001709D01*
X016640Y001709D01*
X016390Y001959D01*
X016390Y003459D01*
X016640Y003709D01*
X017140Y003709D01*
X017390Y003459D01*
X016390Y003459D02*
X016140Y003709D01*
X015640Y003709D01*
X015390Y003459D01*
X015390Y001959D01*
X015640Y001709D01*
X016140Y001709D01*
X016390Y001959D01*
X017390Y001959D02*
X017640Y001709D01*
X018140Y001709D01*
X018390Y001959D01*
X019390Y001959D02*
X019640Y001709D01*
X020140Y001709D01*
X020390Y001959D01*
X021390Y001959D02*
X021640Y001709D01*
X022140Y001709D01*
X022390Y001959D01*
X023390Y001959D02*
X023640Y001709D01*
X024140Y001709D01*
X024390Y001959D01*
X025390Y001959D02*
X025640Y001709D01*
X026140Y001709D01*
X026390Y001959D01*
X027390Y001959D02*
X027640Y001709D01*
X028140Y001709D01*
X028390Y001959D01*
X015390Y001959D02*
X015140Y001709D01*
X014640Y001709D01*
X014390Y001959D01*
X014390Y003459D01*
X014640Y003709D01*
X015140Y003709D01*
X015390Y003459D01*
X014390Y003459D02*
X014140Y003709D01*
X013640Y003709D01*
X013390Y003459D01*
X013390Y001959D01*
X013640Y001709D01*
X014140Y001709D01*
X014390Y001959D01*
X013390Y001959D02*
X013140Y001709D01*
X012640Y001709D01*
X012390Y001959D01*
X012390Y003459D01*
X012640Y003709D01*
X013140Y003709D01*
X013390Y003459D01*
X012390Y003459D02*
X012140Y003709D01*
X011640Y003709D01*
X011390Y003459D01*
X011390Y001959D01*
X011640Y001709D01*
X012140Y001709D01*
X012390Y001959D01*
X011390Y001959D02*
X011140Y001709D01*
X010640Y001709D01*
X010390Y001959D01*
X010390Y003459D01*
X010640Y003709D01*
X011140Y003709D01*
X011390Y003459D01*
X010390Y003459D02*
X010140Y003709D01*
X009640Y003709D01*
X009390Y003459D01*
X009390Y001959D01*
X009640Y001709D01*
X010140Y001709D01*
X010390Y001959D01*
X009541Y010661D02*
X007238Y010661D01*
X007238Y014756D01*
X009541Y014756D01*
X009541Y010661D01*
X007441Y014372D02*
X007443Y014398D01*
X007449Y014424D01*
X007458Y014449D01*
X007471Y014472D01*
X007487Y014493D01*
X007506Y014511D01*
X007528Y014527D01*
X007551Y014539D01*
X007576Y014547D01*
X007602Y014552D01*
X007629Y014553D01*
X007655Y014550D01*
X007680Y014543D01*
X007705Y014533D01*
X007727Y014519D01*
X007748Y014502D01*
X007765Y014483D01*
X007780Y014461D01*
X007791Y014437D01*
X007799Y014411D01*
X007803Y014385D01*
X007803Y014359D01*
X007799Y014333D01*
X007791Y014307D01*
X007780Y014283D01*
X007765Y014261D01*
X007748Y014242D01*
X007727Y014225D01*
X007705Y014211D01*
X007680Y014201D01*
X007655Y014194D01*
X007629Y014191D01*
X007602Y014192D01*
X007576Y014197D01*
X007551Y014205D01*
X007528Y014217D01*
X007506Y014233D01*
X007487Y014251D01*
X007471Y014272D01*
X007458Y014295D01*
X007449Y014320D01*
X007443Y014346D01*
X007441Y014372D01*
X009640Y019309D02*
X010140Y019309D01*
X010390Y019559D01*
X010390Y021059D01*
X010640Y021309D01*
X011140Y021309D01*
X011390Y021059D01*
X011390Y019559D01*
X011640Y019309D01*
X012140Y019309D01*
X012390Y019559D01*
X012390Y021059D01*
X012640Y021309D01*
X013140Y021309D01*
X013390Y021059D01*
X013390Y019559D01*
X013640Y019309D01*
X014140Y019309D01*
X014390Y019559D01*
X014390Y021059D01*
X014640Y021309D01*
X015140Y021309D01*
X015390Y021059D01*
X015390Y019559D01*
X015640Y019309D01*
X016140Y019309D01*
X016390Y019559D01*
X016390Y021059D01*
X016640Y021309D01*
X017140Y021309D01*
X017390Y021059D01*
X017390Y019559D01*
X017140Y019309D01*
X016640Y019309D01*
X016390Y019559D01*
X017390Y019559D02*
X017640Y019309D01*
X018140Y019309D01*
X018390Y019559D01*
X018390Y021059D01*
X018640Y021309D01*
X019140Y021309D01*
X019390Y021059D01*
X019390Y019559D01*
X019140Y019309D01*
X018640Y019309D01*
X018390Y019559D01*
X019390Y019559D02*
X019640Y019309D01*
X020140Y019309D01*
X020390Y019559D01*
X020390Y021059D01*
X020640Y021309D01*
X021140Y021309D01*
X021390Y021059D01*
X021390Y019559D01*
X021140Y019309D01*
X020640Y019309D01*
X020390Y019559D01*
X021390Y019559D02*
X021640Y019309D01*
X022140Y019309D01*
X022390Y019559D01*
X022390Y021059D01*
X022640Y021309D01*
X023140Y021309D01*
X023390Y021059D01*
X023390Y019559D01*
X023140Y019309D01*
X022640Y019309D01*
X022390Y019559D01*
X023390Y019559D02*
X023640Y019309D01*
X024140Y019309D01*
X024390Y019559D01*
X024390Y021059D01*
X024640Y021309D01*
X025140Y021309D01*
X025390Y021059D01*
X025390Y019559D01*
X025140Y019309D01*
X024640Y019309D01*
X024390Y019559D01*
X025390Y019559D02*
X025640Y019309D01*
X026140Y019309D01*
X026390Y019559D01*
X026390Y021059D01*
X026640Y021309D01*
X027140Y021309D01*
X027390Y021059D01*
X027390Y019559D01*
X027140Y019309D01*
X026640Y019309D01*
X026390Y019559D01*
X027390Y019559D02*
X027640Y019309D01*
X028140Y019309D01*
X028390Y019559D01*
X028640Y019309D01*
X029140Y019309D01*
X029390Y019559D01*
X029390Y021059D01*
X029140Y021309D01*
X028640Y021309D01*
X028390Y021059D01*
X028390Y019559D01*
X028390Y021059D02*
X028140Y021309D01*
X027640Y021309D01*
X027390Y021059D01*
X026390Y021059D02*
X026140Y021309D01*
X025640Y021309D01*
X025390Y021059D01*
X024390Y021059D02*
X024140Y021309D01*
X023640Y021309D01*
X023390Y021059D01*
X022390Y021059D02*
X022140Y021309D01*
X021640Y021309D01*
X021390Y021059D01*
X020390Y021059D02*
X020140Y021309D01*
X019640Y021309D01*
X019390Y021059D01*
X018390Y021059D02*
X018140Y021309D01*
X017640Y021309D01*
X017390Y021059D01*
X016390Y021059D02*
X016140Y021309D01*
X015640Y021309D01*
X015390Y021059D01*
X014390Y021059D02*
X014140Y021309D01*
X013640Y021309D01*
X013390Y021059D01*
X012390Y021059D02*
X012140Y021309D01*
X011640Y021309D01*
X011390Y021059D01*
X010390Y021059D02*
X010140Y021309D01*
X009640Y021309D01*
X009390Y021059D01*
X009390Y019559D01*
X009640Y019309D01*
X010390Y019559D02*
X010640Y019309D01*
X011140Y019309D01*
X011390Y019559D01*
X012390Y019559D02*
X012640Y019309D01*
X013140Y019309D01*
X013390Y019559D01*
X014390Y019559D02*
X014640Y019309D01*
X015140Y019309D01*
X015390Y019559D01*
X034529Y020329D02*
X034529Y020499D01*
X034586Y020555D01*
X034813Y020555D01*
X034870Y020499D01*
X034870Y020329D01*
X034529Y020329D01*
X034529Y020697D02*
X034870Y020697D01*
X034870Y020924D01*
X034870Y021065D02*
X034870Y021235D01*
X034813Y021292D01*
X034756Y021292D01*
X034699Y021235D01*
X034699Y021065D01*
X034529Y021065D02*
X034870Y021065D01*
X034699Y021235D02*
X034643Y021292D01*
X034586Y021292D01*
X034529Y021235D01*
X034529Y021065D01*
X034529Y020924D02*
X034529Y020697D01*
X034699Y020697D02*
X034699Y020810D01*
X034813Y021433D02*
X034529Y021433D01*
X034529Y021660D02*
X034813Y021660D01*
X034870Y021604D01*
X034870Y021490D01*
X034813Y021433D01*
X034813Y021802D02*
X034870Y021858D01*
X034870Y021972D01*
X034813Y022029D01*
X034699Y022029D01*
X034699Y021915D01*
X034586Y021802D02*
X034813Y021802D01*
X034586Y021802D02*
X034529Y021858D01*
X034529Y021972D01*
X034586Y022029D01*
D13*
X034261Y022085D02*
X030718Y022085D01*
X030718Y014132D01*
X030757Y014132D02*
X034261Y014132D01*
X034261Y017242D01*
X033671Y017242D01*
X033671Y018975D01*
X034261Y018975D01*
X034261Y017242D01*
X033582Y016359D02*
X033582Y015859D01*
X033434Y013702D02*
X032883Y013702D01*
X032608Y013545D02*
X032371Y013309D01*
X032608Y013072D01*
X032608Y013545D01*
X032371Y013584D02*
X032371Y013309D01*
X032371Y013033D01*
X032096Y012915D02*
X031545Y012915D01*
X031545Y013702D01*
X032096Y013702D01*
X032883Y012915D02*
X033434Y012915D01*
X033434Y013702D01*
X033434Y011902D02*
X032883Y011902D01*
X032608Y011745D02*
X032371Y011509D01*
X032608Y011272D01*
X032608Y011745D01*
X032371Y011784D02*
X032371Y011509D01*
X032371Y011233D01*
X032096Y011115D02*
X031545Y011115D01*
X031545Y011902D01*
X032096Y011902D01*
X032883Y011115D02*
X033434Y011115D01*
X033434Y011902D01*
X035519Y010828D02*
X035519Y010618D01*
X035589Y010548D01*
X035659Y010618D01*
X035659Y010758D01*
X035730Y010828D01*
X035800Y010758D01*
X035800Y010548D01*
X035800Y010368D02*
X035519Y010368D01*
X035519Y010088D02*
X035730Y010088D01*
X035800Y010158D01*
X035800Y010368D01*
X035800Y009921D02*
X035730Y009851D01*
X035449Y009851D01*
X035519Y009781D02*
X035519Y009921D01*
X035589Y009601D02*
X035800Y009601D01*
X035800Y009390D01*
X035730Y009320D01*
X035659Y009390D01*
X035659Y009601D01*
X035589Y009601D02*
X035519Y009531D01*
X035519Y009390D01*
X035519Y009154D02*
X035519Y009013D01*
X035449Y009084D02*
X035730Y009084D01*
X035800Y009154D01*
X035730Y008833D02*
X035659Y008833D01*
X035589Y008763D01*
X035589Y008623D01*
X035519Y008553D01*
X035449Y008553D01*
X035379Y008623D01*
X035379Y008763D01*
X035449Y008833D01*
X035730Y008833D02*
X035800Y008763D01*
X035800Y008623D01*
X035730Y008553D01*
X033434Y008402D02*
X033434Y007615D01*
X032883Y007615D01*
X032608Y007772D02*
X032608Y008245D01*
X032371Y008009D01*
X032608Y007772D01*
X032371Y007733D02*
X032371Y008009D01*
X032371Y008284D01*
X032096Y008402D02*
X031545Y008402D01*
X031545Y007615D01*
X032096Y007615D01*
X032883Y008402D02*
X033434Y008402D01*
X033434Y009415D02*
X032883Y009415D01*
X032608Y009572D02*
X032608Y010045D01*
X032371Y009809D01*
X032608Y009572D01*
X032371Y009533D02*
X032371Y009809D01*
X032371Y010084D01*
X032096Y010202D02*
X031545Y010202D01*
X031545Y009415D01*
X032096Y009415D01*
X032883Y010202D02*
X033434Y010202D01*
X033434Y009415D01*
X034261Y005967D02*
X030718Y005967D01*
X030718Y005337D01*
X030718Y003723D02*
X030718Y002896D01*
X031505Y002109D02*
X031505Y000731D01*
X033474Y000731D01*
X033474Y002109D01*
X033474Y002108D02*
X033470Y002167D01*
X033461Y002226D01*
X033449Y002284D01*
X033434Y002341D01*
X033415Y002397D01*
X033392Y002452D01*
X033366Y002505D01*
X033337Y002557D01*
X033305Y002606D01*
X033269Y002654D01*
X033231Y002699D01*
X033190Y002742D01*
X033146Y002782D01*
X033100Y002819D01*
X033052Y002853D01*
X033001Y002884D01*
X032949Y002912D01*
X032895Y002936D01*
X032840Y002957D01*
X032783Y002975D01*
X032725Y002989D01*
X032667Y002999D01*
X032608Y003006D01*
X032549Y003009D01*
X032490Y003008D01*
X032489Y003008D02*
X032430Y003009D01*
X032371Y003006D01*
X032312Y002999D01*
X032254Y002989D01*
X032196Y002975D01*
X032139Y002957D01*
X032084Y002936D01*
X032030Y002912D01*
X031978Y002884D01*
X031927Y002853D01*
X031879Y002819D01*
X031833Y002782D01*
X031789Y002742D01*
X031748Y002699D01*
X031710Y002654D01*
X031674Y002606D01*
X031642Y002557D01*
X031613Y002505D01*
X031587Y002452D01*
X031564Y002397D01*
X031545Y002341D01*
X031530Y002284D01*
X031518Y002226D01*
X031509Y002167D01*
X031505Y002108D01*
X030718Y001321D02*
X030718Y000731D01*
X031505Y000731D01*
X033474Y000731D02*
X034261Y000731D01*
X034261Y001321D01*
X034261Y002896D02*
X034261Y003723D01*
X034261Y005297D02*
X034261Y005967D01*
X034261Y018975D02*
X034261Y022085D01*
X008540Y015909D02*
X008040Y015909D01*
X007262Y015765D02*
X007262Y015332D01*
X007105Y015174D01*
X006475Y015174D01*
X006317Y015332D01*
X006317Y015765D01*
X006317Y016552D02*
X006317Y017143D01*
X007262Y017143D01*
X007262Y016552D01*
X008040Y015309D02*
X008540Y015309D01*
X005089Y015175D02*
X005089Y015529D01*
X004105Y015805D02*
X003278Y015805D01*
X002996Y016915D02*
X002445Y016915D01*
X002445Y017702D01*
X002996Y017702D01*
X003271Y017584D02*
X003271Y017309D01*
X003508Y017545D01*
X003508Y017072D01*
X003271Y017309D01*
X003271Y017033D01*
X003783Y016915D02*
X004334Y016915D01*
X004334Y017702D01*
X003783Y017702D01*
X005089Y013442D02*
X005089Y013088D01*
X004105Y012812D02*
X003278Y012812D01*
X002996Y011802D02*
X002445Y011802D01*
X002445Y011015D01*
X002996Y011015D01*
X003271Y011133D02*
X003271Y011409D01*
X003508Y011645D01*
X003508Y011172D01*
X003271Y011409D01*
X003271Y011684D01*
X003783Y011802D02*
X004334Y011802D01*
X004334Y011015D01*
X003783Y011015D01*
X003526Y009809D02*
X008290Y009809D01*
X008290Y009533D01*
X008290Y008470D02*
X008290Y007289D01*
X008290Y006226D02*
X008290Y004297D01*
X003093Y004297D01*
X002266Y004887D02*
X002266Y005202D01*
X002265Y005234D01*
X002269Y005265D01*
X002276Y005296D01*
X002287Y005326D01*
X002301Y005354D01*
X002319Y005380D01*
X002340Y005404D01*
X002364Y005425D01*
X002390Y005443D01*
X002418Y005457D01*
X002448Y005468D01*
X002479Y005475D01*
X002510Y005479D01*
X002542Y005478D01*
X002542Y005477D02*
X002580Y005480D01*
X002618Y005486D01*
X002655Y005496D01*
X002691Y005510D01*
X002726Y005526D01*
X002758Y005546D01*
X002789Y005569D01*
X002818Y005595D01*
X002844Y005624D01*
X002867Y005655D01*
X002887Y005687D01*
X002903Y005722D01*
X002917Y005758D01*
X002927Y005795D01*
X002933Y005833D01*
X002936Y005871D01*
X002935Y005871D02*
X002935Y009179D01*
D14*
X003613Y013442D02*
X003615Y013468D01*
X003621Y013494D01*
X003631Y013519D01*
X003644Y013542D01*
X003660Y013562D01*
X003680Y013580D01*
X003702Y013595D01*
X003725Y013607D01*
X003751Y013615D01*
X003777Y013619D01*
X003803Y013619D01*
X003829Y013615D01*
X003855Y013607D01*
X003879Y013595D01*
X003900Y013580D01*
X003920Y013562D01*
X003936Y013542D01*
X003949Y013519D01*
X003959Y013494D01*
X003965Y013468D01*
X003967Y013442D01*
X003965Y013416D01*
X003959Y013390D01*
X003949Y013365D01*
X003936Y013342D01*
X003920Y013322D01*
X003900Y013304D01*
X003878Y013289D01*
X003855Y013277D01*
X003829Y013269D01*
X003803Y013265D01*
X003777Y013265D01*
X003751Y013269D01*
X003725Y013277D01*
X003701Y013289D01*
X003680Y013304D01*
X003660Y013322D01*
X003644Y013342D01*
X003631Y013365D01*
X003621Y013390D01*
X003615Y013416D01*
X003613Y013442D01*
X003613Y015175D02*
X003615Y015201D01*
X003621Y015227D01*
X003631Y015252D01*
X003644Y015275D01*
X003660Y015295D01*
X003680Y015313D01*
X003702Y015328D01*
X003725Y015340D01*
X003751Y015348D01*
X003777Y015352D01*
X003803Y015352D01*
X003829Y015348D01*
X003855Y015340D01*
X003879Y015328D01*
X003900Y015313D01*
X003920Y015295D01*
X003936Y015275D01*
X003949Y015252D01*
X003959Y015227D01*
X003965Y015201D01*
X003967Y015175D01*
X003965Y015149D01*
X003959Y015123D01*
X003949Y015098D01*
X003936Y015075D01*
X003920Y015055D01*
X003900Y015037D01*
X003878Y015022D01*
X003855Y015010D01*
X003829Y015002D01*
X003803Y014998D01*
X003777Y014998D01*
X003751Y015002D01*
X003725Y015010D01*
X003701Y015022D01*
X003680Y015037D01*
X003660Y015055D01*
X003644Y015075D01*
X003631Y015098D01*
X003621Y015123D01*
X003615Y015149D01*
X003613Y015175D01*
X001889Y019556D02*
X001892Y019697D01*
X001902Y019837D01*
X001919Y019976D01*
X001942Y020115D01*
X001972Y020252D01*
X002009Y020388D01*
X002051Y020522D01*
X002101Y020654D01*
X002156Y020783D01*
X002217Y020909D01*
X002285Y021033D01*
X002358Y021153D01*
X002437Y021269D01*
X002521Y021381D01*
X002610Y021490D01*
X002705Y021594D01*
X002804Y021693D01*
X002908Y021788D01*
X003017Y021877D01*
X003129Y021961D01*
X003245Y022040D01*
X003365Y022113D01*
X003489Y022181D01*
X003615Y022242D01*
X003744Y022297D01*
X003876Y022347D01*
X004010Y022389D01*
X004146Y022426D01*
X004283Y022456D01*
X004422Y022479D01*
X004561Y022496D01*
X004701Y022506D01*
X004842Y022509D01*
X034937Y022509D01*
X035940Y020159D02*
X035942Y020209D01*
X035948Y020259D01*
X035958Y020309D01*
X035971Y020357D01*
X035988Y020405D01*
X036009Y020451D01*
X036033Y020495D01*
X036061Y020537D01*
X036092Y020577D01*
X036126Y020614D01*
X036163Y020649D01*
X036202Y020680D01*
X036243Y020709D01*
X036287Y020734D01*
X036333Y020756D01*
X036380Y020774D01*
X036428Y020788D01*
X036477Y020799D01*
X036527Y020806D01*
X036577Y020809D01*
X036628Y020808D01*
X036678Y020803D01*
X036728Y020794D01*
X036776Y020782D01*
X036824Y020765D01*
X036870Y020745D01*
X036915Y020722D01*
X036958Y020695D01*
X036998Y020665D01*
X037036Y020632D01*
X037071Y020596D01*
X037104Y020557D01*
X037133Y020516D01*
X037159Y020473D01*
X037182Y020428D01*
X037201Y020381D01*
X037216Y020333D01*
X037228Y020284D01*
X037236Y020234D01*
X037240Y020184D01*
X037240Y020134D01*
X037236Y020084D01*
X037228Y020034D01*
X037216Y019985D01*
X037201Y019937D01*
X037182Y019890D01*
X037159Y019845D01*
X037133Y019802D01*
X037104Y019761D01*
X037071Y019722D01*
X037036Y019686D01*
X036998Y019653D01*
X036958Y019623D01*
X036915Y019596D01*
X036870Y019573D01*
X036824Y019553D01*
X036776Y019536D01*
X036728Y019524D01*
X036678Y019515D01*
X036628Y019510D01*
X036577Y019509D01*
X036527Y019512D01*
X036477Y019519D01*
X036428Y019530D01*
X036380Y019544D01*
X036333Y019562D01*
X036287Y019584D01*
X036243Y019609D01*
X036202Y019638D01*
X036163Y019669D01*
X036126Y019704D01*
X036092Y019741D01*
X036061Y019781D01*
X036033Y019823D01*
X036009Y019867D01*
X035988Y019913D01*
X035971Y019961D01*
X035958Y020009D01*
X035948Y020059D01*
X035942Y020109D01*
X035940Y020159D01*
X037890Y019556D02*
X037887Y019697D01*
X037877Y019837D01*
X037860Y019976D01*
X037837Y020115D01*
X037807Y020252D01*
X037770Y020388D01*
X037728Y020522D01*
X037678Y020654D01*
X037623Y020783D01*
X037562Y020909D01*
X037494Y021032D01*
X037421Y021153D01*
X037342Y021269D01*
X037258Y021381D01*
X037169Y021490D01*
X037074Y021594D01*
X036975Y021693D01*
X036871Y021788D01*
X036762Y021877D01*
X036650Y021961D01*
X036534Y022040D01*
X036413Y022113D01*
X036290Y022181D01*
X036164Y022242D01*
X036035Y022297D01*
X035903Y022347D01*
X035769Y022389D01*
X035633Y022426D01*
X035496Y022456D01*
X035357Y022479D01*
X035218Y022496D01*
X035078Y022506D01*
X034937Y022509D01*
X037890Y019556D02*
X037890Y003461D01*
X035940Y002859D02*
X035942Y002909D01*
X035948Y002959D01*
X035958Y003009D01*
X035971Y003057D01*
X035988Y003105D01*
X036009Y003151D01*
X036033Y003195D01*
X036061Y003237D01*
X036092Y003277D01*
X036126Y003314D01*
X036163Y003349D01*
X036202Y003380D01*
X036243Y003409D01*
X036287Y003434D01*
X036333Y003456D01*
X036380Y003474D01*
X036428Y003488D01*
X036477Y003499D01*
X036527Y003506D01*
X036577Y003509D01*
X036628Y003508D01*
X036678Y003503D01*
X036728Y003494D01*
X036776Y003482D01*
X036824Y003465D01*
X036870Y003445D01*
X036915Y003422D01*
X036958Y003395D01*
X036998Y003365D01*
X037036Y003332D01*
X037071Y003296D01*
X037104Y003257D01*
X037133Y003216D01*
X037159Y003173D01*
X037182Y003128D01*
X037201Y003081D01*
X037216Y003033D01*
X037228Y002984D01*
X037236Y002934D01*
X037240Y002884D01*
X037240Y002834D01*
X037236Y002784D01*
X037228Y002734D01*
X037216Y002685D01*
X037201Y002637D01*
X037182Y002590D01*
X037159Y002545D01*
X037133Y002502D01*
X037104Y002461D01*
X037071Y002422D01*
X037036Y002386D01*
X036998Y002353D01*
X036958Y002323D01*
X036915Y002296D01*
X036870Y002273D01*
X036824Y002253D01*
X036776Y002236D01*
X036728Y002224D01*
X036678Y002215D01*
X036628Y002210D01*
X036577Y002209D01*
X036527Y002212D01*
X036477Y002219D01*
X036428Y002230D01*
X036380Y002244D01*
X036333Y002262D01*
X036287Y002284D01*
X036243Y002309D01*
X036202Y002338D01*
X036163Y002369D01*
X036126Y002404D01*
X036092Y002441D01*
X036061Y002481D01*
X036033Y002523D01*
X036009Y002567D01*
X035988Y002613D01*
X035971Y002661D01*
X035958Y002709D01*
X035948Y002759D01*
X035942Y002809D01*
X035940Y002859D01*
X037890Y003461D02*
X037887Y003320D01*
X037877Y003180D01*
X037860Y003041D01*
X037837Y002902D01*
X037807Y002765D01*
X037770Y002629D01*
X037728Y002495D01*
X037678Y002363D01*
X037623Y002234D01*
X037562Y002108D01*
X037494Y001985D01*
X037421Y001864D01*
X037342Y001748D01*
X037258Y001636D01*
X037169Y001527D01*
X037074Y001423D01*
X036975Y001324D01*
X036871Y001229D01*
X036762Y001140D01*
X036650Y001056D01*
X036534Y000977D01*
X036414Y000904D01*
X036290Y000836D01*
X036164Y000775D01*
X036035Y000720D01*
X035903Y000670D01*
X035769Y000628D01*
X035633Y000591D01*
X035496Y000561D01*
X035357Y000538D01*
X035218Y000521D01*
X035078Y000511D01*
X034937Y000508D01*
X034937Y000509D02*
X004842Y000509D01*
X002540Y002859D02*
X002542Y002909D01*
X002548Y002959D01*
X002558Y003009D01*
X002571Y003057D01*
X002588Y003105D01*
X002609Y003151D01*
X002633Y003195D01*
X002661Y003237D01*
X002692Y003277D01*
X002726Y003314D01*
X002763Y003349D01*
X002802Y003380D01*
X002843Y003409D01*
X002887Y003434D01*
X002933Y003456D01*
X002980Y003474D01*
X003028Y003488D01*
X003077Y003499D01*
X003127Y003506D01*
X003177Y003509D01*
X003228Y003508D01*
X003278Y003503D01*
X003328Y003494D01*
X003376Y003482D01*
X003424Y003465D01*
X003470Y003445D01*
X003515Y003422D01*
X003558Y003395D01*
X003598Y003365D01*
X003636Y003332D01*
X003671Y003296D01*
X003704Y003257D01*
X003733Y003216D01*
X003759Y003173D01*
X003782Y003128D01*
X003801Y003081D01*
X003816Y003033D01*
X003828Y002984D01*
X003836Y002934D01*
X003840Y002884D01*
X003840Y002834D01*
X003836Y002784D01*
X003828Y002734D01*
X003816Y002685D01*
X003801Y002637D01*
X003782Y002590D01*
X003759Y002545D01*
X003733Y002502D01*
X003704Y002461D01*
X003671Y002422D01*
X003636Y002386D01*
X003598Y002353D01*
X003558Y002323D01*
X003515Y002296D01*
X003470Y002273D01*
X003424Y002253D01*
X003376Y002236D01*
X003328Y002224D01*
X003278Y002215D01*
X003228Y002210D01*
X003177Y002209D01*
X003127Y002212D01*
X003077Y002219D01*
X003028Y002230D01*
X002980Y002244D01*
X002933Y002262D01*
X002887Y002284D01*
X002843Y002309D01*
X002802Y002338D01*
X002763Y002369D01*
X002726Y002404D01*
X002692Y002441D01*
X002661Y002481D01*
X002633Y002523D01*
X002609Y002567D01*
X002588Y002613D01*
X002571Y002661D01*
X002558Y002709D01*
X002548Y002759D01*
X002542Y002809D01*
X002540Y002859D01*
X001890Y003461D02*
X001890Y019556D01*
X002540Y020159D02*
X002542Y020209D01*
X002548Y020259D01*
X002558Y020309D01*
X002571Y020357D01*
X002588Y020405D01*
X002609Y020451D01*
X002633Y020495D01*
X002661Y020537D01*
X002692Y020577D01*
X002726Y020614D01*
X002763Y020649D01*
X002802Y020680D01*
X002843Y020709D01*
X002887Y020734D01*
X002933Y020756D01*
X002980Y020774D01*
X003028Y020788D01*
X003077Y020799D01*
X003127Y020806D01*
X003177Y020809D01*
X003228Y020808D01*
X003278Y020803D01*
X003328Y020794D01*
X003376Y020782D01*
X003424Y020765D01*
X003470Y020745D01*
X003515Y020722D01*
X003558Y020695D01*
X003598Y020665D01*
X003636Y020632D01*
X003671Y020596D01*
X003704Y020557D01*
X003733Y020516D01*
X003759Y020473D01*
X003782Y020428D01*
X003801Y020381D01*
X003816Y020333D01*
X003828Y020284D01*
X003836Y020234D01*
X003840Y020184D01*
X003840Y020134D01*
X003836Y020084D01*
X003828Y020034D01*
X003816Y019985D01*
X003801Y019937D01*
X003782Y019890D01*
X003759Y019845D01*
X003733Y019802D01*
X003704Y019761D01*
X003671Y019722D01*
X003636Y019686D01*
X003598Y019653D01*
X003558Y019623D01*
X003515Y019596D01*
X003470Y019573D01*
X003424Y019553D01*
X003376Y019536D01*
X003328Y019524D01*
X003278Y019515D01*
X003228Y019510D01*
X003177Y019509D01*
X003127Y019512D01*
X003077Y019519D01*
X003028Y019530D01*
X002980Y019544D01*
X002933Y019562D01*
X002887Y019584D01*
X002843Y019609D01*
X002802Y019638D01*
X002763Y019669D01*
X002726Y019704D01*
X002692Y019741D01*
X002661Y019781D01*
X002633Y019823D01*
X002609Y019867D01*
X002588Y019913D01*
X002571Y019961D01*
X002558Y020009D01*
X002548Y020059D01*
X002542Y020109D01*
X002540Y020159D01*
X001889Y003461D02*
X001892Y003320D01*
X001902Y003180D01*
X001919Y003041D01*
X001942Y002902D01*
X001972Y002765D01*
X002009Y002629D01*
X002051Y002495D01*
X002101Y002363D01*
X002156Y002234D01*
X002217Y002108D01*
X002285Y001985D01*
X002358Y001864D01*
X002437Y001748D01*
X002521Y001636D01*
X002610Y001527D01*
X002705Y001423D01*
X002804Y001324D01*
X002908Y001229D01*
X003017Y001140D01*
X003129Y001056D01*
X003245Y000977D01*
X003365Y000904D01*
X003489Y000836D01*
X003615Y000775D01*
X003744Y000720D01*
X003876Y000670D01*
X004010Y000628D01*
X004146Y000591D01*
X004283Y000561D01*
X004422Y000538D01*
X004561Y000521D01*
X004701Y000511D01*
X004842Y000508D01*
X032090Y002109D02*
X032092Y002149D01*
X032098Y002188D01*
X032108Y002227D01*
X032121Y002264D01*
X032139Y002300D01*
X032160Y002334D01*
X032184Y002366D01*
X032211Y002395D01*
X032241Y002422D01*
X032273Y002445D01*
X032308Y002465D01*
X032344Y002481D01*
X032382Y002494D01*
X032421Y002503D01*
X032460Y002508D01*
X032500Y002509D01*
X032540Y002506D01*
X032579Y002499D01*
X032617Y002488D01*
X032655Y002474D01*
X032690Y002455D01*
X032723Y002434D01*
X032755Y002409D01*
X032783Y002381D01*
X032809Y002351D01*
X032831Y002318D01*
X032850Y002283D01*
X032866Y002246D01*
X032878Y002208D01*
X032886Y002169D01*
X032890Y002129D01*
X032890Y002089D01*
X032886Y002049D01*
X032878Y002010D01*
X032866Y001972D01*
X032850Y001935D01*
X032831Y001900D01*
X032809Y001867D01*
X032783Y001837D01*
X032755Y001809D01*
X032723Y001784D01*
X032690Y001763D01*
X032655Y001744D01*
X032617Y001730D01*
X032579Y001719D01*
X032540Y001712D01*
X032500Y001709D01*
X032460Y001710D01*
X032421Y001715D01*
X032382Y001724D01*
X032344Y001737D01*
X032308Y001753D01*
X032273Y001773D01*
X032241Y001796D01*
X032211Y001823D01*
X032184Y001852D01*
X032160Y001884D01*
X032139Y001918D01*
X032121Y001954D01*
X032108Y001991D01*
X032098Y002030D01*
X032092Y002069D01*
X032090Y002109D01*
X032090Y003909D02*
X032092Y003949D01*
X032098Y003988D01*
X032108Y004027D01*
X032121Y004064D01*
X032139Y004100D01*
X032160Y004134D01*
X032184Y004166D01*
X032211Y004195D01*
X032241Y004222D01*
X032273Y004245D01*
X032308Y004265D01*
X032344Y004281D01*
X032382Y004294D01*
X032421Y004303D01*
X032460Y004308D01*
X032500Y004309D01*
X032540Y004306D01*
X032579Y004299D01*
X032617Y004288D01*
X032655Y004274D01*
X032690Y004255D01*
X032723Y004234D01*
X032755Y004209D01*
X032783Y004181D01*
X032809Y004151D01*
X032831Y004118D01*
X032850Y004083D01*
X032866Y004046D01*
X032878Y004008D01*
X032886Y003969D01*
X032890Y003929D01*
X032890Y003889D01*
X032886Y003849D01*
X032878Y003810D01*
X032866Y003772D01*
X032850Y003735D01*
X032831Y003700D01*
X032809Y003667D01*
X032783Y003637D01*
X032755Y003609D01*
X032723Y003584D01*
X032690Y003563D01*
X032655Y003544D01*
X032617Y003530D01*
X032579Y003519D01*
X032540Y003512D01*
X032500Y003509D01*
X032460Y003510D01*
X032421Y003515D01*
X032382Y003524D01*
X032344Y003537D01*
X032308Y003553D01*
X032273Y003573D01*
X032241Y003596D01*
X032211Y003623D01*
X032184Y003652D01*
X032160Y003684D01*
X032139Y003718D01*
X032121Y003754D01*
X032108Y003791D01*
X032098Y003830D01*
X032092Y003869D01*
X032090Y003909D01*
D15*
X030790Y007009D02*
X035190Y007009D01*
X035190Y008909D01*
X030790Y008909D01*
X030790Y007009D01*
X030790Y008909D02*
X030790Y010709D01*
X035190Y010709D01*
X035190Y008909D01*
X035190Y010709D02*
X035190Y012409D01*
X030790Y012409D01*
X030790Y010709D01*
X035190Y012409D02*
X035990Y012409D01*
X035990Y007009D01*
X035190Y007009D01*
X022146Y008851D02*
X022047Y008753D01*
X016732Y008753D01*
X016634Y008851D01*
X016634Y013969D01*
X016929Y014264D01*
X022047Y014264D01*
X022146Y014166D01*
X022146Y008851D01*
X016929Y013871D02*
X016931Y013890D01*
X016936Y013909D01*
X016946Y013925D01*
X016958Y013940D01*
X016973Y013952D01*
X016989Y013962D01*
X017008Y013967D01*
X017027Y013969D01*
X017046Y013967D01*
X017065Y013962D01*
X017081Y013952D01*
X017096Y013940D01*
X017108Y013925D01*
X017118Y013909D01*
X017123Y013890D01*
X017125Y013871D01*
X017123Y013852D01*
X017118Y013833D01*
X017108Y013817D01*
X017096Y013802D01*
X017081Y013790D01*
X017065Y013780D01*
X017046Y013775D01*
X017027Y013773D01*
X017008Y013775D01*
X016989Y013780D01*
X016973Y013790D01*
X016958Y013802D01*
X016946Y013817D01*
X016936Y013833D01*
X016931Y013852D01*
X016929Y013871D01*
D16*
X017877Y013303D02*
X017877Y013178D01*
X017902Y013153D01*
X017952Y013153D01*
X017977Y013178D01*
X017977Y013303D01*
X018024Y013228D02*
X018124Y013228D01*
X018099Y013153D02*
X018099Y013303D01*
X018024Y013228D01*
X018172Y013128D02*
X018272Y013128D01*
X018319Y013153D02*
X018419Y013303D01*
X018466Y013303D02*
X018516Y013253D01*
X018566Y013303D01*
X018566Y013153D01*
X018614Y013153D02*
X018714Y013153D01*
X018761Y013178D02*
X018786Y013153D01*
X018836Y013153D01*
X018861Y013178D01*
X018861Y013228D01*
X018811Y013228D01*
X018761Y013278D02*
X018761Y013178D01*
X018761Y013278D02*
X018786Y013303D01*
X018836Y013303D01*
X018861Y013278D01*
X018908Y013253D02*
X018958Y013303D01*
X019008Y013253D01*
X019008Y013153D01*
X019008Y013228D02*
X018908Y013228D01*
X018908Y013253D02*
X018908Y013153D01*
X018714Y013303D02*
X018614Y013303D01*
X018614Y013153D01*
X018614Y013228D02*
X018664Y013228D01*
X018466Y013153D02*
X018466Y013303D01*
X018319Y013303D02*
X018419Y013153D01*
X014125Y014229D02*
X014125Y014279D01*
X014100Y014304D01*
X014125Y014351D02*
X014125Y014451D01*
X014125Y014498D02*
X014100Y014498D01*
X014000Y014598D01*
X013974Y014598D01*
X013974Y014498D01*
X013974Y014401D02*
X014125Y014401D01*
X014025Y014351D02*
X013974Y014401D01*
X014000Y014304D02*
X013974Y014279D01*
X013974Y014229D01*
X014000Y014204D01*
X014100Y014204D01*
X014125Y014229D01*
X013205Y014719D02*
X013205Y014769D01*
X013180Y014794D01*
X013205Y014841D02*
X013205Y014941D01*
X013205Y014891D02*
X013054Y014891D01*
X013105Y014841D01*
X013080Y014794D02*
X013054Y014769D01*
X013054Y014719D01*
X013080Y014694D01*
X013180Y014694D01*
X013205Y014719D01*
X013180Y014988D02*
X013205Y015013D01*
X013205Y015063D01*
X013180Y015088D01*
X013080Y015088D01*
X013054Y015063D01*
X013054Y015013D01*
X013080Y014988D01*
X013105Y014988D01*
X013130Y015013D01*
X013130Y015088D01*
X011414Y012964D02*
X011364Y012964D01*
X011339Y012939D01*
X011339Y012839D01*
X011439Y012939D01*
X011439Y012839D01*
X011414Y012814D01*
X011364Y012814D01*
X011339Y012839D01*
X011292Y012814D02*
X011192Y012814D01*
X011242Y012814D02*
X011242Y012964D01*
X011192Y012914D01*
X011145Y012939D02*
X011120Y012964D01*
X011070Y012964D01*
X011045Y012939D01*
X011045Y012839D01*
X011070Y012814D01*
X011120Y012814D01*
X011145Y012839D01*
X011414Y012964D02*
X011439Y012939D01*
X010660Y011411D02*
X010560Y011411D01*
X010534Y011386D01*
X010534Y011336D01*
X010560Y011311D01*
X010585Y011311D01*
X010610Y011336D01*
X010610Y011411D01*
X010660Y011411D02*
X010685Y011386D01*
X010685Y011336D01*
X010660Y011311D01*
X010660Y011264D02*
X010685Y011239D01*
X010685Y011189D01*
X010660Y011164D01*
X010560Y011164D01*
X010534Y011189D01*
X010534Y011239D01*
X010560Y011264D01*
X012730Y010979D02*
X012730Y010879D01*
X012755Y010854D01*
X012805Y010854D01*
X012830Y010879D01*
X012877Y010879D02*
X012877Y010904D01*
X012902Y010929D01*
X012952Y010929D01*
X012977Y010904D01*
X012977Y010879D01*
X012952Y010854D01*
X012902Y010854D01*
X012877Y010879D01*
X012902Y010929D02*
X012877Y010954D01*
X012877Y010979D01*
X012902Y011004D01*
X012952Y011004D01*
X012977Y010979D01*
X012977Y010954D01*
X012952Y010929D01*
X012830Y010979D02*
X012805Y011004D01*
X012755Y011004D01*
X012730Y010979D01*
X009045Y013207D02*
X009045Y013257D01*
X009020Y013282D01*
X008894Y013282D01*
X008945Y013330D02*
X008894Y013380D01*
X009045Y013380D01*
X009045Y013330D02*
X009045Y013430D01*
X009070Y013477D02*
X009070Y013577D01*
X009020Y013624D02*
X009045Y013649D01*
X009045Y013699D01*
X009020Y013724D01*
X009045Y013772D02*
X008894Y013772D01*
X009045Y013872D01*
X008894Y013872D01*
X008920Y013919D02*
X008945Y013919D01*
X008970Y013944D01*
X008970Y013994D01*
X008995Y014019D01*
X009020Y014019D01*
X009045Y013994D01*
X009045Y013944D01*
X009020Y013919D01*
X008920Y013919D02*
X008894Y013944D01*
X008894Y013994D01*
X008920Y014019D01*
X008894Y014066D02*
X009045Y014066D01*
X009045Y014166D01*
X008920Y013724D02*
X008894Y013699D01*
X008894Y013649D01*
X008920Y013624D01*
X009020Y013624D01*
X009045Y013207D02*
X009020Y013182D01*
X008894Y013182D01*
X005597Y010904D02*
X005497Y010904D01*
X005497Y010829D01*
X005547Y010854D01*
X005572Y010854D01*
X005597Y010829D01*
X005597Y010779D01*
X005572Y010754D01*
X005522Y010754D01*
X005497Y010779D01*
X005462Y010749D02*
X005437Y010774D01*
X005387Y010774D01*
X005362Y010749D01*
X005350Y010754D02*
X005350Y010904D01*
X005425Y010904D01*
X005450Y010879D01*
X005450Y010829D01*
X005425Y010804D01*
X005350Y010804D01*
X005400Y010804D02*
X005450Y010754D01*
X005462Y010749D02*
X005462Y010724D01*
X005362Y010624D01*
X005462Y010624D01*
X005315Y010624D02*
X005265Y010674D01*
X005290Y010674D02*
X005215Y010674D01*
X005215Y010624D02*
X005215Y010774D01*
X005290Y010774D01*
X005315Y010749D01*
X005315Y010699D01*
X005290Y010674D01*
X003697Y010729D02*
X003697Y010754D01*
X003672Y010779D01*
X003597Y010779D01*
X003597Y010729D01*
X003622Y010704D01*
X003672Y010704D01*
X003697Y010729D01*
X003647Y010829D02*
X003597Y010779D01*
X003550Y010829D02*
X003525Y010854D01*
X003450Y010854D01*
X003450Y010704D01*
X003525Y010704D01*
X003550Y010729D01*
X003550Y010829D01*
X003647Y010829D02*
X003697Y010854D01*
X003403Y010854D02*
X003303Y010854D01*
X003303Y010704D01*
X003403Y010704D01*
X003353Y010779D02*
X003303Y010779D01*
X003255Y010704D02*
X003155Y010704D01*
X003155Y010854D01*
X003179Y014814D02*
X003279Y014814D01*
X003179Y014814D02*
X003179Y014964D01*
X003131Y014939D02*
X003106Y014964D01*
X003056Y014964D01*
X003031Y014939D01*
X003031Y014914D01*
X003056Y014889D01*
X003106Y014889D01*
X003131Y014864D01*
X003131Y014839D01*
X003106Y014814D01*
X003056Y014814D01*
X003031Y014839D01*
X002984Y014814D02*
X002984Y014964D01*
X002884Y014964D02*
X002984Y014814D01*
X002884Y014814D02*
X002884Y014964D01*
X002837Y014939D02*
X002812Y014964D01*
X002762Y014964D01*
X002737Y014939D01*
X002737Y014839D01*
X002762Y014814D01*
X002812Y014814D01*
X002837Y014839D01*
X002689Y014788D02*
X002589Y014788D01*
X002542Y014814D02*
X002442Y014814D01*
X002542Y014914D01*
X002542Y014939D01*
X002517Y014964D01*
X002467Y014964D01*
X002442Y014939D01*
X002395Y014964D02*
X002295Y014814D01*
X002395Y014814D02*
X002295Y014964D01*
X003155Y016604D02*
X003255Y016604D01*
X003303Y016604D02*
X003403Y016604D01*
X003450Y016604D02*
X003525Y016604D01*
X003550Y016629D01*
X003550Y016729D01*
X003525Y016754D01*
X003450Y016754D01*
X003450Y016604D01*
X003353Y016679D02*
X003303Y016679D01*
X003303Y016754D02*
X003303Y016604D01*
X003155Y016604D02*
X003155Y016754D01*
X003303Y016754D02*
X003403Y016754D01*
X003597Y016754D02*
X003597Y016679D01*
X003647Y016704D01*
X003672Y016704D01*
X003697Y016679D01*
X003697Y016629D01*
X003672Y016604D01*
X003622Y016604D01*
X003597Y016629D01*
X003597Y016754D02*
X003697Y016754D01*
X005350Y017054D02*
X005350Y017204D01*
X005425Y017204D01*
X005450Y017179D01*
X005450Y017129D01*
X005425Y017104D01*
X005350Y017104D01*
X005400Y017104D02*
X005450Y017054D01*
X005497Y017129D02*
X005597Y017129D01*
X005572Y017204D02*
X005497Y017129D01*
X005572Y017054D02*
X005572Y017204D01*
X007338Y017091D02*
X007363Y017116D01*
X007388Y017116D01*
X007413Y017091D01*
X007413Y017041D01*
X007388Y017016D01*
X007363Y017016D01*
X007338Y017041D01*
X007338Y017091D01*
X007413Y017091D02*
X007438Y017116D01*
X007463Y017116D01*
X007488Y017091D01*
X007488Y017041D01*
X007463Y017016D01*
X007438Y017016D01*
X007413Y017041D01*
X007488Y016969D02*
X007488Y016869D01*
X007488Y016919D02*
X007338Y016919D01*
X007388Y016869D01*
X007363Y016822D02*
X007338Y016797D01*
X007338Y016747D01*
X007363Y016722D01*
X007463Y016722D01*
X007488Y016747D01*
X007488Y016797D01*
X007463Y016822D01*
X007695Y016264D02*
X007795Y016264D01*
X007842Y016214D02*
X007892Y016264D01*
X007892Y016114D01*
X007842Y016114D02*
X007942Y016114D01*
X007989Y016088D02*
X008089Y016088D01*
X008137Y016139D02*
X008162Y016114D01*
X008212Y016114D01*
X008237Y016139D01*
X008284Y016114D02*
X008284Y016264D01*
X008384Y016114D01*
X008384Y016264D01*
X008431Y016239D02*
X008431Y016214D01*
X008456Y016189D01*
X008506Y016189D01*
X008531Y016164D01*
X008531Y016139D01*
X008506Y016114D01*
X008456Y016114D01*
X008431Y016139D01*
X008431Y016239D02*
X008456Y016264D01*
X008506Y016264D01*
X008531Y016239D01*
X008579Y016264D02*
X008579Y016114D01*
X008679Y016114D01*
X008237Y016239D02*
X008212Y016264D01*
X008162Y016264D01*
X008137Y016239D01*
X008137Y016139D01*
X007745Y016189D02*
X007695Y016189D01*
X007695Y016114D02*
X007695Y016264D01*
X016794Y016919D02*
X016820Y016894D01*
X016920Y016894D01*
X016945Y016919D01*
X016945Y016969D01*
X016920Y016994D01*
X016945Y017041D02*
X016845Y017141D01*
X016820Y017141D01*
X016794Y017116D01*
X016794Y017066D01*
X016820Y017041D01*
X016820Y016994D02*
X016794Y016969D01*
X016794Y016919D01*
X016945Y017041D02*
X016945Y017141D01*
X016920Y017188D02*
X016820Y017288D01*
X016920Y017288D01*
X016945Y017263D01*
X016945Y017213D01*
X016920Y017188D01*
X016820Y017188D01*
X016794Y017213D01*
X016794Y017263D01*
X016820Y017288D01*
X017604Y016898D02*
X017630Y016848D01*
X017680Y016798D01*
X017680Y016873D01*
X017705Y016898D01*
X017730Y016898D01*
X017755Y016873D01*
X017755Y016823D01*
X017730Y016798D01*
X017680Y016798D01*
X017755Y016751D02*
X017755Y016651D01*
X017755Y016701D02*
X017604Y016701D01*
X017655Y016651D01*
X017630Y016604D02*
X017604Y016579D01*
X017604Y016529D01*
X017630Y016504D01*
X017730Y016504D01*
X017755Y016529D01*
X017755Y016579D01*
X017730Y016604D01*
X020134Y016589D02*
X020160Y016564D01*
X020260Y016564D01*
X020285Y016589D01*
X020285Y016639D01*
X020260Y016664D01*
X020285Y016711D02*
X020285Y016811D01*
X020285Y016761D02*
X020134Y016761D01*
X020185Y016711D01*
X020160Y016664D02*
X020134Y016639D01*
X020134Y016589D01*
X023434Y015386D02*
X023434Y015336D01*
X023460Y015311D01*
X023460Y015264D02*
X023434Y015239D01*
X023434Y015189D01*
X023460Y015164D01*
X023560Y015164D01*
X023585Y015189D01*
X023585Y015239D01*
X023560Y015264D01*
X023585Y015311D02*
X023485Y015411D01*
X023460Y015411D01*
X023434Y015386D01*
X023585Y015411D02*
X023585Y015311D01*
X026270Y012164D02*
X026245Y012139D01*
X026245Y012039D01*
X026270Y012014D01*
X026320Y012014D01*
X026345Y012039D01*
X026392Y012039D02*
X026417Y012014D01*
X026467Y012014D01*
X026492Y012039D01*
X026492Y012064D01*
X026467Y012089D01*
X026442Y012089D01*
X026467Y012089D02*
X026492Y012114D01*
X026492Y012139D01*
X026467Y012164D01*
X026417Y012164D01*
X026392Y012139D01*
X026345Y012139D02*
X026320Y012164D01*
X026270Y012164D01*
X024467Y009564D02*
X024392Y009489D01*
X024492Y009489D01*
X024467Y009414D02*
X024467Y009564D01*
X024345Y009539D02*
X024320Y009564D01*
X024270Y009564D01*
X024245Y009539D01*
X024245Y009439D01*
X024270Y009414D01*
X024320Y009414D01*
X024345Y009439D01*
X019055Y006181D02*
X019030Y006206D01*
X019005Y006206D01*
X018980Y006181D01*
X018980Y006106D01*
X019030Y006106D01*
X019055Y006131D01*
X019055Y006181D01*
X018980Y006106D02*
X018930Y006156D01*
X018904Y006206D01*
X018930Y006059D02*
X018904Y006034D01*
X018904Y005984D01*
X018930Y005959D01*
X019030Y005959D01*
X019055Y005984D01*
X019055Y006034D01*
X019030Y006059D01*
X021474Y005886D02*
X021474Y005786D01*
X021550Y005786D01*
X021525Y005836D01*
X021525Y005861D01*
X021550Y005886D01*
X021600Y005886D01*
X021625Y005861D01*
X021625Y005811D01*
X021600Y005786D01*
X021600Y005739D02*
X021625Y005714D01*
X021625Y005664D01*
X021600Y005639D01*
X021500Y005639D01*
X021474Y005664D01*
X021474Y005714D01*
X021500Y005739D01*
X015415Y007674D02*
X015415Y007724D01*
X015390Y007749D01*
X015390Y007796D02*
X015415Y007796D01*
X015390Y007796D02*
X015290Y007896D01*
X015264Y007896D01*
X015264Y007796D01*
X015290Y007749D02*
X015264Y007724D01*
X015264Y007674D01*
X015290Y007649D01*
X015390Y007649D01*
X015415Y007674D01*
X029774Y017149D02*
X029800Y017124D01*
X029900Y017124D01*
X029925Y017149D01*
X029925Y017199D01*
X029900Y017224D01*
X029925Y017271D02*
X029925Y017371D01*
X029925Y017321D02*
X029774Y017321D01*
X029825Y017271D01*
X029800Y017224D02*
X029774Y017199D01*
X029774Y017149D01*
X029774Y017418D02*
X029850Y017418D01*
X029825Y017468D01*
X029825Y017493D01*
X029850Y017518D01*
X029900Y017518D01*
X029925Y017493D01*
X029925Y017443D01*
X029900Y017418D01*
X029774Y017418D02*
X029774Y017518D01*
X034045Y013764D02*
X034120Y013764D01*
X034145Y013739D01*
X034145Y013689D01*
X034120Y013664D01*
X034045Y013664D01*
X034095Y013664D02*
X034145Y013614D01*
X034192Y013614D02*
X034292Y013614D01*
X034242Y013614D02*
X034242Y013764D01*
X034192Y013714D01*
X034045Y013764D02*
X034045Y013614D01*
X032747Y012754D02*
X032747Y012604D01*
X032697Y012604D02*
X032797Y012604D01*
X032697Y012704D02*
X032747Y012754D01*
X032650Y012729D02*
X032650Y012629D01*
X032625Y012604D01*
X032550Y012604D01*
X032550Y012754D01*
X032625Y012754D01*
X032650Y012729D01*
X032503Y012754D02*
X032403Y012754D01*
X032403Y012604D01*
X032503Y012604D01*
X032453Y012679D02*
X032403Y012679D01*
X032355Y012604D02*
X032255Y012604D01*
X032255Y012754D01*
X034450Y011204D02*
X034525Y011204D01*
X034550Y011179D01*
X034550Y011129D01*
X034525Y011104D01*
X034450Y011104D01*
X034500Y011104D02*
X034550Y011054D01*
X034597Y011079D02*
X034597Y011104D01*
X034622Y011129D01*
X034672Y011129D01*
X034697Y011104D01*
X034697Y011079D01*
X034672Y011054D01*
X034622Y011054D01*
X034597Y011079D01*
X034622Y011129D02*
X034597Y011154D01*
X034597Y011179D01*
X034622Y011204D01*
X034672Y011204D01*
X034697Y011179D01*
X034697Y011154D01*
X034672Y011129D01*
X034450Y011054D02*
X034450Y011204D01*
X032797Y010929D02*
X032772Y010954D01*
X032722Y010954D01*
X032697Y010929D01*
X032650Y010929D02*
X032650Y010829D01*
X032625Y010804D01*
X032550Y010804D01*
X032550Y010954D01*
X032625Y010954D01*
X032650Y010929D01*
X032697Y010804D02*
X032797Y010904D01*
X032797Y010929D01*
X032797Y010804D02*
X032697Y010804D01*
X032503Y010804D02*
X032403Y010804D01*
X032403Y010954D01*
X032503Y010954D01*
X032453Y010879D02*
X032403Y010879D01*
X032355Y010804D02*
X032255Y010804D01*
X032255Y010954D01*
X034450Y009504D02*
X034525Y009504D01*
X034550Y009479D01*
X034550Y009429D01*
X034525Y009404D01*
X034450Y009404D01*
X034500Y009404D02*
X034550Y009354D01*
X034597Y009379D02*
X034622Y009354D01*
X034672Y009354D01*
X034697Y009379D01*
X034697Y009479D01*
X034672Y009504D01*
X034622Y009504D01*
X034597Y009479D01*
X034597Y009454D01*
X034622Y009429D01*
X034697Y009429D01*
X034450Y009354D02*
X034450Y009504D01*
X032797Y009229D02*
X032797Y009204D01*
X032772Y009179D01*
X032797Y009154D01*
X032797Y009129D01*
X032772Y009104D01*
X032722Y009104D01*
X032697Y009129D01*
X032650Y009129D02*
X032650Y009229D01*
X032625Y009254D01*
X032550Y009254D01*
X032550Y009104D01*
X032625Y009104D01*
X032650Y009129D01*
X032747Y009179D02*
X032772Y009179D01*
X032797Y009229D02*
X032772Y009254D01*
X032722Y009254D01*
X032697Y009229D01*
X032503Y009254D02*
X032403Y009254D01*
X032403Y009104D01*
X032503Y009104D01*
X032453Y009179D02*
X032403Y009179D01*
X032355Y009104D02*
X032255Y009104D01*
X032255Y009254D01*
X034303Y007704D02*
X034378Y007704D01*
X034403Y007679D01*
X034403Y007629D01*
X034378Y007604D01*
X034303Y007604D01*
X034353Y007604D02*
X034403Y007554D01*
X034450Y007554D02*
X034550Y007554D01*
X034500Y007554D02*
X034500Y007704D01*
X034450Y007654D01*
X034597Y007679D02*
X034622Y007704D01*
X034672Y007704D01*
X034697Y007679D01*
X034597Y007579D01*
X034622Y007554D01*
X034672Y007554D01*
X034697Y007579D01*
X034697Y007679D01*
X034597Y007679D02*
X034597Y007579D01*
X034303Y007554D02*
X034303Y007704D01*
X032797Y007379D02*
X032697Y007379D01*
X032772Y007454D01*
X032772Y007304D01*
X032650Y007329D02*
X032650Y007429D01*
X032625Y007454D01*
X032550Y007454D01*
X032550Y007304D01*
X032625Y007304D01*
X032650Y007329D01*
X032503Y007304D02*
X032403Y007304D01*
X032403Y007454D01*
X032503Y007454D01*
X032453Y007379D02*
X032403Y007379D01*
X032355Y007304D02*
X032255Y007304D01*
X032255Y007454D01*
D17*
X026590Y011696D02*
X026590Y011721D01*
X024590Y009121D02*
X024590Y009096D01*
X021182Y005579D02*
X021158Y005579D01*
X018612Y005899D02*
X018588Y005899D01*
X014972Y007589D02*
X014948Y007589D01*
X012670Y011296D02*
X012670Y011321D01*
X011002Y011509D02*
X010978Y011509D01*
X011390Y012496D02*
X011390Y012521D01*
X014418Y014549D02*
X014442Y014549D01*
X013522Y015039D02*
X013498Y015039D01*
X017238Y017239D02*
X017262Y017239D01*
X018048Y016849D02*
X018072Y016849D01*
X020578Y016909D02*
X020602Y016909D01*
X023878Y015509D02*
X023902Y015509D01*
X030218Y017469D02*
X030242Y017469D01*
D18*
X034390Y013309D03*
X034390Y011509D03*
X034390Y009809D03*
X034390Y008009D03*
X005560Y010319D03*
X005290Y011209D03*
X005290Y017509D03*
D19*
X005533Y006812D02*
X005581Y006812D01*
X005629Y006763D01*
X005678Y006812D01*
X005726Y006812D01*
X005775Y006763D01*
X005775Y006667D01*
X005726Y006618D01*
X005726Y006517D02*
X005484Y006517D01*
X005533Y006618D02*
X005484Y006667D01*
X005484Y006763D01*
X005533Y006812D01*
X005629Y006763D02*
X005629Y006715D01*
X005726Y006517D02*
X005775Y006469D01*
X005775Y006372D01*
X005726Y006324D01*
X005484Y006324D01*
D20*
X005240Y018919D03*
X005090Y019049D03*
X005090Y019059D03*
X005080Y019069D03*
X005070Y019099D03*
X005070Y019189D03*
X005080Y019219D03*
X005090Y019239D03*
X005100Y019249D03*
X005400Y019239D03*
X005410Y019229D03*
X005410Y019219D03*
X005420Y019189D03*
X005420Y019099D03*
X005420Y019089D03*
X005420Y019079D03*
X005600Y019189D03*
X005610Y019229D03*
X005610Y019239D03*
X005620Y019249D03*
X005890Y019209D03*
X005890Y019199D03*
X005890Y019189D03*
X005890Y019089D03*
X005900Y019059D03*
X005910Y019039D03*
X005920Y019029D03*
X005920Y019019D03*
X006060Y018919D03*
X006200Y019029D03*
X006210Y019039D03*
X006210Y019049D03*
X006220Y019059D03*
X006220Y019069D03*
X006230Y019099D03*
X006230Y019189D03*
X006220Y019219D03*
X006210Y019239D03*
X006060Y019369D03*
X006580Y019099D03*
X006580Y019089D03*
X006590Y019059D03*
X006600Y019039D03*
X006860Y019189D03*
X006870Y019229D03*
X006870Y019239D03*
X006880Y019249D03*
X007130Y019189D03*
X007140Y019219D03*
X007150Y019239D03*
X007160Y019249D03*
X007130Y019099D03*
X007140Y019079D03*
X007140Y019069D03*
X007150Y019059D03*
X007150Y019049D03*
X007300Y018919D03*
X007450Y019039D03*
X007460Y019049D03*
X007470Y019069D03*
X007480Y019099D03*
X007480Y019189D03*
X007470Y019219D03*
X007460Y019239D03*
X007450Y019249D03*
X007620Y019269D03*
X007630Y019279D03*
X007620Y019199D03*
X007630Y019189D03*
X007620Y019019D03*
X007630Y019009D03*
X007850Y019009D03*
X007850Y019089D03*
X007860Y019259D03*
X008260Y019609D03*
X006630Y020319D03*
X006620Y020309D03*
X006600Y020279D03*
X006590Y020269D03*
X006560Y020239D03*
X006650Y021069D03*
X006630Y021099D03*
X006620Y021109D03*
X006600Y021139D03*
X006590Y021149D03*
X006580Y021159D03*
X005630Y021649D03*
X005600Y021629D03*
X005590Y021619D03*
X005580Y021609D03*
X005560Y021599D03*
X005550Y021589D03*
X005540Y021579D03*
X005530Y021569D03*
X005530Y019879D03*
X005540Y019869D03*
X005550Y019859D03*
X005560Y019849D03*
X005580Y019839D03*
X005590Y019829D03*
X005600Y019819D03*
X005630Y019799D03*
D21*
X005850Y019689D03*
X006060Y019359D03*
X005920Y019279D03*
X005660Y019289D03*
X006060Y018929D03*
X006700Y018949D03*
X006920Y019289D03*
X007970Y019609D03*
X007970Y019619D03*
X006410Y021279D03*
X005850Y021759D03*
X005240Y018929D03*
D22*
X005425Y018929D03*
X005425Y018939D03*
X005425Y018949D03*
X005425Y018959D03*
X005425Y019109D03*
X005425Y019119D03*
X005425Y019129D03*
X005425Y019139D03*
X005425Y019149D03*
X005425Y019159D03*
X005425Y019169D03*
X005425Y019179D03*
X005415Y019199D03*
X005415Y019209D03*
X005595Y019179D03*
X005595Y019169D03*
X005595Y019159D03*
X005595Y019149D03*
X005595Y019139D03*
X005595Y019129D03*
X005595Y019119D03*
X005595Y019109D03*
X005595Y019099D03*
X005595Y019089D03*
X005595Y019079D03*
X005595Y019069D03*
X005595Y019059D03*
X005595Y019049D03*
X005595Y019039D03*
X005595Y019029D03*
X005595Y019019D03*
X005595Y019009D03*
X005595Y018999D03*
X005595Y018989D03*
X005595Y018979D03*
X005595Y018969D03*
X005595Y018959D03*
X005595Y018949D03*
X005595Y018939D03*
X005595Y018929D03*
X005605Y019199D03*
X005605Y019209D03*
X005605Y019219D03*
X005755Y019369D03*
X005885Y019369D03*
X005885Y019379D03*
X005885Y019389D03*
X005885Y019399D03*
X005885Y019409D03*
X005885Y019419D03*
X005885Y019429D03*
X005885Y019439D03*
X005885Y019449D03*
X005885Y019459D03*
X005885Y019469D03*
X005885Y019479D03*
X005885Y019489D03*
X005885Y019499D03*
X005885Y019509D03*
X005885Y019519D03*
X005885Y019529D03*
X005885Y019539D03*
X005885Y019549D03*
X005885Y019559D03*
X005885Y019359D03*
X005885Y019349D03*
X005885Y019339D03*
X005885Y019329D03*
X005885Y019179D03*
X005885Y019169D03*
X005885Y019159D03*
X005885Y019149D03*
X005885Y019139D03*
X005885Y019129D03*
X005885Y019119D03*
X005885Y019109D03*
X005885Y019099D03*
X005895Y019079D03*
X005895Y019069D03*
X005905Y019049D03*
X006225Y019079D03*
X006225Y019089D03*
X006235Y019109D03*
X006235Y019119D03*
X006235Y019129D03*
X006235Y019139D03*
X006235Y019149D03*
X006235Y019159D03*
X006235Y019169D03*
X006235Y019179D03*
X006225Y019199D03*
X006225Y019209D03*
X006215Y019229D03*
X006395Y019229D03*
X006395Y019239D03*
X006395Y019249D03*
X006395Y019259D03*
X006395Y019269D03*
X006395Y019279D03*
X006395Y019289D03*
X006395Y019299D03*
X006395Y019309D03*
X006395Y019319D03*
X006395Y019329D03*
X006395Y019339D03*
X006395Y019349D03*
X006395Y019359D03*
X006395Y019489D03*
X006395Y019529D03*
X006575Y019459D03*
X006575Y019449D03*
X006575Y019439D03*
X006575Y019429D03*
X006575Y019419D03*
X006575Y019409D03*
X006575Y019399D03*
X006575Y019389D03*
X006575Y019379D03*
X006575Y019369D03*
X006575Y019279D03*
X006575Y019269D03*
X006575Y019259D03*
X006575Y019249D03*
X006575Y019239D03*
X006575Y019229D03*
X006575Y019219D03*
X006575Y019209D03*
X006575Y019199D03*
X006575Y019189D03*
X006575Y019179D03*
X006575Y019169D03*
X006575Y019159D03*
X006575Y019149D03*
X006575Y019139D03*
X006575Y019129D03*
X006575Y019119D03*
X006575Y019109D03*
X006585Y019079D03*
X006585Y019069D03*
X006395Y019069D03*
X006395Y019079D03*
X006395Y019089D03*
X006395Y019099D03*
X006395Y019109D03*
X006395Y019119D03*
X006395Y019129D03*
X006395Y019139D03*
X006395Y019149D03*
X006395Y019159D03*
X006395Y019169D03*
X006395Y019179D03*
X006395Y019189D03*
X006395Y019199D03*
X006395Y019209D03*
X006395Y019219D03*
X006395Y019059D03*
X006395Y019049D03*
X006395Y019039D03*
X006395Y019029D03*
X006395Y019019D03*
X006395Y019009D03*
X006395Y018999D03*
X006395Y018989D03*
X006395Y018979D03*
X006395Y018969D03*
X006395Y018959D03*
X006395Y018949D03*
X006395Y018939D03*
X006395Y018929D03*
X006735Y018929D03*
X006855Y018929D03*
X006855Y018939D03*
X006855Y018949D03*
X006855Y018959D03*
X006855Y018969D03*
X006855Y018979D03*
X006855Y018989D03*
X006855Y018999D03*
X006855Y019009D03*
X006855Y019019D03*
X006855Y019029D03*
X006855Y019039D03*
X006855Y019049D03*
X006855Y019059D03*
X006855Y019069D03*
X006855Y019079D03*
X006855Y019089D03*
X006855Y019099D03*
X006855Y019109D03*
X006855Y019119D03*
X006855Y019129D03*
X006855Y019139D03*
X006855Y019149D03*
X006855Y019159D03*
X006855Y019169D03*
X006855Y019179D03*
X006865Y019199D03*
X006865Y019209D03*
X006865Y019219D03*
X007015Y019369D03*
X007145Y019229D03*
X007135Y019209D03*
X007135Y019199D03*
X007125Y019179D03*
X007125Y019169D03*
X007125Y019159D03*
X007125Y019149D03*
X007125Y019139D03*
X007125Y019129D03*
X007125Y019119D03*
X007125Y019109D03*
X007135Y019089D03*
X007465Y019059D03*
X007475Y019079D03*
X007475Y019089D03*
X007485Y019109D03*
X007485Y019119D03*
X007485Y019129D03*
X007485Y019139D03*
X007485Y019149D03*
X007485Y019159D03*
X007485Y019169D03*
X007485Y019179D03*
X007475Y019199D03*
X007475Y019209D03*
X007465Y019229D03*
X007615Y019229D03*
X007615Y019239D03*
X007615Y019249D03*
X007615Y019259D03*
X007615Y019219D03*
X007615Y019209D03*
X007615Y019039D03*
X007615Y019029D03*
X007855Y019019D03*
X007865Y019029D03*
X007865Y019039D03*
X007865Y019049D03*
X007865Y019059D03*
X007865Y019069D03*
X007855Y019079D03*
X007865Y019239D03*
X007865Y019249D03*
X007855Y019269D03*
X006585Y020259D03*
X006575Y020249D03*
X006555Y020229D03*
X006605Y020289D03*
X006615Y020299D03*
X006635Y020329D03*
X006645Y020339D03*
X006655Y020349D03*
X006655Y020359D03*
X006665Y020369D03*
X006675Y020389D03*
X006675Y021029D03*
X006665Y021049D03*
X006655Y021059D03*
X006645Y021079D03*
X006635Y021089D03*
X006615Y021119D03*
X006605Y021129D03*
X005515Y021559D03*
X005505Y021549D03*
X005495Y021539D03*
X005485Y021529D03*
X005475Y021519D03*
X005465Y021509D03*
X005455Y021499D03*
X005415Y021449D03*
X005415Y019999D03*
X005455Y019949D03*
X005465Y019939D03*
X005475Y019929D03*
X005485Y019919D03*
X005495Y019909D03*
X005505Y019899D03*
X005515Y019889D03*
X005085Y019229D03*
X005075Y019209D03*
X005075Y019199D03*
X005065Y019179D03*
X005065Y019169D03*
X005065Y019159D03*
X005065Y019149D03*
X005065Y019139D03*
X005065Y019129D03*
X005065Y019119D03*
X005065Y019109D03*
X005075Y019089D03*
X005075Y019079D03*
D23*
X005385Y019009D03*
X005245Y019349D03*
X005715Y019339D03*
X006975Y019339D03*
X007305Y019349D03*
X007305Y018929D03*
D24*
X007205Y018999D03*
X007205Y019289D03*
X006985Y019349D03*
X007735Y019359D03*
X007735Y018929D03*
X005915Y019269D03*
X005725Y019349D03*
X005815Y019699D03*
X005795Y019709D03*
X005145Y019289D03*
X005395Y019019D03*
X006425Y021269D03*
X005815Y021749D03*
X005795Y021739D03*
D25*
X006160Y021359D03*
X006060Y019349D03*
X005700Y019309D03*
X006060Y018939D03*
X006660Y018999D03*
X006680Y018979D03*
X006960Y019309D03*
X007740Y019349D03*
X007740Y018939D03*
X005240Y018939D03*
D26*
X005140Y018999D03*
X005400Y019029D03*
X005350Y019289D03*
X005910Y019259D03*
X006160Y019289D03*
X005960Y018989D03*
X006630Y019009D03*
X006710Y018939D03*
X007410Y018999D03*
X007410Y019289D03*
X005770Y019719D03*
X005750Y019729D03*
X006480Y021239D03*
X006450Y021259D03*
X005770Y021729D03*
X005750Y021719D03*
D27*
X005245Y019339D03*
X005695Y019299D03*
X006675Y018989D03*
X006955Y019299D03*
X007305Y019339D03*
X007305Y018939D03*
D28*
X007300Y018949D03*
X007740Y018949D03*
X007710Y019169D03*
X006650Y019289D03*
X006060Y019339D03*
X005960Y019659D03*
X006220Y019709D03*
X006220Y019719D03*
X006210Y019769D03*
X006210Y019779D03*
X006210Y019789D03*
X006210Y019799D03*
X006210Y019809D03*
X006200Y019849D03*
X006200Y019859D03*
X006190Y019879D03*
X006190Y019889D03*
X006190Y019899D03*
X006180Y019919D03*
X006180Y019929D03*
X006180Y019939D03*
X006180Y019949D03*
X006170Y019959D03*
X006170Y019969D03*
X006170Y019979D03*
X006170Y019989D03*
X006170Y019999D03*
X006160Y020009D03*
X006160Y020019D03*
X006160Y020029D03*
X006160Y020039D03*
X006160Y020049D03*
X006060Y018949D03*
X005240Y018949D03*
X005960Y021789D03*
D29*
X006060Y019329D03*
X006060Y018959D03*
X005240Y018959D03*
X007720Y019159D03*
X007730Y019149D03*
X007740Y019139D03*
X007750Y019129D03*
X007740Y018959D03*
X007740Y019329D03*
D30*
X006970Y019329D03*
X006690Y018959D03*
X005710Y019329D03*
X005880Y019679D03*
X005880Y021769D03*
D31*
X007305Y018959D03*
D32*
X006025Y019319D03*
X005285Y018969D03*
X005955Y020179D03*
X005945Y020189D03*
X005935Y020199D03*
X005975Y020169D03*
X006075Y020109D03*
X005865Y020269D03*
X005855Y020279D03*
X005825Y020319D03*
X005725Y020859D03*
X005725Y020869D03*
X005735Y020889D03*
X005735Y020899D03*
X005735Y020909D03*
X005745Y020919D03*
X005745Y020929D03*
X005755Y020949D03*
X006565Y021779D03*
X006605Y021769D03*
X006635Y021759D03*
D33*
X006105Y019629D03*
X006055Y018969D03*
X005245Y019319D03*
X007305Y019319D03*
X007735Y019309D03*
X007305Y018969D03*
D34*
X006965Y019319D03*
X006685Y018969D03*
X005935Y019289D03*
X005705Y019319D03*
X005915Y019669D03*
X006125Y019619D03*
X005375Y018999D03*
X005915Y021779D03*
D35*
X006140Y020069D03*
X007740Y019319D03*
X007740Y018969D03*
D36*
X006030Y019299D03*
X006030Y019309D03*
X005280Y018979D03*
X006020Y020139D03*
X006010Y020149D03*
X005990Y020159D03*
X005750Y020939D03*
X005760Y020959D03*
X005760Y020969D03*
X005770Y020979D03*
X005770Y020989D03*
X005780Y020999D03*
X005780Y021009D03*
X005790Y021019D03*
X005790Y021029D03*
X005800Y021039D03*
X006160Y021339D03*
X006510Y021789D03*
X006670Y021749D03*
X006700Y021739D03*
X006730Y021729D03*
X006750Y021719D03*
D37*
X006160Y021349D03*
X007740Y019289D03*
X006060Y018979D03*
D38*
X005245Y019309D03*
X006125Y020079D03*
X007305Y019309D03*
X007305Y018979D03*
D39*
X007740Y018979D03*
X007740Y018989D03*
X007740Y019299D03*
D40*
X006065Y020119D03*
X006045Y020129D03*
X005805Y021049D03*
X005815Y021059D03*
X005815Y021069D03*
X005825Y021079D03*
X005835Y021089D03*
X005865Y021129D03*
X006775Y021709D03*
X006795Y021699D03*
X006815Y021689D03*
X005275Y018989D03*
D41*
X005405Y019039D03*
X005365Y019279D03*
X005125Y019279D03*
X005125Y019009D03*
X005645Y019279D03*
X005735Y019359D03*
X005905Y019249D03*
X006175Y019279D03*
X006155Y018989D03*
X006615Y019019D03*
X006905Y019279D03*
X006995Y019359D03*
X007185Y019279D03*
X007425Y019279D03*
X007425Y019009D03*
X007185Y019009D03*
X006495Y021229D03*
X006465Y021249D03*
D42*
X007305Y019299D03*
X007305Y018989D03*
X005245Y019299D03*
D43*
X005245Y019359D03*
X005115Y019269D03*
X005105Y019259D03*
X005095Y019039D03*
X005105Y019029D03*
X005415Y019059D03*
X005415Y019069D03*
X005395Y019249D03*
X005385Y019259D03*
X005625Y019259D03*
X005895Y019229D03*
X005895Y019219D03*
X005935Y019009D03*
X005945Y018999D03*
X006185Y019009D03*
X006195Y019019D03*
X006205Y019249D03*
X006195Y019259D03*
X006395Y019499D03*
X006395Y019509D03*
X006395Y019519D03*
X006595Y019049D03*
X006605Y019029D03*
X006885Y019259D03*
X007165Y019259D03*
X007175Y019269D03*
X007305Y019359D03*
X007435Y019269D03*
X007445Y019259D03*
X007445Y019029D03*
X007435Y019019D03*
X007165Y019029D03*
X007155Y019039D03*
X007845Y019099D03*
X007845Y019279D03*
X008135Y019609D03*
X006565Y021169D03*
X006555Y021179D03*
X006545Y021189D03*
X006535Y021199D03*
X005675Y021679D03*
X005645Y021659D03*
X005615Y021639D03*
X005615Y019809D03*
X005645Y019789D03*
X005675Y019769D03*
D44*
X005690Y019759D03*
X005710Y019749D03*
X005730Y019739D03*
X005660Y019779D03*
X005630Y019269D03*
X005380Y019269D03*
X005410Y019049D03*
X005110Y019019D03*
X005900Y019239D03*
X006190Y019269D03*
X006170Y018999D03*
X006890Y019269D03*
X007170Y019019D03*
X007640Y018999D03*
X007840Y018999D03*
X006520Y021209D03*
X006510Y021219D03*
X005730Y021709D03*
X005710Y021699D03*
X005690Y021689D03*
X005660Y021669D03*
D45*
X005450Y021489D03*
X005440Y021479D03*
X005430Y021469D03*
X005420Y021459D03*
X005410Y021439D03*
X005400Y021429D03*
X005390Y021419D03*
X005380Y021409D03*
X005380Y021399D03*
X005370Y021389D03*
X005360Y021379D03*
X005350Y021359D03*
X005330Y021329D03*
X005320Y021309D03*
X006670Y021039D03*
X006680Y021019D03*
X006690Y021009D03*
X006690Y020999D03*
X006700Y020989D03*
X006700Y020979D03*
X006710Y020969D03*
X006710Y020959D03*
X006720Y020939D03*
X006720Y020929D03*
X006730Y020909D03*
X006740Y020869D03*
X006740Y020549D03*
X006730Y020509D03*
X006720Y020489D03*
X006720Y020479D03*
X006710Y020459D03*
X006710Y020449D03*
X006700Y020439D03*
X006700Y020429D03*
X006690Y020419D03*
X006690Y020409D03*
X006680Y020399D03*
X006670Y020379D03*
X006550Y020219D03*
X006400Y019539D03*
X006400Y019479D03*
X005450Y019959D03*
X005440Y019969D03*
X005430Y019979D03*
X005420Y019989D03*
X005410Y020009D03*
X005400Y020019D03*
X005390Y020029D03*
X005380Y020039D03*
X005380Y020049D03*
X005370Y020059D03*
X005360Y020069D03*
X005350Y020089D03*
X005330Y020119D03*
X005320Y020139D03*
X007610Y019049D03*
X008260Y019619D03*
D46*
X007735Y019339D03*
X007695Y019179D03*
X007775Y019109D03*
X006225Y019659D03*
D47*
X006225Y019669D03*
X006225Y019679D03*
X006225Y019689D03*
X006225Y019699D03*
X006215Y019729D03*
X006215Y019739D03*
X006215Y019749D03*
X006215Y019759D03*
X006205Y019819D03*
X006205Y019829D03*
X006205Y019839D03*
X006195Y019869D03*
X006185Y019909D03*
X006155Y020059D03*
X006655Y019359D03*
X006655Y019349D03*
X006655Y019339D03*
X006655Y019329D03*
X006655Y019319D03*
X006655Y019309D03*
X006655Y019299D03*
X007305Y019329D03*
X007765Y019119D03*
X005245Y019329D03*
D48*
X007970Y019419D03*
X007970Y019429D03*
X007970Y019439D03*
X007970Y019449D03*
X007970Y019459D03*
X007970Y019469D03*
X007970Y019479D03*
X007970Y019489D03*
X007970Y019499D03*
X007970Y019509D03*
X007970Y019519D03*
X007970Y019529D03*
X007970Y019539D03*
X007970Y019549D03*
X007970Y019559D03*
X007970Y019569D03*
X007970Y019579D03*
X007970Y019589D03*
X007970Y019599D03*
X008080Y019579D03*
X008080Y019569D03*
X008090Y019589D03*
X008200Y019569D03*
X008200Y019559D03*
X008200Y019549D03*
X008200Y019539D03*
X008200Y019529D03*
X008200Y019519D03*
X008200Y019509D03*
X008200Y019499D03*
X008200Y019489D03*
X008200Y019479D03*
X008200Y019469D03*
X008200Y019459D03*
X008200Y019449D03*
X008200Y019439D03*
X008200Y019429D03*
X008200Y019419D03*
X008320Y019419D03*
X008320Y019429D03*
X008320Y019439D03*
X008320Y019449D03*
X008320Y019459D03*
X008320Y019469D03*
X008320Y019479D03*
X008320Y019489D03*
X008320Y019499D03*
X008320Y019509D03*
X008320Y019519D03*
X008320Y019529D03*
X008320Y019539D03*
X008320Y019549D03*
X008320Y019559D03*
X008320Y019569D03*
X008310Y019579D03*
D49*
X008075Y019559D03*
X008075Y019549D03*
X008075Y019539D03*
X008075Y019529D03*
X008075Y019519D03*
X008075Y019509D03*
X008075Y019499D03*
X008075Y019489D03*
X008075Y019479D03*
X008075Y019469D03*
X008075Y019459D03*
X008075Y019449D03*
X008075Y019439D03*
X008075Y019429D03*
X008075Y019419D03*
D50*
X008195Y019579D03*
X008305Y019589D03*
X006655Y019779D03*
X006645Y019809D03*
X006645Y019819D03*
X006635Y019839D03*
X006625Y019859D03*
X006625Y019869D03*
X006615Y019899D03*
X006605Y019919D03*
X006605Y019929D03*
X006605Y019939D03*
X006595Y019959D03*
X006595Y019969D03*
X006595Y019979D03*
X006585Y020009D03*
X006585Y020019D03*
X006585Y020029D03*
X006575Y020049D03*
X006565Y020089D03*
X006565Y020099D03*
X006555Y020129D03*
X006555Y020139D03*
X006395Y019549D03*
X006395Y019469D03*
X006155Y019609D03*
X005195Y020459D03*
X005185Y020509D03*
X005175Y020559D03*
X005175Y020569D03*
X005175Y020579D03*
X005175Y020589D03*
X005165Y020639D03*
X005165Y020649D03*
X005165Y020659D03*
X005165Y020669D03*
X005165Y020679D03*
X005165Y020689D03*
X005165Y020699D03*
X005165Y020709D03*
X005165Y020719D03*
X005165Y020729D03*
X005165Y020739D03*
X005165Y020749D03*
X005165Y020759D03*
X005165Y020769D03*
X005165Y020779D03*
X005165Y020789D03*
X005165Y020799D03*
X005165Y020809D03*
X005175Y020859D03*
X005175Y020869D03*
X005175Y020879D03*
X005175Y020889D03*
X005185Y020939D03*
X005195Y020989D03*
D51*
X005215Y021069D03*
X005225Y021099D03*
X005235Y021129D03*
X005245Y021149D03*
X005245Y021159D03*
X005255Y021179D03*
X005265Y021199D03*
X005265Y021209D03*
X005275Y021219D03*
X005275Y021229D03*
X005285Y021239D03*
X005285Y021249D03*
X005295Y021259D03*
X005295Y021269D03*
X005305Y021279D03*
X005305Y021289D03*
X005315Y021299D03*
X005325Y021319D03*
X005335Y021339D03*
X005345Y021349D03*
X005355Y021369D03*
X006715Y020949D03*
X006725Y020919D03*
X006735Y020899D03*
X006735Y020889D03*
X006735Y020879D03*
X006745Y020859D03*
X006745Y020849D03*
X006745Y020839D03*
X006745Y020829D03*
X006755Y020809D03*
X006755Y020799D03*
X006755Y020789D03*
X006755Y020779D03*
X006755Y020639D03*
X006755Y020629D03*
X006755Y020619D03*
X006755Y020609D03*
X006745Y020589D03*
X006745Y020579D03*
X006745Y020569D03*
X006745Y020559D03*
X006735Y020539D03*
X006735Y020529D03*
X006735Y020519D03*
X006725Y020499D03*
X006715Y020469D03*
X006545Y020209D03*
X006545Y020169D03*
X005355Y020079D03*
X005345Y020099D03*
X005335Y020109D03*
X005325Y020129D03*
X005315Y020149D03*
X005305Y020159D03*
X005305Y020169D03*
X005295Y020179D03*
X005295Y020189D03*
X005285Y020199D03*
X005285Y020209D03*
X005275Y020219D03*
X005275Y020229D03*
X005265Y020239D03*
X005265Y020249D03*
X005255Y020269D03*
X005245Y020289D03*
X005245Y020299D03*
X005235Y020319D03*
X005225Y020349D03*
X005215Y020379D03*
X008135Y019619D03*
X008195Y019589D03*
D52*
X008170Y019599D03*
X008230Y019599D03*
X008290Y019599D03*
X008100Y019599D03*
X006650Y019789D03*
X006650Y019799D03*
X006640Y019829D03*
X006630Y019849D03*
X006620Y019879D03*
X006620Y019889D03*
X006610Y019909D03*
X006600Y019949D03*
X006590Y019989D03*
X006590Y019999D03*
X006580Y020039D03*
X006570Y020059D03*
X006570Y020069D03*
X006570Y020079D03*
X006560Y020109D03*
X006560Y020119D03*
X006550Y020149D03*
X006550Y020159D03*
X006540Y020179D03*
X006540Y020189D03*
X006540Y020199D03*
X006750Y020599D03*
X006760Y020649D03*
X006760Y020659D03*
X006760Y020669D03*
X006760Y020679D03*
X006760Y020689D03*
X006760Y020699D03*
X006760Y020709D03*
X006760Y020719D03*
X006760Y020729D03*
X006760Y020739D03*
X006760Y020749D03*
X006760Y020759D03*
X006760Y020769D03*
X006750Y020819D03*
X005260Y021189D03*
X005250Y021169D03*
X005240Y021139D03*
X005230Y021119D03*
X005230Y021109D03*
X005220Y021089D03*
X005220Y021079D03*
X005210Y021059D03*
X005210Y021049D03*
X005210Y021039D03*
X005200Y021029D03*
X005200Y021019D03*
X005200Y021009D03*
X005200Y020999D03*
X005190Y020979D03*
X005190Y020969D03*
X005190Y020959D03*
X005190Y020949D03*
X005180Y020929D03*
X005180Y020919D03*
X005180Y020909D03*
X005180Y020899D03*
X005170Y020849D03*
X005170Y020839D03*
X005170Y020829D03*
X005170Y020819D03*
X005170Y020629D03*
X005170Y020619D03*
X005170Y020609D03*
X005170Y020599D03*
X005180Y020549D03*
X005180Y020539D03*
X005180Y020529D03*
X005180Y020519D03*
X005190Y020499D03*
X005190Y020489D03*
X005190Y020479D03*
X005190Y020469D03*
X005200Y020449D03*
X005200Y020439D03*
X005200Y020429D03*
X005200Y020419D03*
X005210Y020409D03*
X005210Y020399D03*
X005210Y020389D03*
X005220Y020369D03*
X005220Y020359D03*
X005230Y020339D03*
X005230Y020329D03*
X005240Y020309D03*
X005250Y020279D03*
X005260Y020259D03*
D53*
X005750Y020449D03*
X005750Y020459D03*
X005740Y020479D03*
X005740Y020489D03*
X005730Y020509D03*
X005730Y020519D03*
X005720Y020549D03*
X005720Y020559D03*
X005710Y020609D03*
X005710Y020619D03*
X005710Y020759D03*
X005710Y020769D03*
X005710Y020779D03*
X005710Y020789D03*
X005710Y020799D03*
X005710Y020809D03*
X005720Y020819D03*
X005720Y020829D03*
X005720Y020839D03*
X005720Y020849D03*
X005730Y020879D03*
X005760Y020439D03*
X005760Y020429D03*
X005770Y020419D03*
X005770Y020409D03*
X005780Y020399D03*
X005780Y020389D03*
X005790Y020379D03*
X005790Y020369D03*
X005800Y020359D03*
X005800Y020349D03*
X005810Y020339D03*
X005820Y020329D03*
X005830Y020309D03*
X005840Y020299D03*
X005850Y020289D03*
X005870Y020259D03*
X005880Y020249D03*
X005890Y020239D03*
X005900Y020229D03*
X005910Y020219D03*
X005920Y020209D03*
X006090Y020099D03*
X006100Y019639D03*
D54*
X006100Y019649D03*
X005990Y021239D03*
X006010Y021249D03*
X006160Y021329D03*
X007060Y021529D03*
X007070Y021519D03*
X007080Y021509D03*
X007090Y021499D03*
X006250Y021829D03*
D55*
X007145Y021429D03*
X007155Y021419D03*
X007425Y020209D03*
X007435Y020169D03*
X007435Y020159D03*
X007445Y020119D03*
X007445Y020109D03*
X006865Y019749D03*
D56*
X006915Y019759D03*
X007045Y019799D03*
D57*
X006950Y019769D03*
D58*
X006995Y019779D03*
D59*
X007020Y019789D03*
X006160Y021299D03*
D60*
X006240Y021819D03*
X007400Y020009D03*
X007390Y019999D03*
X007370Y019989D03*
X007350Y019979D03*
X007340Y019969D03*
X007320Y019959D03*
X007290Y019939D03*
X007270Y019929D03*
X007240Y019909D03*
X007220Y019899D03*
X007070Y019809D03*
X007420Y020019D03*
D61*
X007090Y019819D03*
X006160Y021309D03*
D62*
X007425Y020029D03*
X007305Y019949D03*
X007255Y019919D03*
X007205Y019889D03*
X007185Y019879D03*
X007175Y019869D03*
X007155Y019859D03*
X007135Y019849D03*
X007125Y019839D03*
X007105Y019829D03*
D63*
X007435Y020039D03*
D64*
X007440Y020049D03*
X007370Y020479D03*
X007360Y020509D03*
X007360Y020519D03*
X007360Y020529D03*
X007350Y020579D03*
X007350Y020589D03*
X007330Y020699D03*
X007320Y020739D03*
X007320Y020749D03*
X007310Y020789D03*
X007310Y020799D03*
X007310Y020809D03*
X007300Y020839D03*
X007300Y020849D03*
X007300Y020859D03*
X007290Y020879D03*
X007290Y020889D03*
X007290Y020899D03*
X007290Y020909D03*
X007290Y020919D03*
X007280Y020929D03*
X007280Y020939D03*
X007280Y020949D03*
X007280Y020959D03*
X007280Y020969D03*
X007270Y020979D03*
X007270Y020989D03*
X007270Y020999D03*
X007260Y021039D03*
X007260Y021049D03*
X007260Y021059D03*
X007250Y021089D03*
X007250Y021099D03*
X007250Y021109D03*
X007240Y021149D03*
X007240Y021159D03*
X007230Y021199D03*
X007200Y021339D03*
X007190Y021349D03*
X007190Y021359D03*
X006160Y021319D03*
D65*
X007175Y021379D03*
X007175Y021389D03*
X007185Y021369D03*
X007295Y020869D03*
X007305Y020829D03*
X007305Y020819D03*
X007315Y020779D03*
X007315Y020769D03*
X007315Y020759D03*
X007325Y020729D03*
X007325Y020719D03*
X007325Y020709D03*
X007335Y020689D03*
X007335Y020679D03*
X007335Y020669D03*
X007335Y020659D03*
X007335Y020649D03*
X007345Y020639D03*
X007345Y020629D03*
X007345Y020619D03*
X007345Y020609D03*
X007345Y020599D03*
X007355Y020569D03*
X007355Y020559D03*
X007355Y020549D03*
X007355Y020539D03*
X007365Y020499D03*
X007365Y020489D03*
X007375Y020469D03*
X007375Y020459D03*
X007385Y020419D03*
X007385Y020409D03*
X007395Y020369D03*
X007445Y020059D03*
D66*
X007450Y020069D03*
X007450Y020079D03*
X007450Y020089D03*
X007450Y020099D03*
X007440Y020129D03*
X007440Y020139D03*
X007440Y020149D03*
X007430Y020179D03*
X007430Y020189D03*
X007430Y020199D03*
X007420Y020219D03*
X007420Y020229D03*
X007420Y020239D03*
X007420Y020249D03*
X007420Y020259D03*
X007410Y020269D03*
X007410Y020279D03*
X007410Y020289D03*
X007410Y020299D03*
X007410Y020309D03*
X007400Y020319D03*
X007400Y020329D03*
X007400Y020339D03*
X007400Y020349D03*
X007400Y020359D03*
X007390Y020379D03*
X007390Y020389D03*
X007390Y020399D03*
X007380Y020429D03*
X007380Y020439D03*
X007380Y020449D03*
X007170Y021399D03*
X007160Y021409D03*
X006070Y021279D03*
D67*
X006110Y020089D03*
D68*
X005745Y020469D03*
X005735Y020499D03*
X005725Y020529D03*
X005725Y020539D03*
X005715Y020569D03*
X005715Y020579D03*
X005715Y020589D03*
X005715Y020599D03*
X005705Y020629D03*
X005705Y020639D03*
X005705Y020649D03*
X005705Y020659D03*
X005705Y020669D03*
X005705Y020679D03*
X005705Y020689D03*
X005705Y020699D03*
X005705Y020709D03*
X005705Y020719D03*
X005705Y020729D03*
X005705Y020739D03*
X005705Y020749D03*
D69*
X007215Y021259D03*
X007215Y021269D03*
X007215Y021279D03*
X007215Y021289D03*
X007215Y021299D03*
X007205Y021309D03*
X007205Y021319D03*
X007205Y021329D03*
X007225Y021249D03*
X007225Y021239D03*
X007225Y021229D03*
X007225Y021219D03*
X007225Y021209D03*
X007235Y021189D03*
X007235Y021179D03*
X007235Y021169D03*
X007245Y021139D03*
X007245Y021129D03*
X007245Y021119D03*
X007255Y021079D03*
X007255Y021069D03*
X007265Y021029D03*
X007265Y021019D03*
X007265Y021009D03*
D70*
X006860Y021669D03*
X006840Y021679D03*
X005870Y021139D03*
X005860Y021119D03*
X005850Y021109D03*
X005840Y021099D03*
D71*
X005885Y021149D03*
X005895Y021159D03*
X005905Y021169D03*
X005915Y021179D03*
X005925Y021189D03*
X006885Y021659D03*
X006915Y021639D03*
X006925Y021629D03*
X006945Y021619D03*
X006955Y021609D03*
D72*
X006970Y021599D03*
X006990Y021589D03*
X007000Y021579D03*
X007010Y021569D03*
X006900Y021649D03*
X005950Y021209D03*
X005940Y021199D03*
D73*
X005965Y021219D03*
X005975Y021229D03*
X007025Y021559D03*
X007035Y021549D03*
X007045Y021539D03*
D74*
X007120Y021459D03*
X007130Y021449D03*
X007140Y021439D03*
X006050Y021269D03*
X006030Y021259D03*
D75*
X006160Y021289D03*
D76*
X007095Y021489D03*
X007105Y021479D03*
X007115Y021469D03*
D77*
X006265Y021799D03*
D78*
X006255Y021809D03*
M02*
