%
M48
M72
T01C0.0236
T02C0.0276
T03C0.0354
T04C0.0400
T05C0.0800
T06C0.1300
%
T01
X3690Y1459
X4640Y2109
X6140Y2959
X7190Y3509
X8390Y3509
X6090Y4609
X5040Y3909
X4590Y5209
X5990Y6109
X7190Y5309
X8890Y5509
X9090Y6509
X9190Y7409
X10890Y7409
X11590Y8109
X10290Y8809
X8990Y8809
X7490Y9009
X6590Y8109
X6790Y7209
X7480Y6759
X5590Y7209
X4690Y8459
X5890Y9309
X8290Y10309
X7890Y11009
X9190Y11309
X10490Y10709
X11690Y10509
X11690Y11309
X11690Y11909
X12290Y12509
X11390Y13209
X10450Y13869
X8590Y13909
X8140Y13169
X7690Y12439
X9090Y12109
X5630Y12409
X5690Y13109
X3790Y12409
X2950Y8969
X2560Y5089
X6890Y2009
X8390Y2009
X12790Y5309
X11890Y5509
X10890Y5509
X10890Y6509
X13390Y6009
X13890Y7009
X14960Y6639
X17890Y6109
X17990Y5169
X21470Y4579
X24920Y8399
X26590Y11009
X27880Y11839
X29790Y12009
X27380Y14039
X29790Y15409
X30490Y15139
X29710Y16119
X29290Y17279
X28890Y18209
X29590Y18909
X30230Y18429
X31090Y17909
X33990Y19509
X35990Y18459
X37040Y17909
X36090Y17259
X37040Y16559
X36190Y15559
X37140Y14809
X35690Y14109
X37140Y13509
X37140Y11509
X37140Y9259
X37140Y7009
X35890Y5309
X36940Y4509
X34690Y3309
X35940Y1509
X32990Y1309
X32090Y1409
X31590Y5409
X30490Y6509
X29990Y7009
X33680Y6089
X31900Y14109
X34090Y16409
X29990Y19809
X30890Y20209
X29890Y21809
X28290Y21809
X26390Y21809
X24390Y21809
X22390Y21809
X20390Y21809
X18390Y21809
X16390Y21809
X14290Y21809
X12290Y21809
X10390Y21809
X8540Y20809
X7690Y21959
X4640Y20809
X4140Y21709
X4540Y19359
X3190Y18909
X5790Y16909
X7590Y16709
X8290Y16509
X9290Y17709
X8790Y19109
X13390Y18609
X13390Y17009
X13510Y15929
X14430Y15419
X17100Y13799
X18390Y13799
X19390Y12999
X19890Y13909
X22390Y14809
X23090Y15409
X24490Y15969
X24090Y17279
X23390Y18009
X24390Y18209
X20590Y17809
X18990Y18009
X18060Y17689
X17250Y18119
X17390Y18909
X19390Y15509
X13690Y10509
X13090Y9609
X13590Y8809
X11490Y9609
X3790Y16309
X32590Y21909
X35190Y21209
T02
X19390Y11509
X31390Y3009
X33890Y2109
X33890Y4509
T03
X3790Y13442
X3790Y15175
T04
X9890Y19809
X10890Y19809
X11890Y19809
X12890Y19809
X13890Y19809
X14890Y19809
X15890Y19809
X16890Y19809
X17890Y19809
X18890Y19809
X19890Y19809
X20890Y19809
X21890Y19809
X22890Y19809
X23890Y19809
X24890Y19809
X25890Y19809
X26890Y19809
X27890Y19809
X28890Y19809
X28890Y20809
X27890Y20809
X26890Y20809
X25890Y20809
X24890Y20809
X23890Y20809
X22890Y20809
X21890Y20809
X20890Y20809
X19890Y20809
X18890Y20809
X17890Y20809
X16890Y20809
X15890Y20809
X14890Y20809
X13890Y20809
X12890Y20809
X11890Y20809
X10890Y20809
X9890Y20809
X31990Y20109
X32990Y20109
X32990Y19109
X31990Y19109
X31990Y18109
X32990Y18109
X32990Y17109
X31990Y17109
X31990Y16109
X32990Y16109
X28890Y3209
X27890Y3209
X26890Y3209
X25890Y3209
X24890Y3209
X23890Y3209
X22890Y3209
X21890Y3209
X20890Y3209
X19890Y3209
X18890Y3209
X17890Y3209
X16890Y3209
X15890Y3209
X14890Y3209
X13890Y3209
X12890Y3209
X11890Y3209
X10890Y3209
X9890Y3209
X9890Y2209
X10890Y2209
X11890Y2209
X12890Y2209
X13890Y2209
X14890Y2209
X15890Y2209
X16890Y2209
X17890Y2209
X18890Y2209
X19890Y2209
X20890Y2209
X21890Y2209
X22890Y2209
X23890Y2209
X24890Y2209
X25890Y2209
X26890Y2209
X27890Y2209
X28890Y2209
T05
X32490Y2109
X32490Y3909
T06
X36590Y2859
X36590Y20159
X3190Y20159
X3190Y2859
M30
