G75*
G70*
%OFA0B0*%
%FSLAX24Y24*%
%IPPOS*%
%LPD*%
%AMOC8*
5,1,8,0,0,1.08239X$1,22.5*
%
%ADD10OC8,0.0740*%
%ADD11R,0.0579X0.0500*%
%ADD12R,0.0394X0.0709*%
%ADD13R,0.0880X0.0480*%
%ADD14R,0.0866X0.1417*%
%ADD15R,0.0709X0.0630*%
%ADD16R,0.0630X0.0551*%
%ADD17R,0.0551X0.0630*%
%ADD18R,0.0630X0.0709*%
%ADD19OC8,0.0600*%
%ADD20C,0.0376*%
%ADD21C,0.0120*%
%ADD22C,0.0416*%
%ADD23C,0.0240*%
%ADD24C,0.0100*%
%ADD25C,0.0160*%
D10*
X031990Y016109D03*
X032990Y016109D03*
X032990Y017109D03*
X031990Y017109D03*
X031990Y018109D03*
X032990Y018109D03*
X032990Y019109D03*
X031990Y019109D03*
X031990Y020109D03*
X032990Y020109D03*
D11*
X033390Y010495D03*
X035690Y010505D03*
X035690Y008812D03*
X035690Y007775D03*
X033390Y008802D03*
X035690Y006082D03*
D12*
X034491Y007789D03*
X033388Y007789D03*
D13*
X028630Y007699D03*
X028630Y008609D03*
X028630Y009519D03*
X028610Y012599D03*
X028610Y013509D03*
X028610Y014419D03*
D14*
X026170Y013509D03*
X026190Y008609D03*
D15*
X031590Y008800D03*
X031590Y007697D03*
X018390Y011637D03*
X018390Y012740D03*
D16*
X030180Y009710D03*
X030180Y008607D03*
X030450Y013207D03*
X030450Y014310D03*
D17*
X028611Y010939D03*
X027508Y010939D03*
X031588Y006379D03*
X032691Y006379D03*
D18*
X031581Y010939D03*
X030478Y010939D03*
D19*
X028890Y003209D03*
X027890Y003209D03*
X026890Y003209D03*
X025890Y003209D03*
X024890Y003209D03*
X023890Y003209D03*
X022890Y003209D03*
X021890Y003209D03*
X020890Y003209D03*
X019890Y003209D03*
X018890Y003209D03*
X017890Y003209D03*
X016890Y003209D03*
X015890Y003209D03*
X014890Y003209D03*
X013890Y003209D03*
X012890Y003209D03*
X011890Y003209D03*
X010890Y003209D03*
X009890Y003209D03*
X009890Y002209D03*
X010890Y002209D03*
X011890Y002209D03*
X012890Y002209D03*
X013890Y002209D03*
X014890Y002209D03*
X015890Y002209D03*
X016890Y002209D03*
X017890Y002209D03*
X018890Y002209D03*
X019890Y002209D03*
X020890Y002209D03*
X021890Y002209D03*
X022890Y002209D03*
X023890Y002209D03*
X024890Y002209D03*
X025890Y002209D03*
X026890Y002209D03*
X027890Y002209D03*
X028890Y002209D03*
X028890Y019809D03*
X027890Y019809D03*
X026890Y019809D03*
X025890Y019809D03*
X024890Y019809D03*
X023890Y019809D03*
X022890Y019809D03*
X021890Y019809D03*
X020890Y019809D03*
X019890Y019809D03*
X018890Y019809D03*
X017890Y019809D03*
X016890Y019809D03*
X015890Y019809D03*
X014890Y019809D03*
X013890Y019809D03*
X012890Y019809D03*
X011890Y019809D03*
X010890Y019809D03*
X009890Y019809D03*
X009890Y020809D03*
X010890Y020809D03*
X011890Y020809D03*
X012890Y020809D03*
X013890Y020809D03*
X014890Y020809D03*
X015890Y020809D03*
X016890Y020809D03*
X017890Y020809D03*
X018890Y020809D03*
X019890Y020809D03*
X020890Y020809D03*
X021890Y020809D03*
X022890Y020809D03*
X023890Y020809D03*
X024890Y020809D03*
X025890Y020809D03*
X026890Y020809D03*
X027890Y020809D03*
X028890Y020809D03*
D20*
X029990Y019809D03*
X030890Y020209D03*
X029590Y018909D03*
X030230Y018429D03*
X031090Y017909D03*
X029290Y017279D03*
X028890Y018209D03*
X029710Y016119D03*
X029790Y015409D03*
X030490Y015139D03*
X031900Y014109D03*
X029790Y012009D03*
X027880Y011839D03*
X026590Y011009D03*
X024920Y008399D03*
X029990Y007009D03*
X030490Y006509D03*
X031590Y005409D03*
X033680Y006089D03*
X035890Y005309D03*
X036940Y004509D03*
X034690Y003309D03*
X035940Y001509D03*
X032990Y001309D03*
X032090Y001409D03*
X037140Y007009D03*
X037140Y009259D03*
X037140Y011509D03*
X037140Y013509D03*
X035690Y014109D03*
X037140Y014809D03*
X036190Y015559D03*
X037040Y016559D03*
X036090Y017259D03*
X037040Y017909D03*
X035990Y018459D03*
X033990Y019509D03*
X035190Y021209D03*
X032590Y021909D03*
X029890Y021809D03*
X028290Y021809D03*
X026390Y021809D03*
X024390Y021809D03*
X022390Y021809D03*
X020390Y021809D03*
X018390Y021809D03*
X016390Y021809D03*
X014290Y021809D03*
X012290Y021809D03*
X010390Y021809D03*
X008540Y020809D03*
X007690Y021959D03*
X004640Y020809D03*
X004140Y021709D03*
X004540Y019359D03*
X003190Y018909D03*
X005790Y016909D03*
X007590Y016709D03*
X008290Y016509D03*
X009290Y017709D03*
X008790Y019109D03*
X013390Y018609D03*
X013390Y017009D03*
X013510Y015929D03*
X014430Y015419D03*
X017100Y013799D03*
X018390Y013799D03*
X019390Y012999D03*
X019890Y013909D03*
X022390Y014809D03*
X023090Y015409D03*
X024490Y015969D03*
X024090Y017279D03*
X023390Y018009D03*
X024390Y018209D03*
X020590Y017809D03*
X018990Y018009D03*
X018060Y017689D03*
X017250Y018119D03*
X017390Y018909D03*
X019390Y015509D03*
X012290Y012509D03*
X011690Y011909D03*
X011690Y011309D03*
X011690Y010509D03*
X010490Y010709D03*
X009190Y011309D03*
X009090Y012109D03*
X007690Y012439D03*
X008140Y013169D03*
X008590Y013909D03*
X010450Y013869D03*
X011390Y013209D03*
X007890Y011009D03*
X008290Y010309D03*
X007490Y009009D03*
X006590Y008109D03*
X006790Y007209D03*
X007480Y006759D03*
X005990Y006109D03*
X007190Y005309D03*
X006090Y004609D03*
X005040Y003909D03*
X006140Y002959D03*
X007190Y003509D03*
X008390Y003509D03*
X008390Y002009D03*
X006890Y002009D03*
X004640Y002109D03*
X003690Y001459D03*
X002560Y005089D03*
X004590Y005209D03*
X005590Y007209D03*
X004690Y008459D03*
X005890Y009309D03*
X002950Y008969D03*
X003790Y012409D03*
X005630Y012409D03*
X005690Y013109D03*
X003790Y016309D03*
X013690Y010509D03*
X013090Y009609D03*
X013590Y008809D03*
X011590Y008109D03*
X010890Y007409D03*
X010890Y006509D03*
X010890Y005509D03*
X011890Y005509D03*
X012790Y005309D03*
X013390Y006009D03*
X013890Y007009D03*
X014960Y006639D03*
X017890Y006109D03*
X017990Y005169D03*
X021470Y004579D03*
X011490Y009609D03*
X010290Y008809D03*
X008990Y008809D03*
X009190Y007409D03*
X009090Y006509D03*
X008890Y005509D03*
X027380Y014039D03*
X034090Y016409D03*
D21*
X002954Y001573D02*
X002734Y001820D01*
X002542Y002090D01*
X002496Y002175D01*
X002697Y002005D01*
X003019Y001889D01*
X003361Y001889D01*
X003682Y002005D01*
X003682Y002005D01*
X003944Y002225D01*
X003944Y002225D01*
X003944Y002225D01*
X004115Y002522D01*
X004175Y002859D01*
X004115Y003195D01*
X003944Y003492D01*
X003682Y003712D01*
X003361Y003829D01*
X003019Y003829D01*
X002697Y003712D01*
X002435Y003492D01*
X002435Y003492D01*
X002435Y003492D01*
X002264Y003195D01*
X002205Y002861D01*
X002164Y003004D01*
X002108Y003331D01*
X002100Y003483D01*
X002100Y019534D01*
X002108Y019686D01*
X002164Y020013D01*
X002205Y020156D01*
X002264Y019822D01*
X002264Y019822D01*
X002435Y019525D01*
X002697Y019305D01*
X003019Y019189D01*
X003361Y019189D01*
X003682Y019305D01*
X003944Y019525D01*
X004115Y019822D01*
X004175Y020159D01*
X004115Y020495D01*
X003944Y020792D01*
X003682Y021012D01*
X003361Y021129D01*
X003019Y021129D01*
X002697Y021012D01*
X002496Y020842D01*
X002542Y020927D01*
X002734Y021197D01*
X002954Y021444D01*
X003201Y021664D01*
X003471Y021856D01*
X003761Y022016D01*
X004067Y022143D01*
X004385Y022234D01*
X004712Y022290D01*
X004864Y022299D01*
X034868Y022299D01*
X035175Y022259D01*
X035510Y022177D01*
X035835Y022058D01*
X036143Y021903D01*
X036433Y021715D01*
X036700Y021495D01*
X036940Y021247D01*
X037151Y020974D01*
X037177Y020932D01*
X037082Y021012D01*
X036761Y021129D01*
X036419Y021129D01*
X036097Y021012D01*
X035835Y020792D01*
X035835Y020792D01*
X035835Y020792D01*
X035664Y020495D01*
X035605Y020159D01*
X035664Y019822D01*
X035664Y019822D01*
X035835Y019525D01*
X036097Y019305D01*
X036419Y019189D01*
X036761Y019189D01*
X037082Y019305D01*
X037082Y019305D01*
X037344Y019525D01*
X037344Y019525D01*
X037344Y019525D01*
X037515Y019822D01*
X037564Y020099D01*
X037585Y020037D01*
X037656Y019700D01*
X037680Y019459D01*
X037680Y003558D01*
X037656Y003317D01*
X037585Y002980D01*
X037564Y002918D01*
X037515Y003195D01*
X037344Y003492D01*
X037082Y003712D01*
X036761Y003829D01*
X036419Y003829D01*
X036097Y003712D01*
X035835Y003492D01*
X035835Y003492D01*
X035835Y003492D01*
X035664Y003195D01*
X035605Y002859D01*
X035664Y002522D01*
X035664Y002522D01*
X035835Y002225D01*
X036097Y002005D01*
X036419Y001889D01*
X036542Y001889D01*
X036761Y001889D01*
X037082Y002005D01*
X037082Y002005D01*
X037177Y002085D01*
X037151Y002043D01*
X036940Y001770D01*
X036700Y001522D01*
X036433Y001302D01*
X036143Y001114D01*
X035835Y000959D01*
X035510Y000840D01*
X035175Y000758D01*
X034868Y000719D01*
X004864Y000719D01*
X004712Y000727D01*
X004385Y000783D01*
X004067Y000874D01*
X003761Y001001D01*
X003471Y001161D01*
X003201Y001353D01*
X002954Y001573D01*
X002953Y001575D02*
X032184Y001575D01*
X032144Y001591D02*
X032368Y001499D01*
X032611Y001499D01*
X032835Y001591D01*
X033007Y001763D01*
X033100Y001987D01*
X033100Y002230D01*
X033007Y002454D01*
X032835Y002626D01*
X032611Y002719D01*
X032368Y002719D01*
X032144Y002626D01*
X031972Y002454D01*
X031880Y002230D01*
X031880Y001987D01*
X031972Y001763D01*
X032144Y001591D01*
X032042Y001694D02*
X002847Y001694D01*
X002741Y001812D02*
X009579Y001812D01*
X009683Y001709D02*
X010097Y001709D01*
X010390Y002001D01*
X010683Y001709D01*
X011097Y001709D01*
X011390Y002001D01*
X011683Y001709D01*
X012097Y001709D01*
X012390Y002001D01*
X012683Y001709D01*
X013097Y001709D01*
X013390Y002001D01*
X013683Y001709D01*
X014097Y001709D01*
X014390Y002001D01*
X014683Y001709D01*
X015097Y001709D01*
X015390Y002001D01*
X015683Y001709D01*
X016097Y001709D01*
X016390Y002001D01*
X016683Y001709D01*
X017097Y001709D01*
X017390Y002001D01*
X017683Y001709D01*
X018097Y001709D01*
X018390Y002001D01*
X018683Y001709D01*
X019097Y001709D01*
X019390Y002001D01*
X019683Y001709D01*
X020097Y001709D01*
X020390Y002001D01*
X020683Y001709D01*
X021097Y001709D01*
X021390Y002001D01*
X021683Y001709D01*
X022097Y001709D01*
X022390Y002001D01*
X022683Y001709D01*
X023097Y001709D01*
X023390Y002001D01*
X023683Y001709D01*
X024097Y001709D01*
X024390Y002001D01*
X024683Y001709D01*
X025097Y001709D01*
X025390Y002001D01*
X025683Y001709D01*
X026097Y001709D01*
X026390Y002001D01*
X026683Y001709D01*
X027097Y001709D01*
X027390Y002001D01*
X027683Y001709D01*
X028097Y001709D01*
X028390Y002001D01*
X028683Y001709D01*
X029097Y001709D01*
X029390Y002001D01*
X029390Y002416D01*
X029097Y002709D01*
X029390Y003001D01*
X029390Y003416D01*
X029097Y003709D01*
X028683Y003709D01*
X028390Y003416D01*
X028097Y003709D01*
X027683Y003709D01*
X027390Y003416D01*
X027097Y003709D01*
X026683Y003709D01*
X026390Y003416D01*
X026097Y003709D01*
X025683Y003709D01*
X025390Y003416D01*
X025097Y003709D01*
X024683Y003709D01*
X024390Y003416D01*
X024097Y003709D01*
X023683Y003709D01*
X023390Y003416D01*
X023097Y003709D01*
X022683Y003709D01*
X022390Y003416D01*
X022097Y003709D01*
X021683Y003709D01*
X021390Y003416D01*
X021097Y003709D01*
X020683Y003709D01*
X020390Y003416D01*
X020097Y003709D01*
X019683Y003709D01*
X019390Y003416D01*
X019097Y003709D01*
X018683Y003709D01*
X018390Y003416D01*
X018097Y003709D01*
X017683Y003709D01*
X017390Y003416D01*
X017097Y003709D01*
X016683Y003709D01*
X016390Y003416D01*
X016097Y003709D01*
X015683Y003709D01*
X015390Y003416D01*
X015097Y003709D01*
X014683Y003709D01*
X014390Y003416D01*
X014097Y003709D01*
X013683Y003709D01*
X013390Y003416D01*
X013097Y003709D01*
X012683Y003709D01*
X012390Y003416D01*
X012097Y003709D01*
X011683Y003709D01*
X011390Y003416D01*
X011390Y003001D01*
X011683Y002709D01*
X011390Y002416D01*
X011097Y002709D01*
X010683Y002709D01*
X010390Y002416D01*
X010390Y002001D01*
X010390Y002416D01*
X010097Y002709D01*
X010390Y003001D01*
X010390Y003416D01*
X010097Y003709D01*
X009683Y003709D01*
X009390Y003416D01*
X009390Y003001D01*
X009683Y002709D01*
X010097Y002709D01*
X009683Y002709D01*
X009390Y002416D01*
X009390Y002001D01*
X009683Y001709D01*
X009460Y001931D02*
X003476Y001931D01*
X003734Y002049D02*
X009390Y002049D01*
X009390Y002168D02*
X003875Y002168D01*
X003979Y002286D02*
X009390Y002286D01*
X009390Y002405D02*
X004048Y002405D01*
X004115Y002522D02*
X004115Y002522D01*
X004115Y002523D02*
X009497Y002523D01*
X009616Y002642D02*
X004136Y002642D01*
X004157Y002760D02*
X009631Y002760D01*
X009512Y002879D02*
X004171Y002879D01*
X004175Y002859D02*
X004175Y002859D01*
X004150Y002997D02*
X009394Y002997D01*
X009390Y003116D02*
X004129Y003116D01*
X004115Y003195D02*
X004115Y003195D01*
X004093Y003234D02*
X009390Y003234D01*
X009390Y003353D02*
X004024Y003353D01*
X003956Y003471D02*
X009445Y003471D01*
X009564Y003590D02*
X003827Y003590D01*
X003944Y003492D02*
X003944Y003492D01*
X003686Y003708D02*
X009682Y003708D01*
X010097Y003708D02*
X011682Y003708D01*
X011564Y003590D02*
X011159Y003590D01*
X011080Y003669D02*
X010930Y003669D01*
X010930Y003249D01*
X010850Y003249D01*
X010850Y003669D01*
X010699Y003669D01*
X010430Y003399D01*
X010430Y003249D01*
X010850Y003249D01*
X010850Y003169D01*
X010430Y003169D01*
X010430Y003018D01*
X010699Y002749D01*
X010850Y002749D01*
X010850Y003168D01*
X010930Y003168D01*
X010930Y003169D02*
X010930Y003249D01*
X011350Y003249D01*
X011350Y003399D01*
X011080Y003669D01*
X010930Y003590D02*
X010850Y003590D01*
X010850Y003471D02*
X010930Y003471D01*
X010930Y003353D02*
X010850Y003353D01*
X010850Y003234D02*
X010390Y003234D01*
X010390Y003116D02*
X010430Y003116D01*
X010451Y002997D02*
X010385Y002997D01*
X010267Y002879D02*
X010569Y002879D01*
X010688Y002760D02*
X010148Y002760D01*
X010164Y002642D02*
X010616Y002642D01*
X010497Y002523D02*
X010282Y002523D01*
X010390Y002405D02*
X010390Y002405D01*
X010390Y002286D02*
X010390Y002286D01*
X010390Y002168D02*
X010390Y002168D01*
X010390Y002049D02*
X010390Y002049D01*
X010319Y001931D02*
X010460Y001931D01*
X010579Y001812D02*
X010200Y001812D01*
X011200Y001812D02*
X011579Y001812D01*
X011460Y001931D02*
X011319Y001931D01*
X011390Y002001D02*
X011390Y002416D01*
X011390Y002001D01*
X011390Y002049D02*
X011390Y002049D01*
X011390Y002168D02*
X011390Y002168D01*
X011390Y002286D02*
X011390Y002286D01*
X011390Y002405D02*
X011390Y002405D01*
X011282Y002523D02*
X011497Y002523D01*
X011616Y002642D02*
X011164Y002642D01*
X011080Y002749D02*
X010930Y002749D01*
X010930Y003168D01*
X010930Y003169D02*
X011350Y003169D01*
X011350Y003018D01*
X011080Y002749D01*
X011092Y002760D02*
X011631Y002760D01*
X011683Y002709D02*
X012097Y002709D01*
X012390Y003001D01*
X012683Y002709D01*
X012390Y002416D01*
X012097Y002709D01*
X011683Y002709D01*
X011512Y002879D02*
X011210Y002879D01*
X011329Y002997D02*
X011394Y002997D01*
X011390Y003116D02*
X011350Y003116D01*
X011390Y003234D02*
X010930Y003234D01*
X010930Y003116D02*
X010850Y003116D01*
X010850Y002997D02*
X010930Y002997D01*
X010930Y002879D02*
X010850Y002879D01*
X010850Y002760D02*
X010930Y002760D01*
X011350Y003353D02*
X011390Y003353D01*
X011445Y003471D02*
X011278Y003471D01*
X010620Y003590D02*
X010216Y003590D01*
X010334Y003471D02*
X010502Y003471D01*
X010430Y003353D02*
X010390Y003353D01*
X012097Y003708D02*
X012682Y003708D01*
X012564Y003590D02*
X012216Y003590D01*
X012334Y003471D02*
X012445Y003471D01*
X012390Y003416D02*
X012390Y003001D01*
X012390Y003416D01*
X012390Y003353D02*
X012390Y003353D01*
X012390Y003234D02*
X012390Y003234D01*
X012390Y003116D02*
X012390Y003116D01*
X012385Y002997D02*
X012394Y002997D01*
X012512Y002879D02*
X012267Y002879D01*
X012148Y002760D02*
X012631Y002760D01*
X012683Y002709D02*
X013097Y002709D01*
X013390Y003001D01*
X013683Y002709D01*
X013390Y002416D01*
X013097Y002709D01*
X012683Y002709D01*
X012616Y002642D02*
X012164Y002642D01*
X012282Y002523D02*
X012497Y002523D01*
X012390Y002416D02*
X012390Y002001D01*
X012390Y002416D01*
X012390Y002405D02*
X012390Y002405D01*
X012390Y002286D02*
X012390Y002286D01*
X012390Y002168D02*
X012390Y002168D01*
X012390Y002049D02*
X012390Y002049D01*
X012319Y001931D02*
X012460Y001931D01*
X012579Y001812D02*
X012200Y001812D01*
X013200Y001812D02*
X013579Y001812D01*
X013460Y001931D02*
X013319Y001931D01*
X013390Y002001D02*
X013390Y002416D01*
X013390Y002001D01*
X013390Y002049D02*
X013390Y002049D01*
X013390Y002168D02*
X013390Y002168D01*
X013390Y002286D02*
X013390Y002286D01*
X013390Y002405D02*
X013390Y002405D01*
X013282Y002523D02*
X013497Y002523D01*
X013616Y002642D02*
X013164Y002642D01*
X013148Y002760D02*
X013631Y002760D01*
X013683Y002709D02*
X014097Y002709D01*
X014390Y003001D01*
X014683Y002709D01*
X014390Y002416D01*
X014097Y002709D01*
X013683Y002709D01*
X013512Y002879D02*
X013267Y002879D01*
X013385Y002997D02*
X013394Y002997D01*
X013390Y003001D02*
X013390Y003416D01*
X013390Y003001D01*
X013390Y003116D02*
X013390Y003116D01*
X013390Y003234D02*
X013390Y003234D01*
X013390Y003353D02*
X013390Y003353D01*
X013334Y003471D02*
X013445Y003471D01*
X013564Y003590D02*
X013216Y003590D01*
X013097Y003708D02*
X013682Y003708D01*
X014097Y003708D02*
X014682Y003708D01*
X014564Y003590D02*
X014216Y003590D01*
X014334Y003471D02*
X014445Y003471D01*
X014390Y003416D02*
X014390Y003001D01*
X014390Y003416D01*
X014390Y003353D02*
X014390Y003353D01*
X014390Y003234D02*
X014390Y003234D01*
X014390Y003116D02*
X014390Y003116D01*
X014385Y002997D02*
X014394Y002997D01*
X014512Y002879D02*
X014267Y002879D01*
X014148Y002760D02*
X014631Y002760D01*
X014683Y002709D02*
X015097Y002709D01*
X015390Y003001D01*
X015683Y002709D01*
X015390Y002416D01*
X015097Y002709D01*
X014683Y002709D01*
X014616Y002642D02*
X014164Y002642D01*
X014282Y002523D02*
X014497Y002523D01*
X014390Y002416D02*
X014390Y002001D01*
X014390Y002416D01*
X014390Y002405D02*
X014390Y002405D01*
X014390Y002286D02*
X014390Y002286D01*
X014390Y002168D02*
X014390Y002168D01*
X014390Y002049D02*
X014390Y002049D01*
X014319Y001931D02*
X014460Y001931D01*
X014579Y001812D02*
X014200Y001812D01*
X015200Y001812D02*
X015579Y001812D01*
X015460Y001931D02*
X015319Y001931D01*
X015390Y002001D02*
X015390Y002416D01*
X015390Y002001D01*
X015390Y002049D02*
X015390Y002049D01*
X015390Y002168D02*
X015390Y002168D01*
X015390Y002286D02*
X015390Y002286D01*
X015390Y002405D02*
X015390Y002405D01*
X015282Y002523D02*
X015497Y002523D01*
X015616Y002642D02*
X015164Y002642D01*
X015148Y002760D02*
X015631Y002760D01*
X015683Y002709D02*
X016097Y002709D01*
X016390Y003001D01*
X016683Y002709D01*
X016390Y002416D01*
X016097Y002709D01*
X015683Y002709D01*
X015512Y002879D02*
X015267Y002879D01*
X015385Y002997D02*
X015394Y002997D01*
X015390Y003001D02*
X015390Y003416D01*
X015390Y003001D01*
X015390Y003116D02*
X015390Y003116D01*
X015390Y003234D02*
X015390Y003234D01*
X015390Y003353D02*
X015390Y003353D01*
X015334Y003471D02*
X015445Y003471D01*
X015564Y003590D02*
X015216Y003590D01*
X015097Y003708D02*
X015682Y003708D01*
X016097Y003708D02*
X016682Y003708D01*
X016564Y003590D02*
X016216Y003590D01*
X016334Y003471D02*
X016445Y003471D01*
X016390Y003416D02*
X016390Y003001D01*
X016390Y003416D01*
X016390Y003353D02*
X016390Y003353D01*
X016390Y003234D02*
X016390Y003234D01*
X016390Y003116D02*
X016390Y003116D01*
X016385Y002997D02*
X016394Y002997D01*
X016512Y002879D02*
X016267Y002879D01*
X016148Y002760D02*
X016631Y002760D01*
X016683Y002709D02*
X017097Y002709D01*
X017390Y003001D01*
X017683Y002709D01*
X017390Y002416D01*
X017097Y002709D01*
X016683Y002709D01*
X016616Y002642D02*
X016164Y002642D01*
X016282Y002523D02*
X016497Y002523D01*
X016390Y002416D02*
X016390Y002001D01*
X016390Y002416D01*
X016390Y002405D02*
X016390Y002405D01*
X016390Y002286D02*
X016390Y002286D01*
X016390Y002168D02*
X016390Y002168D01*
X016390Y002049D02*
X016390Y002049D01*
X016319Y001931D02*
X016460Y001931D01*
X016579Y001812D02*
X016200Y001812D01*
X017200Y001812D02*
X017579Y001812D01*
X017460Y001931D02*
X017319Y001931D01*
X017390Y002001D02*
X017390Y002416D01*
X017390Y002001D01*
X017390Y002049D02*
X017390Y002049D01*
X017390Y002168D02*
X017390Y002168D01*
X017390Y002286D02*
X017390Y002286D01*
X017390Y002405D02*
X017390Y002405D01*
X017282Y002523D02*
X017497Y002523D01*
X017616Y002642D02*
X017164Y002642D01*
X017148Y002760D02*
X017631Y002760D01*
X017683Y002709D02*
X018097Y002709D01*
X018390Y003001D01*
X018683Y002709D01*
X018390Y002416D01*
X018097Y002709D01*
X017683Y002709D01*
X017512Y002879D02*
X017267Y002879D01*
X017385Y002997D02*
X017394Y002997D01*
X017390Y003001D02*
X017390Y003416D01*
X017390Y003001D01*
X017390Y003116D02*
X017390Y003116D01*
X017390Y003234D02*
X017390Y003234D01*
X017390Y003353D02*
X017390Y003353D01*
X017334Y003471D02*
X017445Y003471D01*
X017564Y003590D02*
X017216Y003590D01*
X017097Y003708D02*
X017682Y003708D01*
X018097Y003708D02*
X018682Y003708D01*
X018564Y003590D02*
X018216Y003590D01*
X018334Y003471D02*
X018445Y003471D01*
X018390Y003416D02*
X018390Y003001D01*
X018390Y003416D01*
X018390Y003353D02*
X018390Y003353D01*
X018390Y003234D02*
X018390Y003234D01*
X018390Y003116D02*
X018390Y003116D01*
X018385Y002997D02*
X018394Y002997D01*
X018512Y002879D02*
X018267Y002879D01*
X018148Y002760D02*
X018631Y002760D01*
X018683Y002709D02*
X019097Y002709D01*
X019390Y003001D01*
X019683Y002709D01*
X019390Y002416D01*
X019097Y002709D01*
X018683Y002709D01*
X018616Y002642D02*
X018164Y002642D01*
X018282Y002523D02*
X018497Y002523D01*
X018390Y002416D02*
X018390Y002001D01*
X018390Y002416D01*
X018390Y002405D02*
X018390Y002405D01*
X018390Y002286D02*
X018390Y002286D01*
X018390Y002168D02*
X018390Y002168D01*
X018390Y002049D02*
X018390Y002049D01*
X018319Y001931D02*
X018460Y001931D01*
X018579Y001812D02*
X018200Y001812D01*
X019200Y001812D02*
X019579Y001812D01*
X019460Y001931D02*
X019319Y001931D01*
X019390Y002001D02*
X019390Y002416D01*
X019390Y002001D01*
X019390Y002049D02*
X019390Y002049D01*
X019390Y002168D02*
X019390Y002168D01*
X019390Y002286D02*
X019390Y002286D01*
X019390Y002405D02*
X019390Y002405D01*
X019282Y002523D02*
X019497Y002523D01*
X019616Y002642D02*
X019164Y002642D01*
X019148Y002760D02*
X019631Y002760D01*
X019683Y002709D02*
X020097Y002709D01*
X020390Y003001D01*
X020683Y002709D01*
X020390Y002416D01*
X020097Y002709D01*
X019683Y002709D01*
X019512Y002879D02*
X019267Y002879D01*
X019385Y002997D02*
X019394Y002997D01*
X019390Y003001D02*
X019390Y003416D01*
X019390Y003001D01*
X019390Y003116D02*
X019390Y003116D01*
X019390Y003234D02*
X019390Y003234D01*
X019390Y003353D02*
X019390Y003353D01*
X019334Y003471D02*
X019445Y003471D01*
X019564Y003590D02*
X019216Y003590D01*
X019097Y003708D02*
X019682Y003708D01*
X020097Y003708D02*
X020682Y003708D01*
X020564Y003590D02*
X020216Y003590D01*
X020334Y003471D02*
X020445Y003471D01*
X020390Y003416D02*
X020390Y003001D01*
X020390Y003416D01*
X020390Y003353D02*
X020390Y003353D01*
X020390Y003234D02*
X020390Y003234D01*
X020390Y003116D02*
X020390Y003116D01*
X020385Y002997D02*
X020394Y002997D01*
X020512Y002879D02*
X020267Y002879D01*
X020148Y002760D02*
X020631Y002760D01*
X020683Y002709D02*
X021097Y002709D01*
X021390Y003001D01*
X021683Y002709D01*
X021390Y002416D01*
X021097Y002709D01*
X020683Y002709D01*
X020616Y002642D02*
X020164Y002642D01*
X020282Y002523D02*
X020497Y002523D01*
X020390Y002416D02*
X020390Y002001D01*
X020390Y002416D01*
X020390Y002405D02*
X020390Y002405D01*
X020390Y002286D02*
X020390Y002286D01*
X020390Y002168D02*
X020390Y002168D01*
X020390Y002049D02*
X020390Y002049D01*
X020319Y001931D02*
X020460Y001931D01*
X020579Y001812D02*
X020200Y001812D01*
X021200Y001812D02*
X021579Y001812D01*
X021460Y001931D02*
X021319Y001931D01*
X021390Y002001D02*
X021390Y002416D01*
X021390Y002001D01*
X021390Y002049D02*
X021390Y002049D01*
X021390Y002168D02*
X021390Y002168D01*
X021390Y002286D02*
X021390Y002286D01*
X021390Y002405D02*
X021390Y002405D01*
X021282Y002523D02*
X021497Y002523D01*
X021616Y002642D02*
X021164Y002642D01*
X021148Y002760D02*
X021631Y002760D01*
X021683Y002709D02*
X022097Y002709D01*
X022390Y003001D01*
X022683Y002709D01*
X022390Y002416D01*
X022097Y002709D01*
X021683Y002709D01*
X021512Y002879D02*
X021267Y002879D01*
X021385Y002997D02*
X021394Y002997D01*
X021390Y003001D02*
X021390Y003416D01*
X021390Y003001D01*
X021390Y003116D02*
X021390Y003116D01*
X021390Y003234D02*
X021390Y003234D01*
X021390Y003353D02*
X021390Y003353D01*
X021334Y003471D02*
X021445Y003471D01*
X021564Y003590D02*
X021216Y003590D01*
X021097Y003708D02*
X021682Y003708D01*
X022097Y003708D02*
X022682Y003708D01*
X022564Y003590D02*
X022216Y003590D01*
X022334Y003471D02*
X022445Y003471D01*
X022390Y003416D02*
X022390Y003001D01*
X022390Y003416D01*
X022390Y003353D02*
X022390Y003353D01*
X022390Y003234D02*
X022390Y003234D01*
X022390Y003116D02*
X022390Y003116D01*
X022385Y002997D02*
X022394Y002997D01*
X022512Y002879D02*
X022267Y002879D01*
X022148Y002760D02*
X022631Y002760D01*
X022683Y002709D02*
X023097Y002709D01*
X023390Y003001D01*
X023683Y002709D01*
X023390Y002416D01*
X023097Y002709D01*
X022683Y002709D01*
X022616Y002642D02*
X022164Y002642D01*
X022282Y002523D02*
X022497Y002523D01*
X022390Y002416D02*
X022390Y002001D01*
X022390Y002416D01*
X022390Y002405D02*
X022390Y002405D01*
X022390Y002286D02*
X022390Y002286D01*
X022390Y002168D02*
X022390Y002168D01*
X022390Y002049D02*
X022390Y002049D01*
X022319Y001931D02*
X022460Y001931D01*
X022579Y001812D02*
X022200Y001812D01*
X023200Y001812D02*
X023579Y001812D01*
X023460Y001931D02*
X023319Y001931D01*
X023390Y002001D02*
X023390Y002416D01*
X023390Y002001D01*
X023390Y002049D02*
X023390Y002049D01*
X023390Y002168D02*
X023390Y002168D01*
X023390Y002286D02*
X023390Y002286D01*
X023390Y002405D02*
X023390Y002405D01*
X023282Y002523D02*
X023497Y002523D01*
X023616Y002642D02*
X023164Y002642D01*
X023148Y002760D02*
X023631Y002760D01*
X023683Y002709D02*
X024097Y002709D01*
X024390Y003001D01*
X024683Y002709D01*
X024390Y002416D01*
X024097Y002709D01*
X023683Y002709D01*
X023512Y002879D02*
X023267Y002879D01*
X023385Y002997D02*
X023394Y002997D01*
X023390Y003001D02*
X023390Y003416D01*
X023390Y003001D01*
X023390Y003116D02*
X023390Y003116D01*
X023390Y003234D02*
X023390Y003234D01*
X023390Y003353D02*
X023390Y003353D01*
X023334Y003471D02*
X023445Y003471D01*
X023564Y003590D02*
X023216Y003590D01*
X023097Y003708D02*
X023682Y003708D01*
X024097Y003708D02*
X024682Y003708D01*
X024564Y003590D02*
X024216Y003590D01*
X024334Y003471D02*
X024445Y003471D01*
X024390Y003416D02*
X024390Y003001D01*
X024390Y003416D01*
X024390Y003353D02*
X024390Y003353D01*
X024390Y003234D02*
X024390Y003234D01*
X024390Y003116D02*
X024390Y003116D01*
X024385Y002997D02*
X024394Y002997D01*
X024512Y002879D02*
X024267Y002879D01*
X024148Y002760D02*
X024631Y002760D01*
X024683Y002709D02*
X025097Y002709D01*
X025390Y003001D01*
X025683Y002709D01*
X025390Y002416D01*
X025097Y002709D01*
X024683Y002709D01*
X024616Y002642D02*
X024164Y002642D01*
X024282Y002523D02*
X024497Y002523D01*
X024390Y002416D02*
X024390Y002001D01*
X024390Y002416D01*
X024390Y002405D02*
X024390Y002405D01*
X024390Y002286D02*
X024390Y002286D01*
X024390Y002168D02*
X024390Y002168D01*
X024390Y002049D02*
X024390Y002049D01*
X024319Y001931D02*
X024460Y001931D01*
X024579Y001812D02*
X024200Y001812D01*
X025200Y001812D02*
X025579Y001812D01*
X025460Y001931D02*
X025319Y001931D01*
X025390Y002001D02*
X025390Y002416D01*
X025390Y002001D01*
X025390Y002049D02*
X025390Y002049D01*
X025390Y002168D02*
X025390Y002168D01*
X025390Y002286D02*
X025390Y002286D01*
X025390Y002405D02*
X025390Y002405D01*
X025282Y002523D02*
X025497Y002523D01*
X025616Y002642D02*
X025164Y002642D01*
X025148Y002760D02*
X025631Y002760D01*
X025683Y002709D02*
X026097Y002709D01*
X026390Y003001D01*
X026683Y002709D01*
X026390Y002416D01*
X026097Y002709D01*
X025683Y002709D01*
X025512Y002879D02*
X025267Y002879D01*
X025385Y002997D02*
X025394Y002997D01*
X025390Y003001D02*
X025390Y003416D01*
X025390Y003001D01*
X025390Y003116D02*
X025390Y003116D01*
X025390Y003234D02*
X025390Y003234D01*
X025390Y003353D02*
X025390Y003353D01*
X025334Y003471D02*
X025445Y003471D01*
X025564Y003590D02*
X025216Y003590D01*
X025097Y003708D02*
X025682Y003708D01*
X026097Y003708D02*
X026682Y003708D01*
X026564Y003590D02*
X026216Y003590D01*
X026334Y003471D02*
X026445Y003471D01*
X026390Y003416D02*
X026390Y003001D01*
X026390Y003416D01*
X026390Y003353D02*
X026390Y003353D01*
X026390Y003234D02*
X026390Y003234D01*
X026390Y003116D02*
X026390Y003116D01*
X026385Y002997D02*
X026394Y002997D01*
X026512Y002879D02*
X026267Y002879D01*
X026148Y002760D02*
X026631Y002760D01*
X026683Y002709D02*
X027097Y002709D01*
X027390Y003001D01*
X027683Y002709D01*
X027390Y002416D01*
X027097Y002709D01*
X026683Y002709D01*
X026616Y002642D02*
X026164Y002642D01*
X026282Y002523D02*
X026497Y002523D01*
X026390Y002416D02*
X026390Y002001D01*
X026390Y002416D01*
X026390Y002405D02*
X026390Y002405D01*
X026390Y002286D02*
X026390Y002286D01*
X026390Y002168D02*
X026390Y002168D01*
X026390Y002049D02*
X026390Y002049D01*
X026319Y001931D02*
X026460Y001931D01*
X026579Y001812D02*
X026200Y001812D01*
X027200Y001812D02*
X027579Y001812D01*
X027460Y001931D02*
X027319Y001931D01*
X027390Y002001D02*
X027390Y002416D01*
X027390Y002001D01*
X027390Y002049D02*
X027390Y002049D01*
X027390Y002168D02*
X027390Y002168D01*
X027390Y002286D02*
X027390Y002286D01*
X027390Y002405D02*
X027390Y002405D01*
X027282Y002523D02*
X027497Y002523D01*
X027616Y002642D02*
X027164Y002642D01*
X027148Y002760D02*
X027631Y002760D01*
X027683Y002709D02*
X028097Y002709D01*
X028390Y003001D01*
X028683Y002709D01*
X028390Y002416D01*
X028097Y002709D01*
X027683Y002709D01*
X027512Y002879D02*
X027267Y002879D01*
X027385Y002997D02*
X027394Y002997D01*
X027390Y003001D02*
X027390Y003416D01*
X027390Y003001D01*
X027390Y003116D02*
X027390Y003116D01*
X027390Y003234D02*
X027390Y003234D01*
X027390Y003353D02*
X027390Y003353D01*
X027334Y003471D02*
X027445Y003471D01*
X027564Y003590D02*
X027216Y003590D01*
X027097Y003708D02*
X027682Y003708D01*
X028097Y003708D02*
X028682Y003708D01*
X028564Y003590D02*
X028216Y003590D01*
X028334Y003471D02*
X028445Y003471D01*
X028390Y003416D02*
X028390Y003001D01*
X028390Y003416D01*
X028390Y003353D02*
X028390Y003353D01*
X028390Y003234D02*
X028390Y003234D01*
X028390Y003116D02*
X028390Y003116D01*
X028385Y002997D02*
X028394Y002997D01*
X028512Y002879D02*
X028267Y002879D01*
X028148Y002760D02*
X028631Y002760D01*
X028683Y002709D02*
X029097Y002709D01*
X028683Y002709D01*
X028616Y002642D02*
X028164Y002642D01*
X028282Y002523D02*
X028497Y002523D01*
X028390Y002416D02*
X028390Y002001D01*
X028390Y002416D01*
X028390Y002405D02*
X028390Y002405D01*
X028390Y002286D02*
X028390Y002286D01*
X028390Y002168D02*
X028390Y002168D01*
X028390Y002049D02*
X028390Y002049D01*
X028319Y001931D02*
X028460Y001931D01*
X028579Y001812D02*
X028200Y001812D01*
X029200Y001812D02*
X031952Y001812D01*
X031903Y001931D02*
X029319Y001931D01*
X029390Y002049D02*
X031880Y002049D01*
X031880Y002168D02*
X029390Y002168D01*
X029390Y002286D02*
X031903Y002286D01*
X031952Y002405D02*
X029390Y002405D01*
X029282Y002523D02*
X032041Y002523D01*
X032182Y002642D02*
X031569Y002642D01*
X031621Y002663D02*
X031735Y002778D01*
X031797Y002927D01*
X031797Y003090D01*
X031735Y003240D01*
X031621Y003354D01*
X031471Y003416D01*
X031434Y003416D01*
X027710Y007141D01*
X027710Y008076D01*
X027921Y008287D01*
X027990Y008287D01*
X027990Y008286D01*
X028107Y008169D01*
X029152Y008169D01*
X029270Y008286D01*
X029270Y008287D01*
X029665Y008287D01*
X029665Y008249D01*
X029782Y008132D01*
X030577Y008132D01*
X030695Y008249D01*
X030695Y008966D01*
X030577Y009083D01*
X029782Y009083D01*
X029665Y008966D01*
X029665Y008927D01*
X029270Y008927D01*
X029270Y008931D01*
X029152Y009049D01*
X028125Y009049D01*
X027146Y010201D01*
X027121Y010239D01*
X027105Y010250D01*
X027092Y010264D01*
X027052Y010285D01*
X027015Y010310D01*
X026996Y010314D01*
X026979Y010322D01*
X026934Y010326D01*
X019703Y011772D01*
X019621Y011854D01*
X019471Y011916D01*
X019423Y011916D01*
X019324Y011957D01*
X018944Y011957D01*
X018944Y012035D01*
X018827Y012152D01*
X017952Y012152D01*
X017835Y012035D01*
X017835Y011240D01*
X017952Y011122D01*
X018827Y011122D01*
X018944Y011240D01*
X018944Y011317D01*
X019027Y011317D01*
X019044Y011278D01*
X019159Y011163D01*
X019308Y011101D01*
X019471Y011101D01*
X019577Y011145D01*
X026718Y009717D01*
X027511Y008782D01*
X027208Y008480D01*
X027118Y008390D01*
X027070Y008272D01*
X027070Y006945D01*
X027118Y006827D01*
X030982Y002964D01*
X030982Y002927D01*
X031044Y002778D01*
X031159Y002663D01*
X031308Y002601D01*
X031471Y002601D01*
X031621Y002663D01*
X031718Y002760D02*
X035622Y002760D01*
X035605Y002859D02*
X035605Y002859D01*
X035608Y002879D02*
X031777Y002879D01*
X031797Y002997D02*
X035629Y002997D01*
X035650Y003116D02*
X031787Y003116D01*
X031738Y003234D02*
X035686Y003234D01*
X035664Y003195D02*
X035664Y003195D01*
X035755Y003353D02*
X032741Y003353D01*
X032835Y003391D02*
X033007Y003563D01*
X033100Y003787D01*
X033100Y004030D01*
X033007Y004254D01*
X032835Y004426D01*
X032611Y004519D01*
X032368Y004519D01*
X032144Y004426D01*
X031972Y004254D01*
X031880Y004030D01*
X031880Y003787D01*
X031972Y003563D01*
X032144Y003391D01*
X032368Y003299D01*
X032611Y003299D01*
X032835Y003391D01*
X032915Y003471D02*
X035823Y003471D01*
X035952Y003590D02*
X033018Y003590D01*
X033067Y003708D02*
X036093Y003708D01*
X036097Y003712D02*
X036097Y003712D01*
X036413Y003827D02*
X033100Y003827D01*
X033100Y003945D02*
X037680Y003945D01*
X037680Y003827D02*
X036766Y003827D01*
X037082Y003712D02*
X037082Y003712D01*
X037086Y003708D02*
X037680Y003708D01*
X037680Y003590D02*
X037227Y003590D01*
X037344Y003492D02*
X037344Y003492D01*
X037356Y003471D02*
X037671Y003471D01*
X037660Y003353D02*
X037424Y003353D01*
X037493Y003234D02*
X037639Y003234D01*
X037613Y003116D02*
X037529Y003116D01*
X037515Y003195D02*
X037515Y003195D01*
X037550Y002997D02*
X037588Y002997D01*
X037155Y002049D02*
X037134Y002049D01*
X037065Y001931D02*
X036876Y001931D01*
X036973Y001812D02*
X033027Y001812D01*
X033076Y001931D02*
X036303Y001931D01*
X036097Y002005D02*
X036097Y002005D01*
X036045Y002049D02*
X033100Y002049D01*
X033100Y002168D02*
X035904Y002168D01*
X035835Y002225D02*
X035835Y002225D01*
X035800Y002286D02*
X033076Y002286D01*
X033027Y002405D02*
X035732Y002405D01*
X035664Y002523D02*
X032938Y002523D01*
X032797Y002642D02*
X035643Y002642D01*
X036866Y001694D02*
X032937Y001694D01*
X032796Y001575D02*
X036752Y001575D01*
X036621Y001457D02*
X003085Y001457D01*
X003222Y001338D02*
X036477Y001338D01*
X036306Y001220D02*
X003389Y001220D01*
X003580Y001101D02*
X036118Y001101D01*
X035881Y000983D02*
X003806Y000983D01*
X004103Y000864D02*
X035576Y000864D01*
X035079Y000746D02*
X004603Y000746D01*
X002903Y001931D02*
X002656Y001931D01*
X002697Y002005D02*
X002697Y002005D01*
X002645Y002049D02*
X002571Y002049D01*
X002504Y002168D02*
X002500Y002168D01*
X002208Y002879D02*
X002200Y002879D01*
X002229Y002997D02*
X002166Y002997D01*
X002145Y003116D02*
X002250Y003116D01*
X002264Y003195D02*
X002264Y003195D01*
X002286Y003234D02*
X002125Y003234D01*
X002107Y003353D02*
X002355Y003353D01*
X002423Y003471D02*
X002100Y003471D01*
X002100Y003590D02*
X002552Y003590D01*
X002693Y003708D02*
X002100Y003708D01*
X002100Y003827D02*
X003013Y003827D01*
X003366Y003827D02*
X030119Y003827D01*
X030001Y003945D02*
X002100Y003945D01*
X002100Y004064D02*
X029882Y004064D01*
X029764Y004182D02*
X002100Y004182D01*
X002100Y004301D02*
X029645Y004301D01*
X029527Y004419D02*
X002100Y004419D01*
X002100Y004538D02*
X029408Y004538D01*
X029290Y004656D02*
X002100Y004656D01*
X002100Y004775D02*
X029171Y004775D01*
X029053Y004893D02*
X002100Y004893D01*
X002100Y005012D02*
X028934Y005012D01*
X028816Y005130D02*
X002100Y005130D01*
X002100Y005249D02*
X028697Y005249D01*
X028579Y005367D02*
X002100Y005367D01*
X002100Y005486D02*
X028460Y005486D01*
X028342Y005604D02*
X002100Y005604D01*
X002100Y005723D02*
X028223Y005723D01*
X028105Y005841D02*
X002100Y005841D01*
X002100Y005960D02*
X027986Y005960D01*
X027868Y006078D02*
X002100Y006078D01*
X002100Y006197D02*
X008853Y006197D01*
X008870Y006179D02*
X009012Y006120D01*
X009167Y006120D01*
X009309Y006179D01*
X009388Y006259D01*
X010591Y006259D01*
X010670Y006179D01*
X010812Y006120D01*
X010967Y006120D01*
X011109Y006179D01*
X011219Y006289D01*
X011278Y006431D01*
X011278Y006586D01*
X011219Y006728D01*
X011109Y006838D01*
X010967Y006897D01*
X010812Y006897D01*
X010670Y006838D01*
X010591Y006759D01*
X009388Y006759D01*
X009309Y006838D01*
X009167Y006897D01*
X009012Y006897D01*
X008870Y006838D01*
X008761Y006728D01*
X008701Y006586D01*
X008701Y006431D01*
X008761Y006289D01*
X008870Y006179D01*
X008750Y006315D02*
X002100Y006315D01*
X002100Y006434D02*
X008701Y006434D01*
X008701Y006552D02*
X002100Y006552D01*
X002100Y006671D02*
X008737Y006671D01*
X008821Y006789D02*
X002100Y006789D01*
X002100Y006908D02*
X005342Y006908D01*
X005370Y006879D02*
X005512Y006820D01*
X005667Y006820D01*
X005809Y006879D01*
X005919Y006989D01*
X005978Y007131D01*
X005978Y007243D01*
X006102Y007367D01*
X006140Y007459D01*
X006140Y009010D01*
X006219Y009089D01*
X006278Y009231D01*
X006278Y009386D01*
X006219Y009528D01*
X006109Y009638D01*
X005967Y009697D01*
X005812Y009697D01*
X005670Y009638D01*
X005561Y009528D01*
X005501Y009386D01*
X005501Y009231D01*
X005561Y009089D01*
X005640Y009010D01*
X005640Y007612D01*
X005624Y007597D01*
X005512Y007597D01*
X005370Y007538D01*
X005261Y007428D01*
X005201Y007286D01*
X005201Y007131D01*
X005261Y006989D01*
X005370Y006879D01*
X005245Y007026D02*
X002100Y007026D01*
X002100Y007145D02*
X005201Y007145D01*
X005201Y007263D02*
X002100Y007263D01*
X002100Y007382D02*
X005241Y007382D01*
X005332Y007500D02*
X002100Y007500D01*
X002100Y007619D02*
X005640Y007619D01*
X005640Y007737D02*
X002100Y007737D01*
X002100Y007856D02*
X005640Y007856D01*
X005640Y007974D02*
X002100Y007974D01*
X002100Y008093D02*
X005640Y008093D01*
X005640Y008211D02*
X002100Y008211D01*
X002100Y008330D02*
X005640Y008330D01*
X005640Y008448D02*
X002100Y008448D01*
X002100Y008567D02*
X005640Y008567D01*
X005640Y008685D02*
X002100Y008685D01*
X002100Y008804D02*
X005640Y008804D01*
X005640Y008922D02*
X002100Y008922D01*
X002100Y009041D02*
X005609Y009041D01*
X005531Y009159D02*
X002100Y009159D01*
X002100Y009278D02*
X005501Y009278D01*
X005506Y009396D02*
X002100Y009396D01*
X002100Y009515D02*
X005555Y009515D01*
X005665Y009633D02*
X002100Y009633D01*
X002100Y009752D02*
X011129Y009752D01*
X011101Y009686D02*
X011101Y009531D01*
X011161Y009389D01*
X011270Y009279D01*
X011412Y009220D01*
X011567Y009220D01*
X011709Y009279D01*
X011788Y009359D01*
X012791Y009359D01*
X012870Y009279D01*
X013012Y009220D01*
X013167Y009220D01*
X013309Y009279D01*
X013419Y009389D01*
X013478Y009531D01*
X013478Y009686D01*
X013419Y009828D01*
X013309Y009938D01*
X013167Y009997D01*
X013012Y009997D01*
X012870Y009938D01*
X012791Y009859D01*
X011788Y009859D01*
X011709Y009938D01*
X011567Y009997D01*
X011412Y009997D01*
X011270Y009938D01*
X011161Y009828D01*
X011101Y009686D01*
X011101Y009633D02*
X006114Y009633D01*
X006224Y009515D02*
X011108Y009515D01*
X011158Y009396D02*
X006273Y009396D01*
X006278Y009278D02*
X011274Y009278D01*
X011705Y009278D02*
X012874Y009278D01*
X013291Y009059D02*
X010588Y009059D01*
X010509Y009138D01*
X010367Y009197D01*
X010212Y009197D01*
X010070Y009138D01*
X009961Y009028D01*
X009901Y008886D01*
X009901Y008731D01*
X009961Y008589D01*
X010070Y008479D01*
X010212Y008420D01*
X010367Y008420D01*
X010509Y008479D01*
X010588Y008559D01*
X013291Y008559D01*
X013370Y008479D01*
X013512Y008420D01*
X013667Y008420D01*
X013809Y008479D01*
X013919Y008589D01*
X013978Y008731D01*
X013978Y008886D01*
X013919Y009028D01*
X013809Y009138D01*
X013667Y009197D01*
X013512Y009197D01*
X013370Y009138D01*
X013291Y009059D01*
X013422Y009159D02*
X010458Y009159D01*
X010122Y009159D02*
X006248Y009159D01*
X006170Y009041D02*
X009973Y009041D01*
X009917Y008922D02*
X006140Y008922D01*
X006140Y008804D02*
X009901Y008804D01*
X009921Y008685D02*
X006140Y008685D01*
X006140Y008567D02*
X009983Y008567D01*
X010146Y008448D02*
X006784Y008448D01*
X006809Y008438D02*
X006667Y008497D01*
X006512Y008497D01*
X006370Y008438D01*
X006261Y008328D01*
X006201Y008186D01*
X006201Y008031D01*
X006261Y007889D01*
X006370Y007779D01*
X006512Y007720D01*
X006667Y007720D01*
X006809Y007779D01*
X006888Y007859D01*
X011291Y007859D01*
X011370Y007779D01*
X011512Y007720D01*
X011667Y007720D01*
X011809Y007779D01*
X011919Y007889D01*
X011978Y008031D01*
X011978Y008186D01*
X011919Y008328D01*
X011809Y008438D01*
X011667Y008497D01*
X011512Y008497D01*
X011370Y008438D01*
X011291Y008359D01*
X006888Y008359D01*
X006809Y008438D01*
X006395Y008448D02*
X006140Y008448D01*
X006140Y008330D02*
X006262Y008330D01*
X006212Y008211D02*
X006140Y008211D01*
X006140Y008093D02*
X006201Y008093D01*
X006225Y007974D02*
X006140Y007974D01*
X006140Y007856D02*
X006294Y007856D01*
X006140Y007737D02*
X006472Y007737D01*
X006707Y007737D02*
X008969Y007737D01*
X008970Y007738D02*
X008861Y007628D01*
X008801Y007486D01*
X008801Y007331D01*
X008861Y007189D01*
X008970Y007079D01*
X009112Y007020D01*
X009267Y007020D01*
X009409Y007079D01*
X009488Y007159D01*
X010591Y007159D01*
X010670Y007079D01*
X010812Y007020D01*
X010967Y007020D01*
X011109Y007079D01*
X011219Y007189D01*
X011278Y007331D01*
X011278Y007486D01*
X011219Y007628D01*
X011109Y007738D01*
X010967Y007797D01*
X010812Y007797D01*
X010670Y007738D01*
X010591Y007659D01*
X009488Y007659D01*
X009409Y007738D01*
X009267Y007797D01*
X009112Y007797D01*
X008970Y007738D01*
X008857Y007619D02*
X006140Y007619D01*
X006140Y007500D02*
X008807Y007500D01*
X008801Y007382D02*
X006108Y007382D01*
X005998Y007263D02*
X008830Y007263D01*
X008905Y007145D02*
X005978Y007145D01*
X005934Y007026D02*
X009099Y007026D01*
X009280Y007026D02*
X010799Y007026D01*
X010980Y007026D02*
X027070Y007026D01*
X027070Y007145D02*
X011174Y007145D01*
X011249Y007263D02*
X027070Y007263D01*
X027070Y007382D02*
X011278Y007382D01*
X011272Y007500D02*
X027070Y007500D01*
X027070Y007619D02*
X011223Y007619D01*
X011110Y007737D02*
X011472Y007737D01*
X011294Y007856D02*
X006885Y007856D01*
X005837Y006908D02*
X027085Y006908D01*
X027157Y006789D02*
X011158Y006789D01*
X011243Y006671D02*
X027275Y006671D01*
X027394Y006552D02*
X011278Y006552D01*
X011278Y006434D02*
X027512Y006434D01*
X027631Y006315D02*
X011230Y006315D01*
X011126Y006197D02*
X027749Y006197D01*
X028299Y006552D02*
X031113Y006552D01*
X031113Y006434D02*
X028417Y006434D01*
X028536Y006315D02*
X031113Y006315D01*
X031113Y006197D02*
X028654Y006197D01*
X028773Y006078D02*
X031113Y006078D01*
X031113Y005981D02*
X031230Y005864D01*
X031947Y005864D01*
X032064Y005981D01*
X032064Y006776D01*
X031947Y006893D01*
X031908Y006893D01*
X031908Y007182D01*
X032027Y007182D01*
X032144Y007300D01*
X032144Y008095D01*
X032027Y008212D01*
X031152Y008212D01*
X031035Y008095D01*
X031035Y008017D01*
X029270Y008017D01*
X029270Y008021D01*
X029152Y008139D01*
X028107Y008139D01*
X027990Y008021D01*
X027990Y007376D01*
X028107Y007259D01*
X029152Y007259D01*
X029270Y007376D01*
X029270Y007377D01*
X031035Y007377D01*
X031035Y007300D01*
X031152Y007182D01*
X031268Y007182D01*
X031268Y006893D01*
X031230Y006893D01*
X031113Y006776D01*
X031113Y005981D01*
X031134Y005960D02*
X028891Y005960D01*
X029010Y005841D02*
X033378Y005841D01*
X033351Y005869D02*
X033460Y005759D01*
X033602Y005700D01*
X033757Y005700D01*
X033899Y005759D01*
X033908Y005769D01*
X035200Y005769D01*
X035200Y005749D01*
X035317Y005632D01*
X036062Y005632D01*
X036179Y005749D01*
X036179Y006415D01*
X036062Y006532D01*
X035317Y006532D01*
X035200Y006415D01*
X035200Y006409D01*
X033908Y006409D01*
X033899Y006418D01*
X033757Y006477D01*
X033602Y006477D01*
X033460Y006418D01*
X033351Y006308D01*
X033291Y006166D01*
X033291Y006011D01*
X033351Y005869D01*
X033313Y005960D02*
X033089Y005960D01*
X033094Y005965D02*
X033115Y006002D01*
X033126Y006042D01*
X033126Y006319D01*
X032751Y006319D01*
X032751Y006439D01*
X032631Y006439D01*
X032631Y006853D01*
X032394Y006853D01*
X032353Y006843D01*
X032317Y006821D01*
X032287Y006792D01*
X032266Y006755D01*
X032255Y006715D01*
X032255Y006439D01*
X032631Y006439D01*
X032631Y006319D01*
X032255Y006319D01*
X032255Y006042D01*
X032266Y006002D01*
X032287Y005965D01*
X032317Y005936D01*
X032353Y005914D01*
X032394Y005904D01*
X032631Y005904D01*
X032631Y006318D01*
X032751Y006318D01*
X032751Y005904D01*
X032987Y005904D01*
X033028Y005914D01*
X033065Y005936D01*
X033094Y005965D01*
X033126Y006078D02*
X033291Y006078D01*
X033304Y006197D02*
X033126Y006197D01*
X033126Y006315D02*
X033357Y006315D01*
X033498Y006434D02*
X032751Y006434D01*
X032751Y006439D02*
X033126Y006439D01*
X033126Y006715D01*
X033115Y006755D01*
X033094Y006792D01*
X033065Y006821D01*
X033028Y006843D01*
X032987Y006853D01*
X032751Y006853D01*
X032751Y006439D01*
X032751Y006552D02*
X032631Y006552D01*
X032631Y006434D02*
X032064Y006434D01*
X032064Y006552D02*
X032255Y006552D01*
X032255Y006671D02*
X032064Y006671D01*
X032051Y006789D02*
X032286Y006789D01*
X032631Y006789D02*
X032751Y006789D01*
X032751Y006671D02*
X032631Y006671D01*
X032631Y006315D02*
X032751Y006315D01*
X032751Y006197D02*
X032631Y006197D01*
X032631Y006078D02*
X032751Y006078D01*
X032751Y005960D02*
X032631Y005960D01*
X032293Y005960D02*
X032043Y005960D01*
X032064Y006078D02*
X032255Y006078D01*
X032255Y006197D02*
X032064Y006197D01*
X032064Y006315D02*
X032255Y006315D01*
X031908Y006908D02*
X037680Y006908D01*
X037680Y007026D02*
X031908Y007026D01*
X031908Y007145D02*
X037680Y007145D01*
X037680Y007263D02*
X034799Y007263D01*
X034770Y007234D02*
X034888Y007351D01*
X034888Y007455D01*
X035200Y007455D01*
X035200Y007442D01*
X035317Y007325D01*
X036062Y007325D01*
X036179Y007442D01*
X036179Y008108D01*
X036062Y008225D01*
X036010Y008225D01*
X036010Y008362D01*
X036062Y008362D01*
X036179Y008479D01*
X036179Y009145D01*
X036062Y009262D01*
X035317Y009262D01*
X035200Y009145D01*
X035200Y008479D01*
X035317Y008362D01*
X035370Y008362D01*
X035370Y008225D01*
X035317Y008225D01*
X035200Y008108D01*
X035200Y008095D01*
X034888Y008095D01*
X034888Y008226D01*
X034770Y008343D01*
X034211Y008343D01*
X034094Y008226D01*
X034094Y007351D01*
X034211Y007234D01*
X034770Y007234D01*
X034888Y007382D02*
X035261Y007382D01*
X036118Y007382D02*
X037680Y007382D01*
X037680Y007500D02*
X036179Y007500D01*
X036179Y007619D02*
X037680Y007619D01*
X037680Y007737D02*
X036179Y007737D01*
X036179Y007856D02*
X037680Y007856D01*
X037680Y007974D02*
X036179Y007974D01*
X036179Y008093D02*
X037680Y008093D01*
X037680Y008211D02*
X036076Y008211D01*
X036010Y008330D02*
X037680Y008330D01*
X037680Y008448D02*
X036148Y008448D01*
X036179Y008567D02*
X037680Y008567D01*
X037680Y008685D02*
X036179Y008685D01*
X036179Y008804D02*
X037680Y008804D01*
X037680Y008922D02*
X036179Y008922D01*
X036179Y009041D02*
X037680Y009041D01*
X037680Y009159D02*
X036165Y009159D01*
X035214Y009159D02*
X033855Y009159D01*
X033879Y009135D02*
X033762Y009252D01*
X033017Y009252D01*
X032900Y009135D01*
X032900Y009120D01*
X032144Y009120D01*
X032144Y009197D01*
X032027Y009315D01*
X031901Y009315D01*
X031901Y010384D01*
X031979Y010384D01*
X032096Y010501D01*
X032096Y011376D01*
X031979Y011493D01*
X031183Y011493D01*
X031066Y011376D01*
X031066Y010501D01*
X031183Y010384D01*
X031261Y010384D01*
X031261Y009315D01*
X031152Y009315D01*
X031035Y009197D01*
X031035Y008402D01*
X031152Y008285D01*
X032027Y008285D01*
X032144Y008402D01*
X032144Y008480D01*
X032900Y008480D01*
X032900Y008469D01*
X033017Y008352D01*
X033070Y008352D01*
X033070Y008304D01*
X032992Y008226D01*
X032992Y007351D01*
X033109Y007234D01*
X033668Y007234D01*
X033785Y007351D01*
X033785Y008226D01*
X033710Y008301D01*
X033710Y008352D01*
X033762Y008352D01*
X033879Y008469D01*
X033879Y009135D01*
X033879Y009041D02*
X035200Y009041D01*
X035200Y008922D02*
X033879Y008922D01*
X033879Y008804D02*
X035200Y008804D01*
X035200Y008685D02*
X033879Y008685D01*
X033879Y008567D02*
X035200Y008567D01*
X035231Y008448D02*
X033858Y008448D01*
X033710Y008330D02*
X034198Y008330D01*
X034094Y008211D02*
X033785Y008211D01*
X033785Y008093D02*
X034094Y008093D01*
X034094Y007974D02*
X033785Y007974D01*
X033785Y007856D02*
X034094Y007856D01*
X034094Y007737D02*
X033785Y007737D01*
X033785Y007619D02*
X034094Y007619D01*
X034094Y007500D02*
X033785Y007500D01*
X033785Y007382D02*
X034094Y007382D01*
X034182Y007263D02*
X033697Y007263D01*
X033080Y007263D02*
X032107Y007263D01*
X032144Y007382D02*
X032992Y007382D01*
X032992Y007500D02*
X032144Y007500D01*
X032144Y007619D02*
X032992Y007619D01*
X032992Y007737D02*
X032144Y007737D01*
X032144Y007856D02*
X032992Y007856D01*
X032992Y007974D02*
X032144Y007974D01*
X032144Y008093D02*
X032992Y008093D01*
X032992Y008211D02*
X032028Y008211D01*
X032072Y008330D02*
X033070Y008330D01*
X032921Y008448D02*
X032144Y008448D01*
X032144Y009159D02*
X032924Y009159D01*
X032064Y009278D02*
X037680Y009278D01*
X037680Y009396D02*
X031901Y009396D01*
X031901Y009515D02*
X037680Y009515D01*
X037680Y009633D02*
X031901Y009633D01*
X031901Y009752D02*
X037680Y009752D01*
X037680Y009870D02*
X031901Y009870D01*
X031901Y009989D02*
X037680Y009989D01*
X037680Y010107D02*
X036114Y010107D01*
X036062Y010055D02*
X036179Y010172D01*
X036179Y010838D01*
X036062Y010955D01*
X036010Y010955D01*
X036010Y013880D01*
X036019Y013889D01*
X036078Y014031D01*
X036078Y014186D01*
X036019Y014328D01*
X035909Y014438D01*
X035767Y014497D01*
X035612Y014497D01*
X035470Y014438D01*
X035361Y014328D01*
X035301Y014186D01*
X035301Y014031D01*
X035361Y013889D01*
X035370Y013880D01*
X035370Y010955D01*
X035317Y010955D01*
X035200Y010838D01*
X035200Y010172D01*
X035317Y010055D01*
X036062Y010055D01*
X036179Y010226D02*
X037680Y010226D01*
X037680Y010344D02*
X036179Y010344D01*
X036179Y010463D02*
X037680Y010463D01*
X037680Y010581D02*
X036179Y010581D01*
X036179Y010700D02*
X037680Y010700D01*
X037680Y010818D02*
X036179Y010818D01*
X036080Y010937D02*
X037680Y010937D01*
X037680Y011055D02*
X036010Y011055D01*
X036010Y011174D02*
X037680Y011174D01*
X037680Y011292D02*
X036010Y011292D01*
X036010Y011411D02*
X037680Y011411D01*
X037680Y011529D02*
X036010Y011529D01*
X036010Y011648D02*
X037680Y011648D01*
X037680Y011766D02*
X036010Y011766D01*
X036010Y011885D02*
X037680Y011885D01*
X037680Y012003D02*
X036010Y012003D01*
X036010Y012122D02*
X037680Y012122D01*
X037680Y012240D02*
X036010Y012240D01*
X036010Y012359D02*
X037680Y012359D01*
X037680Y012477D02*
X036010Y012477D01*
X036010Y012596D02*
X037680Y012596D01*
X037680Y012714D02*
X036010Y012714D01*
X036010Y012833D02*
X037680Y012833D01*
X037680Y012951D02*
X036010Y012951D01*
X036010Y013070D02*
X037680Y013070D01*
X037680Y013188D02*
X036010Y013188D01*
X036010Y013307D02*
X037680Y013307D01*
X037680Y013425D02*
X036010Y013425D01*
X036010Y013544D02*
X037680Y013544D01*
X037680Y013662D02*
X036010Y013662D01*
X036010Y013781D02*
X037680Y013781D01*
X037680Y013899D02*
X036023Y013899D01*
X036072Y014018D02*
X037680Y014018D01*
X037680Y014136D02*
X036078Y014136D01*
X036049Y014255D02*
X037680Y014255D01*
X037680Y014373D02*
X035974Y014373D01*
X035779Y014492D02*
X037680Y014492D01*
X037680Y014610D02*
X030924Y014610D01*
X030925Y014606D02*
X030914Y014647D01*
X030893Y014684D01*
X030863Y014713D01*
X030826Y014734D01*
X030786Y014745D01*
X030510Y014745D01*
X030510Y014370D01*
X030925Y014370D01*
X030925Y014606D01*
X030925Y014492D02*
X035600Y014492D01*
X035405Y014373D02*
X030925Y014373D01*
X030925Y014250D02*
X030510Y014250D01*
X030510Y014370D01*
X030390Y014370D01*
X030390Y014745D01*
X030114Y014745D01*
X030073Y014734D01*
X030036Y014713D01*
X030007Y014684D01*
X029986Y014647D01*
X029975Y014606D01*
X029975Y014370D01*
X030390Y014370D01*
X030390Y014250D01*
X030510Y014250D01*
X030510Y013874D01*
X030786Y013874D01*
X030826Y013885D01*
X030863Y013906D01*
X030893Y013936D01*
X030914Y013972D01*
X030925Y014013D01*
X030925Y014250D01*
X030925Y014136D02*
X035301Y014136D01*
X035307Y014018D02*
X030925Y014018D01*
X030851Y013899D02*
X035356Y013899D01*
X035370Y013781D02*
X029667Y013781D01*
X029672Y013779D02*
X029554Y013827D01*
X029250Y013827D01*
X029250Y013831D01*
X029132Y013949D01*
X028087Y013949D01*
X027970Y013831D01*
X027970Y013829D01*
X027926Y013829D01*
X027808Y013780D01*
X026803Y012774D01*
X026803Y014300D01*
X026685Y014417D01*
X025654Y014417D01*
X025536Y014300D01*
X025536Y012717D01*
X025654Y012600D01*
X026628Y012600D01*
X026557Y012529D01*
X020410Y012529D01*
X019773Y013088D01*
X019719Y013218D01*
X019670Y013267D01*
X019670Y013580D01*
X019670Y013579D01*
X019812Y013520D01*
X019967Y013520D01*
X020109Y013579D01*
X020188Y013659D01*
X020642Y013659D01*
X020645Y013658D01*
X020692Y013659D01*
X020739Y013659D01*
X020742Y013659D01*
X020744Y013659D01*
X020787Y013678D01*
X020831Y013697D01*
X020833Y013698D01*
X020835Y013699D01*
X020868Y013733D01*
X020902Y013767D01*
X020902Y013769D01*
X023396Y016359D01*
X031490Y016359D01*
X031460Y016328D01*
X031460Y016149D01*
X031950Y016149D01*
X031950Y016069D01*
X031460Y016069D01*
X031460Y015889D01*
X031770Y015579D01*
X031950Y015579D01*
X031950Y016068D01*
X032030Y016068D01*
X032030Y015579D01*
X032209Y015579D01*
X032461Y015831D01*
X032754Y015539D01*
X033226Y015539D01*
X033560Y015872D01*
X033560Y016345D01*
X033296Y016609D01*
X033560Y016872D01*
X033560Y017345D01*
X033296Y017609D01*
X033560Y017872D01*
X033560Y018345D01*
X033296Y018609D01*
X033560Y018872D01*
X033560Y019345D01*
X033296Y019609D01*
X033560Y019872D01*
X033560Y020345D01*
X033226Y020679D01*
X032754Y020679D01*
X032461Y020386D01*
X032209Y020639D01*
X032030Y020639D01*
X032030Y020149D01*
X031950Y020149D01*
X031950Y020639D01*
X031770Y020639D01*
X031460Y020328D01*
X031460Y020149D01*
X031950Y020149D01*
X031950Y020069D01*
X031460Y020069D01*
X031460Y019889D01*
X031712Y019637D01*
X031420Y019345D01*
X031420Y018872D01*
X031684Y018609D01*
X031420Y018345D01*
X031420Y017872D01*
X031684Y017609D01*
X031420Y017345D01*
X031420Y016872D01*
X031434Y016859D01*
X023337Y016859D01*
X023335Y016859D01*
X023287Y016859D01*
X023240Y016859D01*
X023238Y016858D01*
X023235Y016858D01*
X023192Y016839D01*
X023148Y016820D01*
X023146Y016819D01*
X023144Y016818D01*
X023111Y016784D01*
X023078Y016750D01*
X023077Y016748D01*
X020583Y014159D01*
X020188Y014159D01*
X020109Y014238D01*
X019967Y014297D01*
X019812Y014297D01*
X019670Y014238D01*
X019670Y014237D01*
X019670Y015240D01*
X019719Y015289D01*
X019778Y015431D01*
X019778Y015586D01*
X019719Y015728D01*
X019609Y015838D01*
X019467Y015897D01*
X019312Y015897D01*
X019170Y015838D01*
X019061Y015728D01*
X019001Y015586D01*
X019001Y015431D01*
X019061Y015289D01*
X019110Y015240D01*
X019110Y013267D01*
X019061Y013218D01*
X019001Y013076D01*
X019001Y012921D01*
X019061Y012779D01*
X019170Y012669D01*
X019312Y012610D01*
X019347Y012610D01*
X020071Y011975D01*
X020108Y011937D01*
X020118Y011933D01*
X020126Y011926D01*
X020177Y011909D01*
X020226Y011889D01*
X020237Y011889D01*
X020247Y011885D01*
X020300Y011889D01*
X026753Y011889D01*
X026871Y011937D01*
X026961Y012027D01*
X028044Y013111D01*
X028087Y013069D01*
X029132Y013069D01*
X029250Y013186D01*
X029250Y013187D01*
X029358Y013187D01*
X029520Y013026D01*
X029610Y012936D01*
X029727Y012887D01*
X029935Y012887D01*
X029935Y012849D01*
X030052Y012732D01*
X030847Y012732D01*
X030965Y012849D01*
X030965Y013566D01*
X030847Y013683D01*
X030052Y013683D01*
X029935Y013566D01*
X029935Y013527D01*
X029923Y013527D01*
X029672Y013779D01*
X029789Y013662D02*
X030031Y013662D01*
X029935Y013544D02*
X029907Y013544D01*
X030073Y013885D02*
X030114Y013874D01*
X030390Y013874D01*
X030390Y014250D01*
X029975Y014250D01*
X029975Y014013D01*
X029986Y013972D01*
X030007Y013936D01*
X030036Y013906D01*
X030073Y013885D01*
X030049Y013899D02*
X029182Y013899D01*
X029111Y014029D02*
X029148Y014050D01*
X029178Y014080D01*
X029199Y014117D01*
X029210Y014157D01*
X029210Y014359D01*
X028670Y014359D01*
X028670Y014479D01*
X028550Y014479D01*
X028550Y014819D01*
X028149Y014819D01*
X028108Y014808D01*
X028071Y014787D01*
X028042Y014757D01*
X028021Y014720D01*
X028010Y014680D01*
X028010Y014479D01*
X028550Y014479D01*
X028550Y014359D01*
X028010Y014359D01*
X028010Y014157D01*
X028021Y014117D01*
X028042Y014080D01*
X028071Y014050D01*
X028108Y014029D01*
X028149Y014019D01*
X028550Y014019D01*
X028550Y014358D01*
X028670Y014358D01*
X028670Y014019D01*
X029071Y014019D01*
X029111Y014029D01*
X029204Y014136D02*
X029975Y014136D01*
X029975Y014018D02*
X026803Y014018D01*
X026803Y014136D02*
X028015Y014136D01*
X028010Y014255D02*
X026803Y014255D01*
X026730Y014373D02*
X028550Y014373D01*
X028550Y014255D02*
X028670Y014255D01*
X028670Y014373D02*
X029975Y014373D01*
X029975Y014492D02*
X029210Y014492D01*
X029210Y014479D02*
X029210Y014680D01*
X029199Y014720D01*
X029178Y014757D01*
X029148Y014787D01*
X029111Y014808D01*
X029071Y014819D01*
X028670Y014819D01*
X028670Y014479D01*
X029210Y014479D01*
X029210Y014610D02*
X029976Y014610D01*
X030063Y014729D02*
X029194Y014729D01*
X028670Y014729D02*
X028550Y014729D01*
X028550Y014610D02*
X028670Y014610D01*
X028670Y014492D02*
X028550Y014492D01*
X028550Y014136D02*
X028670Y014136D01*
X029210Y014255D02*
X030390Y014255D01*
X030390Y014373D02*
X030510Y014373D01*
X030510Y014255D02*
X035330Y014255D01*
X035370Y013662D02*
X030868Y013662D01*
X030965Y013544D02*
X035370Y013544D01*
X035370Y013425D02*
X030965Y013425D01*
X030965Y013307D02*
X035370Y013307D01*
X035370Y013188D02*
X030965Y013188D01*
X030965Y013070D02*
X035370Y013070D01*
X035370Y012951D02*
X030965Y012951D01*
X030948Y012833D02*
X035370Y012833D01*
X035370Y012714D02*
X029250Y012714D01*
X029250Y012596D02*
X035370Y012596D01*
X035370Y012477D02*
X029250Y012477D01*
X029250Y012359D02*
X035370Y012359D01*
X035370Y012240D02*
X029214Y012240D01*
X029250Y012276D02*
X029132Y012159D01*
X028930Y012159D01*
X028930Y011453D01*
X028969Y011453D01*
X029086Y011336D01*
X029086Y011259D01*
X029963Y011259D01*
X029963Y011376D01*
X030081Y011493D01*
X030876Y011493D01*
X030993Y011376D01*
X030993Y010501D01*
X030876Y010384D01*
X030081Y010384D01*
X029963Y010501D01*
X029963Y010619D01*
X029086Y010619D01*
X029086Y010541D01*
X028969Y010424D01*
X028252Y010424D01*
X028135Y010541D01*
X028135Y011336D01*
X028252Y011453D01*
X028290Y011453D01*
X028290Y012159D01*
X028087Y012159D01*
X027970Y012276D01*
X027970Y012921D01*
X028087Y013039D01*
X029132Y013039D01*
X029250Y012921D01*
X029250Y012276D01*
X028930Y012122D02*
X035370Y012122D01*
X035370Y012003D02*
X028930Y012003D01*
X028930Y011885D02*
X035370Y011885D01*
X035370Y011766D02*
X028930Y011766D01*
X028930Y011648D02*
X035370Y011648D01*
X035370Y011529D02*
X028930Y011529D01*
X029012Y011411D02*
X029998Y011411D01*
X029963Y011292D02*
X029086Y011292D01*
X028290Y011529D02*
X020919Y011529D01*
X021511Y011411D02*
X027201Y011411D01*
X027212Y011413D02*
X027171Y011403D01*
X027135Y011381D01*
X027105Y011352D01*
X027084Y011315D01*
X027073Y011275D01*
X027073Y010999D01*
X027448Y010999D01*
X027448Y011413D01*
X027212Y011413D01*
X027078Y011292D02*
X022104Y011292D01*
X022696Y011174D02*
X027073Y011174D01*
X027073Y011055D02*
X023289Y011055D01*
X023881Y010937D02*
X027448Y010937D01*
X027448Y010879D02*
X027448Y010999D01*
X027568Y010999D01*
X027568Y011413D01*
X027805Y011413D01*
X027846Y011403D01*
X027882Y011381D01*
X027912Y011352D01*
X027933Y011315D01*
X027944Y011275D01*
X027944Y010999D01*
X027568Y010999D01*
X027568Y010879D01*
X027568Y010878D02*
X027568Y010464D01*
X027805Y010464D01*
X027846Y010474D01*
X027882Y010496D01*
X027912Y010525D01*
X027933Y010562D01*
X027944Y010602D01*
X027944Y010879D01*
X027568Y010879D01*
X027568Y010878D02*
X027448Y010878D01*
X027448Y010464D01*
X027212Y010464D01*
X027171Y010474D01*
X027135Y010496D01*
X027105Y010525D01*
X027084Y010562D01*
X027073Y010602D01*
X027073Y010879D01*
X027448Y010879D01*
X027448Y010818D02*
X027568Y010818D01*
X027568Y010700D02*
X027448Y010700D01*
X027448Y010581D02*
X027568Y010581D01*
X027938Y010581D02*
X028135Y010581D01*
X028135Y010700D02*
X027944Y010700D01*
X027944Y010818D02*
X028135Y010818D01*
X028135Y010937D02*
X027568Y010937D01*
X027568Y011055D02*
X027448Y011055D01*
X027448Y011174D02*
X027568Y011174D01*
X027568Y011292D02*
X027448Y011292D01*
X027448Y011411D02*
X027568Y011411D01*
X027816Y011411D02*
X028209Y011411D01*
X028135Y011292D02*
X027939Y011292D01*
X027944Y011174D02*
X028135Y011174D01*
X028135Y011055D02*
X027944Y011055D01*
X028213Y010463D02*
X026251Y010463D01*
X026844Y010344D02*
X031261Y010344D01*
X031261Y010226D02*
X027130Y010226D01*
X027226Y010107D02*
X029760Y010107D01*
X029766Y010113D02*
X029737Y010084D01*
X029716Y010047D01*
X029705Y010006D01*
X029705Y009770D01*
X030120Y009770D01*
X030120Y010145D01*
X029844Y010145D01*
X029803Y010134D01*
X029766Y010113D01*
X029705Y009989D02*
X027326Y009989D01*
X027427Y009870D02*
X028075Y009870D01*
X028062Y009857D02*
X028041Y009820D01*
X028030Y009780D01*
X028030Y009579D01*
X028570Y009579D01*
X028570Y009919D01*
X028169Y009919D01*
X028128Y009908D01*
X028091Y009887D01*
X028062Y009857D01*
X028030Y009752D02*
X027528Y009752D01*
X027628Y009633D02*
X028030Y009633D01*
X028030Y009459D02*
X028030Y009257D01*
X028041Y009217D01*
X028062Y009180D01*
X028091Y009150D01*
X028128Y009129D01*
X028169Y009119D01*
X028570Y009119D01*
X028570Y009458D01*
X028690Y009458D01*
X028690Y009119D01*
X029091Y009119D01*
X029131Y009129D01*
X029168Y009150D01*
X029198Y009180D01*
X029219Y009217D01*
X029230Y009257D01*
X029230Y009459D01*
X028690Y009459D01*
X028690Y009579D01*
X028570Y009579D01*
X028570Y009459D01*
X028030Y009459D01*
X028030Y009396D02*
X027830Y009396D01*
X027930Y009278D02*
X028030Y009278D01*
X028031Y009159D02*
X028083Y009159D01*
X027729Y009515D02*
X028570Y009515D01*
X028570Y009633D02*
X028690Y009633D01*
X028690Y009579D02*
X028690Y009919D01*
X029091Y009919D01*
X029131Y009908D01*
X029168Y009887D01*
X029198Y009857D01*
X029219Y009820D01*
X029230Y009780D01*
X029230Y009579D01*
X028690Y009579D01*
X028690Y009515D02*
X029705Y009515D01*
X029705Y009413D02*
X029716Y009372D01*
X029737Y009336D01*
X029766Y009306D01*
X029803Y009285D01*
X029844Y009274D01*
X030120Y009274D01*
X030120Y009650D01*
X030240Y009650D01*
X030240Y009770D01*
X030655Y009770D01*
X030655Y010006D01*
X030644Y010047D01*
X030623Y010084D01*
X030593Y010113D01*
X030556Y010134D01*
X030516Y010145D01*
X030240Y010145D01*
X030240Y009770D01*
X030120Y009770D01*
X030120Y009650D01*
X029705Y009650D01*
X029705Y009413D01*
X029709Y009396D02*
X029230Y009396D01*
X029230Y009278D02*
X029831Y009278D01*
X029739Y009041D02*
X029160Y009041D01*
X029176Y009159D02*
X031035Y009159D01*
X031035Y009041D02*
X030620Y009041D01*
X030695Y008922D02*
X031035Y008922D01*
X031035Y008804D02*
X030695Y008804D01*
X030695Y008685D02*
X031035Y008685D01*
X031035Y008567D02*
X030695Y008567D01*
X030695Y008448D02*
X031035Y008448D01*
X031108Y008330D02*
X030695Y008330D01*
X030657Y008211D02*
X031151Y008211D01*
X031035Y008093D02*
X029198Y008093D01*
X029195Y008211D02*
X029703Y008211D01*
X030120Y009278D02*
X030240Y009278D01*
X030240Y009274D02*
X030516Y009274D01*
X030556Y009285D01*
X030593Y009306D01*
X030623Y009336D01*
X030644Y009372D01*
X030655Y009413D01*
X030655Y009650D01*
X030240Y009650D01*
X030240Y009274D01*
X030240Y009396D02*
X030120Y009396D01*
X030120Y009515D02*
X030240Y009515D01*
X030240Y009633D02*
X030120Y009633D01*
X030120Y009752D02*
X029230Y009752D01*
X029230Y009633D02*
X029705Y009633D01*
X029705Y009870D02*
X029184Y009870D01*
X028690Y009870D02*
X028570Y009870D01*
X028570Y009752D02*
X028690Y009752D01*
X028690Y009396D02*
X028570Y009396D01*
X028570Y009278D02*
X028690Y009278D01*
X028690Y009159D02*
X028570Y009159D01*
X027493Y008804D02*
X026823Y008804D01*
X026823Y008922D02*
X027392Y008922D01*
X027292Y009041D02*
X026823Y009041D01*
X026823Y009159D02*
X027191Y009159D01*
X027091Y009278D02*
X026823Y009278D01*
X026823Y009396D02*
X026990Y009396D01*
X026889Y009515D02*
X026708Y009515D01*
X026705Y009517D02*
X025674Y009517D01*
X025556Y009400D01*
X025556Y007817D01*
X025674Y007700D01*
X026705Y007700D01*
X026823Y007817D01*
X026823Y009400D01*
X026705Y009517D01*
X026789Y009633D02*
X013478Y009633D01*
X013471Y009515D02*
X025671Y009515D01*
X025556Y009396D02*
X013422Y009396D01*
X013305Y009278D02*
X025556Y009278D01*
X025556Y009159D02*
X013758Y009159D01*
X013906Y009041D02*
X025556Y009041D01*
X025556Y008922D02*
X013963Y008922D01*
X013978Y008804D02*
X025556Y008804D01*
X025556Y008685D02*
X013959Y008685D01*
X013896Y008567D02*
X025556Y008567D01*
X025556Y008448D02*
X013734Y008448D01*
X013446Y008448D02*
X011784Y008448D01*
X011917Y008330D02*
X025556Y008330D01*
X025556Y008211D02*
X011967Y008211D01*
X011978Y008093D02*
X025556Y008093D01*
X025556Y007974D02*
X011954Y007974D01*
X011885Y007856D02*
X025556Y007856D01*
X025636Y007737D02*
X011707Y007737D01*
X010669Y007737D02*
X009410Y007737D01*
X009474Y007145D02*
X010605Y007145D01*
X010621Y006789D02*
X009358Y006789D01*
X009326Y006197D02*
X010653Y006197D01*
X010434Y008448D02*
X011395Y008448D01*
X011202Y009870D02*
X002100Y009870D01*
X002100Y009989D02*
X008061Y009989D01*
X008070Y009979D02*
X008212Y009920D01*
X008367Y009920D01*
X008509Y009979D01*
X008619Y010089D01*
X008626Y010105D01*
X010249Y010400D01*
X010270Y010379D01*
X010412Y010320D01*
X010567Y010320D01*
X010709Y010379D01*
X010819Y010489D01*
X010878Y010631D01*
X010878Y010786D01*
X010819Y010928D01*
X010709Y011038D01*
X010567Y011097D01*
X010412Y011097D01*
X010270Y011038D01*
X010161Y010928D01*
X010154Y010912D01*
X008530Y010617D01*
X008509Y010638D01*
X008367Y010697D01*
X008212Y010697D01*
X008070Y010638D01*
X007961Y010528D01*
X007901Y010386D01*
X007901Y010231D01*
X007961Y010089D01*
X008070Y009979D01*
X007953Y010107D02*
X002100Y010107D01*
X002100Y010226D02*
X007904Y010226D01*
X007901Y010344D02*
X002100Y010344D01*
X002100Y010463D02*
X007933Y010463D01*
X008013Y010581D02*
X002100Y010581D01*
X002100Y010700D02*
X007650Y010700D01*
X007670Y010679D02*
X007812Y010620D01*
X007967Y010620D01*
X008109Y010679D01*
X008219Y010789D01*
X008232Y010821D01*
X008960Y010989D01*
X008970Y010979D01*
X009112Y010920D01*
X009267Y010920D01*
X009409Y010979D01*
X009519Y011089D01*
X009578Y011231D01*
X009578Y011386D01*
X009519Y011528D01*
X009409Y011638D01*
X009267Y011697D01*
X009112Y011697D01*
X008970Y011638D01*
X008861Y011528D01*
X008847Y011496D01*
X008119Y011328D01*
X008109Y011338D01*
X007967Y011397D01*
X007812Y011397D01*
X007670Y011338D01*
X007561Y011228D01*
X007501Y011086D01*
X007501Y010931D01*
X007561Y010789D01*
X007670Y010679D01*
X007548Y010818D02*
X002100Y010818D01*
X002100Y010937D02*
X007501Y010937D01*
X007501Y011055D02*
X002100Y011055D01*
X002100Y011174D02*
X007538Y011174D01*
X007624Y011292D02*
X002100Y011292D01*
X002100Y011411D02*
X008475Y011411D01*
X008861Y011529D02*
X002100Y011529D01*
X002100Y011648D02*
X008994Y011648D01*
X009012Y011720D02*
X009167Y011720D01*
X009309Y011779D01*
X009419Y011889D01*
X009478Y012031D01*
X009478Y012186D01*
X009419Y012328D01*
X009309Y012438D01*
X009167Y012497D01*
X009091Y012497D01*
X008528Y013125D01*
X008528Y013246D01*
X008469Y013388D01*
X008359Y013498D01*
X008217Y013557D01*
X008062Y013557D01*
X007920Y013498D01*
X007811Y013388D01*
X007751Y013246D01*
X007751Y013091D01*
X007811Y012949D01*
X007920Y012839D01*
X008062Y012780D01*
X008138Y012780D01*
X008701Y012152D01*
X008701Y012031D01*
X008761Y011889D01*
X008870Y011779D01*
X009012Y011720D01*
X008902Y011766D02*
X002100Y011766D01*
X002100Y011885D02*
X008765Y011885D01*
X008713Y012003D02*
X002100Y012003D01*
X002100Y012122D02*
X005368Y012122D01*
X005410Y012079D02*
X005552Y012020D01*
X005707Y012020D01*
X005849Y012079D01*
X005918Y012149D01*
X006147Y012149D01*
X006155Y012146D01*
X006198Y012149D01*
X006241Y012149D01*
X006250Y012152D01*
X006259Y012153D01*
X006297Y012172D01*
X006337Y012188D01*
X006343Y012194D01*
X006351Y012198D01*
X006380Y012231D01*
X006410Y012261D01*
X006413Y012269D01*
X008480Y014631D01*
X008510Y014661D01*
X008513Y014669D01*
X008519Y014676D01*
X008533Y014717D01*
X008550Y014757D01*
X008550Y014766D01*
X008552Y014774D01*
X008550Y014817D01*
X008550Y016220D01*
X008619Y016289D01*
X008678Y016431D01*
X008678Y016586D01*
X008619Y016728D01*
X008509Y016838D01*
X008367Y016897D01*
X008212Y016897D01*
X008070Y016838D01*
X007961Y016728D01*
X007901Y016586D01*
X007901Y016431D01*
X007961Y016289D01*
X008030Y016220D01*
X008030Y014906D01*
X006072Y012669D01*
X005918Y012669D01*
X005849Y012738D01*
X005707Y012797D01*
X005552Y012797D01*
X005410Y012738D01*
X005301Y012628D01*
X005241Y012486D01*
X005241Y012331D01*
X005301Y012189D01*
X005410Y012079D01*
X005279Y012240D02*
X002100Y012240D01*
X002100Y012359D02*
X005241Y012359D01*
X005241Y012477D02*
X002100Y012477D01*
X002100Y012596D02*
X005287Y012596D01*
X005386Y012714D02*
X002100Y012714D01*
X002100Y012833D02*
X006215Y012833D01*
X006319Y012951D02*
X002100Y012951D01*
X002100Y013070D02*
X003678Y013070D01*
X003713Y013055D02*
X003867Y013055D01*
X004009Y013114D01*
X004118Y013223D01*
X004177Y013365D01*
X004177Y013519D01*
X004118Y013662D01*
X004009Y013771D01*
X003867Y013830D01*
X003713Y013830D01*
X003570Y013771D01*
X003461Y013662D01*
X003402Y013519D01*
X003402Y013365D01*
X003461Y013223D01*
X003570Y013114D01*
X003713Y013055D01*
X003901Y013070D02*
X006423Y013070D01*
X006526Y013188D02*
X004083Y013188D01*
X004152Y013307D02*
X006630Y013307D01*
X006734Y013425D02*
X004177Y013425D01*
X004167Y013544D02*
X006837Y013544D01*
X006941Y013662D02*
X004117Y013662D01*
X003985Y013781D02*
X007045Y013781D01*
X007148Y013899D02*
X002100Y013899D01*
X002100Y013781D02*
X003594Y013781D01*
X003462Y013662D02*
X002100Y013662D01*
X002100Y013544D02*
X003412Y013544D01*
X003402Y013425D02*
X002100Y013425D01*
X002100Y013307D02*
X003427Y013307D01*
X003496Y013188D02*
X002100Y013188D01*
X002100Y014018D02*
X007252Y014018D01*
X007356Y014136D02*
X002100Y014136D01*
X002100Y014255D02*
X007459Y014255D01*
X007563Y014373D02*
X002100Y014373D01*
X002100Y014492D02*
X007667Y014492D01*
X007770Y014610D02*
X002100Y014610D01*
X002100Y014729D02*
X007874Y014729D01*
X007978Y014847D02*
X004010Y014847D01*
X004009Y014846D02*
X004118Y014955D01*
X004177Y015098D01*
X004177Y015252D01*
X004118Y015394D01*
X004009Y015503D01*
X003867Y015562D01*
X003713Y015562D01*
X003570Y015503D01*
X003461Y015394D01*
X003402Y015252D01*
X003402Y015098D01*
X003461Y014955D01*
X003570Y014846D01*
X003713Y014787D01*
X003867Y014787D01*
X004009Y014846D01*
X004122Y014966D02*
X008030Y014966D01*
X008030Y015084D02*
X004171Y015084D01*
X004177Y015203D02*
X008030Y015203D01*
X008030Y015321D02*
X004148Y015321D01*
X004072Y015440D02*
X008030Y015440D01*
X008030Y015558D02*
X003876Y015558D01*
X003703Y015558D02*
X002100Y015558D01*
X002100Y015440D02*
X003507Y015440D01*
X003431Y015321D02*
X002100Y015321D01*
X002100Y015203D02*
X003402Y015203D01*
X003408Y015084D02*
X002100Y015084D01*
X002100Y014966D02*
X003457Y014966D01*
X003570Y014847D02*
X002100Y014847D01*
X002100Y015677D02*
X008030Y015677D01*
X008030Y015795D02*
X002100Y015795D01*
X002100Y015914D02*
X008030Y015914D01*
X008030Y016032D02*
X002100Y016032D01*
X002100Y016151D02*
X008030Y016151D01*
X007980Y016269D02*
X002100Y016269D01*
X002100Y016388D02*
X007920Y016388D01*
X007901Y016506D02*
X002100Y016506D01*
X002100Y016625D02*
X007918Y016625D01*
X007975Y016743D02*
X002100Y016743D01*
X002100Y016862D02*
X008128Y016862D01*
X008451Y016862D02*
X031430Y016862D01*
X031420Y016980D02*
X029540Y016980D01*
X029509Y016949D02*
X029619Y017059D01*
X029678Y017201D01*
X029678Y017356D01*
X029619Y017498D01*
X029509Y017608D01*
X029367Y017667D01*
X029212Y017667D01*
X029070Y017608D01*
X028991Y017529D01*
X024388Y017529D01*
X024309Y017608D01*
X024167Y017667D01*
X024012Y017667D01*
X023870Y017608D01*
X023761Y017498D01*
X023701Y017356D01*
X023701Y017201D01*
X023761Y017059D01*
X023870Y016949D01*
X024012Y016890D01*
X024167Y016890D01*
X024309Y016949D01*
X024388Y017029D01*
X028991Y017029D01*
X029070Y016949D01*
X029212Y016890D01*
X029367Y016890D01*
X029509Y016949D01*
X029635Y017099D02*
X031420Y017099D01*
X031420Y017217D02*
X029678Y017217D01*
X029678Y017336D02*
X031420Y017336D01*
X031529Y017454D02*
X029637Y017454D01*
X029544Y017573D02*
X031648Y017573D01*
X031601Y017691D02*
X019221Y017691D01*
X019209Y017679D02*
X019319Y017789D01*
X019378Y017931D01*
X019378Y018043D01*
X019993Y018659D01*
X029291Y018659D01*
X029370Y018579D01*
X029512Y018520D01*
X029512Y018521D02*
X029126Y018521D01*
X029109Y018538D02*
X028967Y018597D01*
X028812Y018597D01*
X028670Y018538D01*
X028591Y018459D01*
X024688Y018459D01*
X024609Y018538D01*
X024467Y018597D01*
X024312Y018597D01*
X024170Y018538D01*
X024061Y018428D01*
X024001Y018286D01*
X024001Y018131D01*
X024061Y017989D01*
X024170Y017879D01*
X024312Y017820D01*
X024467Y017820D01*
X024609Y017879D01*
X024688Y017959D01*
X028591Y017959D01*
X028670Y017879D01*
X028812Y017820D01*
X028967Y017820D01*
X029109Y017879D01*
X029219Y017989D01*
X029278Y018131D01*
X029278Y018286D01*
X029219Y018428D01*
X029109Y018538D01*
X029230Y018402D02*
X031477Y018402D01*
X031420Y018284D02*
X029278Y018284D01*
X029278Y018165D02*
X031420Y018165D01*
X031420Y018047D02*
X029243Y018047D01*
X029158Y017928D02*
X031420Y017928D01*
X031482Y017810D02*
X019327Y017810D01*
X019376Y017928D02*
X024121Y017928D01*
X024037Y018047D02*
X019381Y018047D01*
X019500Y018165D02*
X024001Y018165D01*
X024001Y018284D02*
X019618Y018284D01*
X019737Y018402D02*
X024050Y018402D01*
X024153Y018521D02*
X019855Y018521D01*
X019974Y018639D02*
X029310Y018639D01*
X029512Y018520D02*
X029667Y018520D01*
X029809Y018579D01*
X029919Y018689D01*
X029978Y018831D01*
X029978Y018986D01*
X029919Y019128D01*
X029809Y019238D01*
X029667Y019297D01*
X029512Y019297D01*
X029370Y019238D01*
X029291Y019159D01*
X019840Y019159D01*
X019748Y019120D01*
X019240Y018612D01*
X019240Y018958D01*
X019202Y019050D01*
X018943Y019309D01*
X019097Y019309D01*
X019390Y019601D01*
X019683Y019309D01*
X020097Y019309D01*
X020390Y019601D01*
X020683Y019309D01*
X021097Y019309D01*
X021390Y019601D01*
X021683Y019309D01*
X022097Y019309D01*
X022390Y019601D01*
X022683Y019309D01*
X023097Y019309D01*
X023390Y019601D01*
X023683Y019309D01*
X024097Y019309D01*
X024390Y019601D01*
X024683Y019309D01*
X025097Y019309D01*
X025390Y019601D01*
X025683Y019309D01*
X026097Y019309D01*
X026390Y019601D01*
X026683Y019309D01*
X027097Y019309D01*
X027390Y019601D01*
X027683Y019309D01*
X028097Y019309D01*
X028390Y019601D01*
X028390Y020016D01*
X028097Y020309D01*
X028390Y020601D01*
X028683Y020309D01*
X029097Y020309D01*
X029390Y020601D01*
X029390Y021016D01*
X029097Y021309D01*
X028683Y021309D01*
X028390Y021016D01*
X028390Y020601D01*
X028390Y021016D01*
X028097Y021309D01*
X027683Y021309D01*
X027390Y021016D01*
X027097Y021309D01*
X026683Y021309D01*
X026390Y021016D01*
X026097Y021309D01*
X025683Y021309D01*
X025390Y021016D01*
X025097Y021309D01*
X024683Y021309D01*
X024390Y021016D01*
X024097Y021309D01*
X023683Y021309D01*
X023390Y021016D01*
X023097Y021309D01*
X022683Y021309D01*
X022390Y021016D01*
X022097Y021309D01*
X021683Y021309D01*
X021390Y021016D01*
X021097Y021309D01*
X020683Y021309D01*
X020390Y021016D01*
X020097Y021309D01*
X019683Y021309D01*
X019390Y021016D01*
X019390Y020601D01*
X019683Y020309D01*
X019390Y020016D01*
X019097Y020309D01*
X018683Y020309D01*
X018563Y020189D01*
X018302Y020450D01*
X018270Y020482D01*
X018390Y020601D01*
X018390Y021016D01*
X018097Y021309D01*
X017683Y021309D01*
X017390Y021016D01*
X017097Y021309D01*
X016683Y021309D01*
X016390Y021016D01*
X016390Y020601D01*
X016683Y020309D01*
X016390Y020016D01*
X016390Y019601D01*
X016683Y019309D01*
X017097Y019309D01*
X017390Y019601D01*
X017683Y019309D01*
X018097Y019309D01*
X018171Y019383D01*
X018178Y019367D01*
X018248Y019297D01*
X018740Y018805D01*
X018740Y018307D01*
X018661Y018228D01*
X018601Y018086D01*
X018601Y017931D01*
X018661Y017789D01*
X018770Y017679D01*
X018912Y017620D01*
X019067Y017620D01*
X019209Y017679D01*
X018758Y017691D02*
X002100Y017691D01*
X002100Y017573D02*
X023835Y017573D01*
X023742Y017454D02*
X002100Y017454D01*
X002100Y017336D02*
X023701Y017336D01*
X023701Y017217D02*
X002100Y017217D01*
X002100Y017099D02*
X023744Y017099D01*
X023839Y016980D02*
X002100Y016980D01*
X002100Y017810D02*
X018652Y017810D01*
X018603Y017928D02*
X002100Y017928D01*
X002100Y018047D02*
X018601Y018047D01*
X018634Y018165D02*
X002100Y018165D01*
X002100Y018284D02*
X018716Y018284D01*
X018740Y018402D02*
X002100Y018402D01*
X002100Y018521D02*
X018740Y018521D01*
X018740Y018639D02*
X002100Y018639D01*
X002100Y018758D02*
X018740Y018758D01*
X018669Y018876D02*
X002100Y018876D01*
X002100Y018995D02*
X018550Y018995D01*
X018432Y019113D02*
X002100Y019113D01*
X002100Y019232D02*
X002900Y019232D01*
X002697Y019305D02*
X002697Y019305D01*
X002644Y019350D02*
X002100Y019350D01*
X002100Y019469D02*
X002503Y019469D01*
X002435Y019525D02*
X002435Y019525D01*
X002399Y019587D02*
X002103Y019587D01*
X002111Y019706D02*
X002331Y019706D01*
X002264Y019824D02*
X002132Y019824D01*
X002152Y019943D02*
X002243Y019943D01*
X002222Y020061D02*
X002178Y020061D01*
X002522Y020891D02*
X002553Y020891D01*
X002601Y021009D02*
X002694Y021009D01*
X002697Y021012D02*
X002697Y021012D01*
X002685Y021128D02*
X003016Y021128D01*
X002778Y021246D02*
X009620Y021246D01*
X009683Y021309D02*
X009390Y021016D01*
X009390Y020601D01*
X009683Y020309D01*
X010097Y020309D01*
X010390Y020601D01*
X010683Y020309D01*
X011097Y020309D01*
X011390Y020601D01*
X011683Y020309D01*
X012097Y020309D01*
X012390Y020601D01*
X012683Y020309D01*
X013097Y020309D01*
X013390Y020601D01*
X013683Y020309D01*
X014097Y020309D01*
X014390Y020601D01*
X014683Y020309D01*
X015097Y020309D01*
X015390Y020601D01*
X015683Y020309D01*
X016097Y020309D01*
X016390Y020601D01*
X016390Y021016D01*
X016097Y021309D01*
X015683Y021309D01*
X015390Y021016D01*
X015390Y020601D01*
X015390Y021016D01*
X015097Y021309D01*
X014683Y021309D01*
X014390Y021016D01*
X014390Y020601D01*
X014390Y021016D01*
X014097Y021309D01*
X013683Y021309D01*
X013390Y021016D01*
X013390Y020601D01*
X013390Y021016D01*
X013097Y021309D01*
X012683Y021309D01*
X012390Y021016D01*
X012390Y020601D01*
X012390Y021016D01*
X012097Y021309D01*
X011683Y021309D01*
X011390Y021016D01*
X011390Y020601D01*
X011390Y021016D01*
X011097Y021309D01*
X010683Y021309D01*
X010390Y021016D01*
X010390Y020601D01*
X010390Y021016D01*
X010097Y021309D01*
X009683Y021309D01*
X009502Y021128D02*
X003363Y021128D01*
X003682Y021012D02*
X003682Y021012D01*
X003685Y021009D02*
X009390Y021009D01*
X009390Y020891D02*
X003826Y020891D01*
X003944Y020792D02*
X003944Y020792D01*
X003955Y020772D02*
X009390Y020772D01*
X009390Y020654D02*
X004024Y020654D01*
X004092Y020535D02*
X009456Y020535D01*
X009574Y020417D02*
X004129Y020417D01*
X004115Y020495D02*
X004115Y020495D01*
X004150Y020298D02*
X009672Y020298D01*
X009683Y020309D02*
X009390Y020016D01*
X009390Y019601D01*
X009683Y019309D01*
X010097Y019309D01*
X010390Y019601D01*
X010683Y019309D01*
X011097Y019309D01*
X011390Y019601D01*
X011683Y019309D01*
X012097Y019309D01*
X012390Y019601D01*
X012683Y019309D01*
X013097Y019309D01*
X013390Y019601D01*
X013683Y019309D01*
X014097Y019309D01*
X014390Y019601D01*
X014683Y019309D01*
X015097Y019309D01*
X015390Y019601D01*
X015683Y019309D01*
X016097Y019309D01*
X016390Y019601D01*
X016390Y020016D01*
X016097Y020309D01*
X015683Y020309D01*
X015390Y020016D01*
X015390Y019601D01*
X015390Y020016D01*
X015097Y020309D01*
X014683Y020309D01*
X014390Y020016D01*
X014390Y019601D01*
X014390Y020016D01*
X014097Y020309D01*
X013683Y020309D01*
X013390Y020016D01*
X013390Y019601D01*
X013390Y020016D01*
X013097Y020309D01*
X012683Y020309D01*
X012390Y020016D01*
X012390Y019601D01*
X012390Y020016D01*
X012097Y020309D01*
X011683Y020309D01*
X011390Y020016D01*
X011390Y019601D01*
X011390Y020016D01*
X011097Y020309D01*
X010683Y020309D01*
X010390Y020016D01*
X010390Y019601D01*
X010390Y020016D01*
X010097Y020309D01*
X009683Y020309D01*
X009554Y020180D02*
X004171Y020180D01*
X004175Y020159D02*
X004175Y020159D01*
X004157Y020061D02*
X009435Y020061D01*
X009390Y019943D02*
X004136Y019943D01*
X004116Y019824D02*
X009390Y019824D01*
X009390Y019706D02*
X004048Y019706D01*
X004115Y019822D02*
X004115Y019822D01*
X003980Y019587D02*
X009404Y019587D01*
X009522Y019469D02*
X003876Y019469D01*
X003944Y019525D02*
X003944Y019525D01*
X003735Y019350D02*
X009641Y019350D01*
X010138Y019350D02*
X010641Y019350D01*
X010522Y019469D02*
X010257Y019469D01*
X010375Y019587D02*
X010404Y019587D01*
X010390Y019706D02*
X010390Y019706D01*
X010390Y019824D02*
X010390Y019824D01*
X010390Y019943D02*
X010390Y019943D01*
X010344Y020061D02*
X010435Y020061D01*
X010554Y020180D02*
X010226Y020180D01*
X010107Y020298D02*
X010672Y020298D01*
X010574Y020417D02*
X010205Y020417D01*
X010323Y020535D02*
X010456Y020535D01*
X010390Y020654D02*
X010390Y020654D01*
X010390Y020772D02*
X010390Y020772D01*
X010390Y020891D02*
X010390Y020891D01*
X010390Y021009D02*
X010390Y021009D01*
X010278Y021128D02*
X010502Y021128D01*
X010620Y021246D02*
X010159Y021246D01*
X011159Y021246D02*
X011620Y021246D01*
X011502Y021128D02*
X011278Y021128D01*
X011390Y021009D02*
X011390Y021009D01*
X011390Y020891D02*
X011390Y020891D01*
X011390Y020772D02*
X011390Y020772D01*
X011390Y020654D02*
X011390Y020654D01*
X011323Y020535D02*
X011456Y020535D01*
X011574Y020417D02*
X011205Y020417D01*
X011107Y020298D02*
X011672Y020298D01*
X011554Y020180D02*
X011226Y020180D01*
X011344Y020061D02*
X011435Y020061D01*
X011390Y019943D02*
X011390Y019943D01*
X011390Y019824D02*
X011390Y019824D01*
X011390Y019706D02*
X011390Y019706D01*
X011375Y019587D02*
X011404Y019587D01*
X011522Y019469D02*
X011257Y019469D01*
X011138Y019350D02*
X011641Y019350D01*
X012138Y019350D02*
X012641Y019350D01*
X012522Y019469D02*
X012257Y019469D01*
X012375Y019587D02*
X012404Y019587D01*
X012390Y019706D02*
X012390Y019706D01*
X012390Y019824D02*
X012390Y019824D01*
X012390Y019943D02*
X012390Y019943D01*
X012344Y020061D02*
X012435Y020061D01*
X012554Y020180D02*
X012226Y020180D01*
X012107Y020298D02*
X012672Y020298D01*
X012574Y020417D02*
X012205Y020417D01*
X012323Y020535D02*
X012456Y020535D01*
X012390Y020654D02*
X012390Y020654D01*
X012390Y020772D02*
X012390Y020772D01*
X012390Y020891D02*
X012390Y020891D01*
X012390Y021009D02*
X012390Y021009D01*
X012278Y021128D02*
X012502Y021128D01*
X012620Y021246D02*
X012159Y021246D01*
X013159Y021246D02*
X013620Y021246D01*
X013502Y021128D02*
X013278Y021128D01*
X013390Y021009D02*
X013390Y021009D01*
X013390Y020891D02*
X013390Y020891D01*
X013390Y020772D02*
X013390Y020772D01*
X013390Y020654D02*
X013390Y020654D01*
X013323Y020535D02*
X013456Y020535D01*
X013574Y020417D02*
X013205Y020417D01*
X013107Y020298D02*
X013672Y020298D01*
X013554Y020180D02*
X013226Y020180D01*
X013344Y020061D02*
X013435Y020061D01*
X013390Y019943D02*
X013390Y019943D01*
X013390Y019824D02*
X013390Y019824D01*
X013390Y019706D02*
X013390Y019706D01*
X013375Y019587D02*
X013404Y019587D01*
X013522Y019469D02*
X013257Y019469D01*
X013138Y019350D02*
X013641Y019350D01*
X014138Y019350D02*
X014641Y019350D01*
X014522Y019469D02*
X014257Y019469D01*
X014375Y019587D02*
X014404Y019587D01*
X014390Y019706D02*
X014390Y019706D01*
X014390Y019824D02*
X014390Y019824D01*
X014390Y019943D02*
X014390Y019943D01*
X014344Y020061D02*
X014435Y020061D01*
X014554Y020180D02*
X014226Y020180D01*
X014107Y020298D02*
X014672Y020298D01*
X014574Y020417D02*
X014205Y020417D01*
X014323Y020535D02*
X014456Y020535D01*
X014390Y020654D02*
X014390Y020654D01*
X014390Y020772D02*
X014390Y020772D01*
X014390Y020891D02*
X014390Y020891D01*
X014390Y021009D02*
X014390Y021009D01*
X014278Y021128D02*
X014502Y021128D01*
X014620Y021246D02*
X014159Y021246D01*
X015159Y021246D02*
X015620Y021246D01*
X015502Y021128D02*
X015278Y021128D01*
X015390Y021009D02*
X015390Y021009D01*
X015390Y020891D02*
X015390Y020891D01*
X015390Y020772D02*
X015390Y020772D01*
X015390Y020654D02*
X015390Y020654D01*
X015323Y020535D02*
X015456Y020535D01*
X015574Y020417D02*
X015205Y020417D01*
X015107Y020298D02*
X015672Y020298D01*
X015554Y020180D02*
X015226Y020180D01*
X015344Y020061D02*
X015435Y020061D01*
X015390Y019943D02*
X015390Y019943D01*
X015390Y019824D02*
X015390Y019824D01*
X015390Y019706D02*
X015390Y019706D01*
X015375Y019587D02*
X015404Y019587D01*
X015522Y019469D02*
X015257Y019469D01*
X015138Y019350D02*
X015641Y019350D01*
X016138Y019350D02*
X016641Y019350D01*
X016522Y019469D02*
X016257Y019469D01*
X016375Y019587D02*
X016404Y019587D01*
X016390Y019706D02*
X016390Y019706D01*
X016390Y019824D02*
X016390Y019824D01*
X016390Y019943D02*
X016390Y019943D01*
X016344Y020061D02*
X016435Y020061D01*
X016554Y020180D02*
X016226Y020180D01*
X016107Y020298D02*
X016672Y020298D01*
X016683Y020309D02*
X017036Y020309D01*
X017036Y020309D01*
X016683Y020309D01*
X016574Y020417D02*
X016205Y020417D01*
X016323Y020535D02*
X016456Y020535D01*
X016390Y020654D02*
X016390Y020654D01*
X016390Y020772D02*
X016390Y020772D01*
X016390Y020891D02*
X016390Y020891D01*
X016390Y021009D02*
X016390Y021009D01*
X016278Y021128D02*
X016502Y021128D01*
X016620Y021246D02*
X016159Y021246D01*
X017159Y021246D02*
X017620Y021246D01*
X017502Y021128D02*
X017278Y021128D01*
X017390Y021016D02*
X017390Y020662D01*
X017390Y020662D01*
X017390Y021016D01*
X017390Y021009D02*
X017390Y021009D01*
X017390Y020891D02*
X017390Y020891D01*
X017390Y020772D02*
X017390Y020772D01*
X018159Y021246D02*
X018677Y021246D01*
X018699Y021269D02*
X018430Y020999D01*
X018430Y020849D01*
X018850Y020849D01*
X018850Y021269D01*
X018699Y021269D01*
X018850Y021246D02*
X018930Y021246D01*
X018930Y021269D02*
X019080Y021269D01*
X019350Y020999D01*
X019350Y020849D01*
X018930Y020849D01*
X018850Y020849D01*
X018850Y020769D01*
X018430Y020769D01*
X018430Y020618D01*
X018699Y020349D01*
X018850Y020349D01*
X018850Y020768D01*
X018930Y020768D01*
X018930Y020769D02*
X018930Y020849D01*
X018930Y021269D01*
X018930Y021128D02*
X018850Y021128D01*
X018850Y021009D02*
X018930Y021009D01*
X018930Y020891D02*
X018850Y020891D01*
X018850Y020772D02*
X018390Y020772D01*
X018390Y020654D02*
X018430Y020654D01*
X018513Y020535D02*
X018323Y020535D01*
X018335Y020417D02*
X018631Y020417D01*
X018672Y020298D02*
X018454Y020298D01*
X018850Y020417D02*
X018930Y020417D01*
X018930Y020349D02*
X019080Y020349D01*
X019350Y020618D01*
X019350Y020769D01*
X018930Y020769D01*
X018930Y020768D02*
X018930Y020349D01*
X019107Y020298D02*
X019672Y020298D01*
X019683Y020309D02*
X020097Y020309D01*
X020390Y020601D01*
X020683Y020309D01*
X020390Y020016D01*
X020097Y020309D01*
X019683Y020309D01*
X019574Y020417D02*
X019148Y020417D01*
X019267Y020535D02*
X019456Y020535D01*
X019390Y020654D02*
X019350Y020654D01*
X019390Y020772D02*
X018930Y020772D01*
X018930Y020654D02*
X018850Y020654D01*
X018850Y020535D02*
X018930Y020535D01*
X019350Y020891D02*
X019390Y020891D01*
X019390Y021009D02*
X019340Y021009D01*
X019221Y021128D02*
X019502Y021128D01*
X019620Y021246D02*
X019103Y021246D01*
X018558Y021128D02*
X018278Y021128D01*
X018390Y021009D02*
X018440Y021009D01*
X018430Y020891D02*
X018390Y020891D01*
X019226Y020180D02*
X019554Y020180D01*
X019435Y020061D02*
X019344Y020061D01*
X019390Y020016D02*
X019390Y019601D01*
X019390Y020016D01*
X019390Y019943D02*
X019390Y019943D01*
X019390Y019824D02*
X019390Y019824D01*
X019390Y019706D02*
X019390Y019706D01*
X019375Y019587D02*
X019404Y019587D01*
X019522Y019469D02*
X019257Y019469D01*
X019138Y019350D02*
X019641Y019350D01*
X019741Y019113D02*
X019139Y019113D01*
X019225Y018995D02*
X019622Y018995D01*
X019504Y018876D02*
X019240Y018876D01*
X019240Y018758D02*
X019385Y018758D01*
X019267Y018639D02*
X019240Y018639D01*
X019020Y019232D02*
X029364Y019232D01*
X029200Y019469D02*
X031544Y019469D01*
X031662Y019587D02*
X029319Y019587D01*
X029350Y019618D02*
X029350Y019769D01*
X028930Y019769D01*
X028930Y019849D01*
X028850Y019849D01*
X028850Y020269D01*
X028699Y020269D01*
X028430Y019999D01*
X028430Y019849D01*
X028850Y019849D01*
X028850Y019769D01*
X028430Y019769D01*
X028430Y019618D01*
X028699Y019349D01*
X028850Y019349D01*
X028850Y019768D01*
X028930Y019768D01*
X028930Y019349D01*
X029080Y019349D01*
X029350Y019618D01*
X029350Y019706D02*
X031643Y019706D01*
X031525Y019824D02*
X028930Y019824D01*
X028930Y019849D02*
X029350Y019849D01*
X029350Y019999D01*
X029080Y020269D01*
X028930Y020269D01*
X028930Y019849D01*
X028850Y019824D02*
X028390Y019824D01*
X028390Y019706D02*
X028430Y019706D01*
X028461Y019587D02*
X028375Y019587D01*
X028257Y019469D02*
X028579Y019469D01*
X028698Y019350D02*
X028138Y019350D01*
X028850Y019350D02*
X028930Y019350D01*
X028930Y019469D02*
X028850Y019469D01*
X028850Y019587D02*
X028930Y019587D01*
X028930Y019706D02*
X028850Y019706D01*
X028850Y019943D02*
X028930Y019943D01*
X028930Y020061D02*
X028850Y020061D01*
X028850Y020180D02*
X028930Y020180D01*
X029169Y020180D02*
X031460Y020180D01*
X031460Y020298D02*
X028107Y020298D01*
X028097Y020309D02*
X027683Y020309D01*
X027390Y020016D01*
X027097Y020309D01*
X027390Y020601D01*
X027683Y020309D01*
X028097Y020309D01*
X028205Y020417D02*
X028574Y020417D01*
X028456Y020535D02*
X028323Y020535D01*
X028390Y020654D02*
X028390Y020654D01*
X028390Y020772D02*
X028390Y020772D01*
X028390Y020891D02*
X028390Y020891D01*
X028390Y021009D02*
X028390Y021009D01*
X028278Y021128D02*
X028502Y021128D01*
X028620Y021246D02*
X028159Y021246D01*
X027620Y021246D02*
X027159Y021246D01*
X027278Y021128D02*
X027502Y021128D01*
X027390Y021016D02*
X027390Y020601D01*
X027390Y021016D01*
X027390Y021009D02*
X027390Y021009D01*
X027390Y020891D02*
X027390Y020891D01*
X027390Y020772D02*
X027390Y020772D01*
X027390Y020654D02*
X027390Y020654D01*
X027323Y020535D02*
X027456Y020535D01*
X027574Y020417D02*
X027205Y020417D01*
X027097Y020309D02*
X026683Y020309D01*
X026390Y020016D01*
X026097Y020309D01*
X026390Y020601D01*
X026683Y020309D01*
X027097Y020309D01*
X027107Y020298D02*
X027672Y020298D01*
X027554Y020180D02*
X027226Y020180D01*
X027344Y020061D02*
X027435Y020061D01*
X027390Y020016D02*
X027390Y019601D01*
X027390Y020016D01*
X027390Y019943D02*
X027390Y019943D01*
X027390Y019824D02*
X027390Y019824D01*
X027390Y019706D02*
X027390Y019706D01*
X027375Y019587D02*
X027404Y019587D01*
X027522Y019469D02*
X027257Y019469D01*
X027138Y019350D02*
X027641Y019350D01*
X028390Y019943D02*
X028430Y019943D01*
X028492Y020061D02*
X028344Y020061D01*
X028226Y020180D02*
X028610Y020180D01*
X029205Y020417D02*
X031548Y020417D01*
X031667Y020535D02*
X029323Y020535D01*
X029390Y020654D02*
X032729Y020654D01*
X032610Y020535D02*
X032313Y020535D01*
X032431Y020417D02*
X032492Y020417D01*
X032030Y020417D02*
X031950Y020417D01*
X031950Y020535D02*
X032030Y020535D01*
X032030Y020298D02*
X031950Y020298D01*
X031950Y020180D02*
X032030Y020180D01*
X031460Y020061D02*
X029288Y020061D01*
X029350Y019943D02*
X031460Y019943D01*
X031425Y019350D02*
X029082Y019350D01*
X029815Y019232D02*
X031420Y019232D01*
X031420Y019113D02*
X029925Y019113D01*
X029974Y018995D02*
X031420Y018995D01*
X031420Y018876D02*
X029978Y018876D01*
X029947Y018758D02*
X031534Y018758D01*
X031653Y018639D02*
X029869Y018639D01*
X029667Y018521D02*
X031596Y018521D01*
X033326Y018639D02*
X037680Y018639D01*
X037680Y018521D02*
X033384Y018521D01*
X033502Y018402D02*
X037680Y018402D01*
X037680Y018284D02*
X033560Y018284D01*
X033560Y018165D02*
X037680Y018165D01*
X037680Y018047D02*
X033560Y018047D01*
X033560Y017928D02*
X037680Y017928D01*
X037680Y017810D02*
X033497Y017810D01*
X033378Y017691D02*
X037680Y017691D01*
X037680Y017573D02*
X033332Y017573D01*
X033450Y017454D02*
X037680Y017454D01*
X037680Y017336D02*
X033560Y017336D01*
X033560Y017217D02*
X037680Y017217D01*
X037680Y017099D02*
X033560Y017099D01*
X033560Y016980D02*
X037680Y016980D01*
X037680Y016862D02*
X033549Y016862D01*
X033430Y016743D02*
X037680Y016743D01*
X037680Y016625D02*
X033312Y016625D01*
X033398Y016506D02*
X037680Y016506D01*
X037680Y016388D02*
X033517Y016388D01*
X033560Y016269D02*
X037680Y016269D01*
X037680Y016151D02*
X033560Y016151D01*
X033560Y016032D02*
X037680Y016032D01*
X037680Y015914D02*
X033560Y015914D01*
X033482Y015795D02*
X037680Y015795D01*
X037680Y015677D02*
X033364Y015677D01*
X033245Y015558D02*
X037680Y015558D01*
X037680Y015440D02*
X030178Y015440D01*
X030178Y015486D02*
X030178Y015331D01*
X030119Y015189D01*
X030009Y015079D01*
X029867Y015020D01*
X029712Y015020D01*
X029570Y015079D01*
X029491Y015159D01*
X023388Y015159D01*
X023309Y015079D01*
X023167Y015020D01*
X023012Y015020D01*
X022870Y015079D01*
X022761Y015189D01*
X022701Y015331D01*
X022701Y015486D01*
X022761Y015628D01*
X022870Y015738D01*
X023012Y015797D01*
X023167Y015797D01*
X023309Y015738D01*
X023388Y015659D01*
X029491Y015659D01*
X029570Y015738D01*
X029712Y015797D01*
X029867Y015797D01*
X030009Y015738D01*
X030119Y015628D01*
X030178Y015486D01*
X030148Y015558D02*
X032734Y015558D01*
X032615Y015677D02*
X032307Y015677D01*
X032426Y015795D02*
X032497Y015795D01*
X032030Y015795D02*
X031950Y015795D01*
X031950Y015677D02*
X032030Y015677D01*
X032030Y015914D02*
X031950Y015914D01*
X031950Y016032D02*
X032030Y016032D01*
X031672Y015677D02*
X030070Y015677D01*
X029871Y015795D02*
X031554Y015795D01*
X031460Y015914D02*
X022967Y015914D01*
X023009Y015795D02*
X022853Y015795D01*
X022809Y015677D02*
X022739Y015677D01*
X022731Y015558D02*
X022625Y015558D01*
X022701Y015440D02*
X022511Y015440D01*
X022397Y015321D02*
X022706Y015321D01*
X022755Y015203D02*
X022283Y015203D01*
X022169Y015084D02*
X022865Y015084D01*
X023314Y015084D02*
X029565Y015084D01*
X030014Y015084D02*
X037680Y015084D01*
X037680Y014966D02*
X022055Y014966D01*
X021940Y014847D02*
X037680Y014847D01*
X037680Y014729D02*
X030836Y014729D01*
X030510Y014729D02*
X030390Y014729D01*
X030390Y014610D02*
X030510Y014610D01*
X030510Y014492D02*
X030390Y014492D01*
X030390Y014136D02*
X030510Y014136D01*
X030510Y014018D02*
X030390Y014018D01*
X030390Y013899D02*
X030510Y013899D01*
X029595Y012951D02*
X029220Y012951D01*
X029250Y012833D02*
X029951Y012833D01*
X029476Y013070D02*
X029133Y013070D01*
X028086Y013070D02*
X028003Y013070D01*
X027999Y012951D02*
X027885Y012951D01*
X027970Y012833D02*
X027766Y012833D01*
X027648Y012714D02*
X027970Y012714D01*
X027970Y012596D02*
X027529Y012596D01*
X027411Y012477D02*
X027970Y012477D01*
X027970Y012359D02*
X027292Y012359D01*
X027174Y012240D02*
X028005Y012240D01*
X028290Y012122D02*
X027055Y012122D01*
X026937Y012003D02*
X028290Y012003D01*
X028290Y011885D02*
X019547Y011885D01*
X019734Y011766D02*
X028290Y011766D01*
X028290Y011648D02*
X020326Y011648D01*
X020039Y012003D02*
X018944Y012003D01*
X018858Y012122D02*
X019904Y012122D01*
X019769Y012240D02*
X018842Y012240D01*
X018827Y012225D02*
X018944Y012342D01*
X018944Y013137D01*
X018827Y013255D01*
X018710Y013255D01*
X018710Y013570D01*
X018719Y013579D01*
X018778Y013721D01*
X018778Y013876D01*
X018719Y014018D01*
X019110Y014018D01*
X019110Y014136D02*
X018589Y014136D01*
X018609Y014128D02*
X018467Y014187D01*
X018312Y014187D01*
X018170Y014128D01*
X018091Y014049D01*
X017398Y014049D01*
X017319Y014128D01*
X017177Y014187D01*
X017022Y014187D01*
X016880Y014128D01*
X016771Y014018D01*
X016711Y013876D01*
X016711Y013721D01*
X016771Y013579D01*
X016880Y013469D01*
X017022Y013410D01*
X017177Y013410D01*
X017319Y013469D01*
X017398Y013549D01*
X018070Y013549D01*
X018070Y013255D01*
X017952Y013255D01*
X017835Y013137D01*
X017835Y012342D01*
X017952Y012225D01*
X018827Y012225D01*
X018944Y012359D02*
X019634Y012359D01*
X019499Y012477D02*
X018944Y012477D01*
X018944Y012596D02*
X019364Y012596D01*
X019125Y012714D02*
X018944Y012714D01*
X018944Y012833D02*
X019038Y012833D01*
X019001Y012951D02*
X018944Y012951D01*
X018944Y013070D02*
X019001Y013070D01*
X019048Y013188D02*
X018893Y013188D01*
X018710Y013307D02*
X019110Y013307D01*
X019110Y013425D02*
X018710Y013425D01*
X018710Y013544D02*
X019110Y013544D01*
X019110Y013662D02*
X018753Y013662D01*
X018778Y013781D02*
X019110Y013781D01*
X019110Y013899D02*
X018768Y013899D01*
X018719Y014018D02*
X018609Y014128D01*
X018190Y014136D02*
X017299Y014136D01*
X016900Y014136D02*
X008047Y014136D01*
X008150Y014255D02*
X019110Y014255D01*
X019110Y014373D02*
X008254Y014373D01*
X008358Y014492D02*
X019110Y014492D01*
X019110Y014610D02*
X008461Y014610D01*
X008538Y014729D02*
X019110Y014729D01*
X019110Y014847D02*
X008550Y014847D01*
X008550Y014966D02*
X019110Y014966D01*
X019110Y015084D02*
X008550Y015084D01*
X008550Y015203D02*
X019110Y015203D01*
X019047Y015321D02*
X008550Y015321D01*
X008550Y015440D02*
X019001Y015440D01*
X019001Y015558D02*
X008550Y015558D01*
X008550Y015677D02*
X019039Y015677D01*
X019127Y015795D02*
X008550Y015795D01*
X008550Y015914D02*
X022273Y015914D01*
X022387Y016032D02*
X008550Y016032D01*
X008550Y016151D02*
X022502Y016151D01*
X022616Y016269D02*
X008599Y016269D01*
X008660Y016388D02*
X022730Y016388D01*
X022844Y016506D02*
X008678Y016506D01*
X008662Y016625D02*
X022958Y016625D01*
X023072Y016743D02*
X008604Y016743D01*
X008290Y016509D02*
X008290Y014809D01*
X006190Y012409D01*
X005630Y012409D01*
X005892Y012122D02*
X008701Y012122D01*
X008623Y012240D02*
X006389Y012240D01*
X006491Y012359D02*
X008516Y012359D01*
X008410Y012477D02*
X006595Y012477D01*
X006699Y012596D02*
X008304Y012596D01*
X008198Y012714D02*
X006802Y012714D01*
X006906Y012833D02*
X007937Y012833D01*
X007810Y012951D02*
X007010Y012951D01*
X007113Y013070D02*
X007761Y013070D01*
X007751Y013188D02*
X007217Y013188D01*
X007321Y013307D02*
X007777Y013307D01*
X007847Y013425D02*
X007425Y013425D01*
X007528Y013544D02*
X008031Y013544D01*
X008248Y013544D02*
X016806Y013544D01*
X016736Y013662D02*
X007632Y013662D01*
X007736Y013781D02*
X016711Y013781D01*
X016721Y013899D02*
X007839Y013899D01*
X007943Y014018D02*
X016770Y014018D01*
X016987Y013425D02*
X008432Y013425D01*
X008503Y013307D02*
X018070Y013307D01*
X018070Y013425D02*
X017212Y013425D01*
X017394Y013544D02*
X018070Y013544D01*
X017886Y013188D02*
X008528Y013188D01*
X008577Y013070D02*
X017835Y013070D01*
X017835Y012951D02*
X008684Y012951D01*
X008790Y012833D02*
X017835Y012833D01*
X017835Y012714D02*
X008896Y012714D01*
X009002Y012596D02*
X017835Y012596D01*
X017835Y012477D02*
X009214Y012477D01*
X009388Y012359D02*
X017835Y012359D01*
X017937Y012240D02*
X009455Y012240D01*
X009478Y012122D02*
X017922Y012122D01*
X017835Y012003D02*
X009466Y012003D01*
X009415Y011885D02*
X017835Y011885D01*
X017835Y011766D02*
X009277Y011766D01*
X009385Y011648D02*
X017835Y011648D01*
X017835Y011529D02*
X009518Y011529D01*
X009567Y011411D02*
X017835Y011411D01*
X017835Y011292D02*
X009578Y011292D01*
X009554Y011174D02*
X017901Y011174D01*
X018878Y011174D02*
X019148Y011174D01*
X019038Y011292D02*
X018944Y011292D01*
X020025Y011055D02*
X010667Y011055D01*
X010810Y010937D02*
X020618Y010937D01*
X021210Y010818D02*
X013929Y010818D01*
X013909Y010838D02*
X013767Y010897D01*
X013612Y010897D01*
X013470Y010838D01*
X013391Y010759D01*
X011988Y010759D01*
X011909Y010838D01*
X011767Y010897D01*
X011612Y010897D01*
X011470Y010838D01*
X011361Y010728D01*
X011301Y010586D01*
X011301Y010431D01*
X011361Y010289D01*
X011470Y010179D01*
X011612Y010120D01*
X011767Y010120D01*
X011909Y010179D01*
X011988Y010259D01*
X013391Y010259D01*
X013470Y010179D01*
X013612Y010120D01*
X013767Y010120D01*
X013909Y010179D01*
X014019Y010289D01*
X014078Y010431D01*
X014078Y010586D01*
X014019Y010728D01*
X013909Y010838D01*
X014031Y010700D02*
X021803Y010700D01*
X022395Y010581D02*
X014078Y010581D01*
X014078Y010463D02*
X022988Y010463D01*
X023580Y010344D02*
X014042Y010344D01*
X013955Y010226D02*
X024173Y010226D01*
X024765Y010107D02*
X008635Y010107D01*
X008518Y009989D02*
X011393Y009989D01*
X011586Y009989D02*
X012993Y009989D01*
X013186Y009989D02*
X025358Y009989D01*
X025950Y009870D02*
X013377Y009870D01*
X013450Y009752D02*
X026543Y009752D01*
X027079Y010581D02*
X025659Y010581D01*
X025066Y010700D02*
X027073Y010700D01*
X027073Y010818D02*
X024474Y010818D01*
X025539Y012714D02*
X020199Y012714D01*
X020334Y012596D02*
X026624Y012596D01*
X026803Y012833D02*
X026861Y012833D01*
X026803Y012951D02*
X026980Y012951D01*
X027098Y013070D02*
X026803Y013070D01*
X026803Y013188D02*
X027217Y013188D01*
X027335Y013307D02*
X026803Y013307D01*
X026803Y013425D02*
X027454Y013425D01*
X027572Y013544D02*
X026803Y013544D01*
X026803Y013662D02*
X027691Y013662D01*
X027810Y013781D02*
X026803Y013781D01*
X026803Y013899D02*
X028037Y013899D01*
X028010Y014492D02*
X021598Y014492D01*
X021712Y014610D02*
X028010Y014610D01*
X028025Y014729D02*
X021826Y014729D01*
X021484Y014373D02*
X025609Y014373D01*
X025536Y014255D02*
X021370Y014255D01*
X021256Y014136D02*
X025536Y014136D01*
X025536Y014018D02*
X021142Y014018D01*
X021028Y013899D02*
X025536Y013899D01*
X025536Y013781D02*
X020913Y013781D01*
X020750Y013662D02*
X025536Y013662D01*
X025536Y013544D02*
X020023Y013544D01*
X019757Y013544D02*
X019670Y013544D01*
X019670Y013425D02*
X025536Y013425D01*
X025536Y013307D02*
X019670Y013307D01*
X019731Y013188D02*
X025536Y013188D01*
X025536Y013070D02*
X019794Y013070D01*
X019929Y012951D02*
X025536Y012951D01*
X025536Y012833D02*
X020064Y012833D01*
X020068Y014255D02*
X020676Y014255D01*
X020790Y014373D02*
X019670Y014373D01*
X019670Y014255D02*
X019711Y014255D01*
X019670Y014492D02*
X020904Y014492D01*
X021018Y014610D02*
X019670Y014610D01*
X019670Y014729D02*
X021132Y014729D01*
X021246Y014847D02*
X019670Y014847D01*
X019670Y014966D02*
X021360Y014966D01*
X021475Y015084D02*
X019670Y015084D01*
X019670Y015203D02*
X021589Y015203D01*
X021703Y015321D02*
X019732Y015321D01*
X019778Y015440D02*
X021817Y015440D01*
X021931Y015558D02*
X019778Y015558D01*
X019740Y015677D02*
X022045Y015677D01*
X022159Y015795D02*
X019652Y015795D01*
X023082Y016032D02*
X031460Y016032D01*
X031460Y016151D02*
X023196Y016151D01*
X023310Y016269D02*
X031460Y016269D01*
X030173Y015321D02*
X037680Y015321D01*
X037680Y015203D02*
X030124Y015203D01*
X029709Y015795D02*
X023171Y015795D01*
X023370Y015677D02*
X029509Y015677D01*
X029039Y016980D02*
X024340Y016980D01*
X024344Y017573D02*
X029035Y017573D01*
X028621Y017928D02*
X024658Y017928D01*
X024626Y018521D02*
X028653Y018521D01*
X026641Y019350D02*
X026138Y019350D01*
X026257Y019469D02*
X026522Y019469D01*
X026404Y019587D02*
X026375Y019587D01*
X026390Y019601D02*
X026390Y020016D01*
X026390Y019601D01*
X026390Y019706D02*
X026390Y019706D01*
X026390Y019824D02*
X026390Y019824D01*
X026390Y019943D02*
X026390Y019943D01*
X026344Y020061D02*
X026435Y020061D01*
X026554Y020180D02*
X026226Y020180D01*
X026107Y020298D02*
X026672Y020298D01*
X026574Y020417D02*
X026205Y020417D01*
X026097Y020309D02*
X025683Y020309D01*
X025390Y020016D01*
X025097Y020309D01*
X025390Y020601D01*
X025683Y020309D01*
X026097Y020309D01*
X026323Y020535D02*
X026456Y020535D01*
X026390Y020601D02*
X026390Y021016D01*
X026390Y020601D01*
X026390Y020654D02*
X026390Y020654D01*
X026390Y020772D02*
X026390Y020772D01*
X026390Y020891D02*
X026390Y020891D01*
X026390Y021009D02*
X026390Y021009D01*
X026278Y021128D02*
X026502Y021128D01*
X026620Y021246D02*
X026159Y021246D01*
X025620Y021246D02*
X025159Y021246D01*
X025278Y021128D02*
X025502Y021128D01*
X025390Y021016D02*
X025390Y020601D01*
X025390Y021016D01*
X025390Y021009D02*
X025390Y021009D01*
X025390Y020891D02*
X025390Y020891D01*
X025390Y020772D02*
X025390Y020772D01*
X025390Y020654D02*
X025390Y020654D01*
X025323Y020535D02*
X025456Y020535D01*
X025574Y020417D02*
X025205Y020417D01*
X025097Y020309D02*
X024683Y020309D01*
X024390Y020016D01*
X024097Y020309D01*
X024390Y020601D01*
X024683Y020309D01*
X025097Y020309D01*
X025107Y020298D02*
X025672Y020298D01*
X025554Y020180D02*
X025226Y020180D01*
X025344Y020061D02*
X025435Y020061D01*
X025390Y020016D02*
X025390Y019601D01*
X025390Y020016D01*
X025390Y019943D02*
X025390Y019943D01*
X025390Y019824D02*
X025390Y019824D01*
X025390Y019706D02*
X025390Y019706D01*
X025375Y019587D02*
X025404Y019587D01*
X025522Y019469D02*
X025257Y019469D01*
X025138Y019350D02*
X025641Y019350D01*
X024641Y019350D02*
X024138Y019350D01*
X024257Y019469D02*
X024522Y019469D01*
X024404Y019587D02*
X024375Y019587D01*
X024390Y019601D02*
X024390Y020016D01*
X024390Y019601D01*
X024390Y019706D02*
X024390Y019706D01*
X024390Y019824D02*
X024390Y019824D01*
X024390Y019943D02*
X024390Y019943D01*
X024344Y020061D02*
X024435Y020061D01*
X024554Y020180D02*
X024226Y020180D01*
X024107Y020298D02*
X024672Y020298D01*
X024574Y020417D02*
X024205Y020417D01*
X024097Y020309D02*
X023683Y020309D01*
X023390Y020016D01*
X023097Y020309D01*
X023390Y020601D01*
X023683Y020309D01*
X024097Y020309D01*
X024323Y020535D02*
X024456Y020535D01*
X024390Y020601D02*
X024390Y021016D01*
X024390Y020601D01*
X024390Y020654D02*
X024390Y020654D01*
X024390Y020772D02*
X024390Y020772D01*
X024390Y020891D02*
X024390Y020891D01*
X024390Y021009D02*
X024390Y021009D01*
X024278Y021128D02*
X024502Y021128D01*
X024620Y021246D02*
X024159Y021246D01*
X023620Y021246D02*
X023159Y021246D01*
X023278Y021128D02*
X023502Y021128D01*
X023390Y021016D02*
X023390Y020601D01*
X023390Y021016D01*
X023390Y021009D02*
X023390Y021009D01*
X023390Y020891D02*
X023390Y020891D01*
X023390Y020772D02*
X023390Y020772D01*
X023390Y020654D02*
X023390Y020654D01*
X023323Y020535D02*
X023456Y020535D01*
X023574Y020417D02*
X023205Y020417D01*
X023097Y020309D02*
X022683Y020309D01*
X022390Y020016D01*
X022097Y020309D01*
X022390Y020601D01*
X022683Y020309D01*
X023097Y020309D01*
X023107Y020298D02*
X023672Y020298D01*
X023554Y020180D02*
X023226Y020180D01*
X023344Y020061D02*
X023435Y020061D01*
X023390Y020016D02*
X023390Y019601D01*
X023390Y020016D01*
X023390Y019943D02*
X023390Y019943D01*
X023390Y019824D02*
X023390Y019824D01*
X023390Y019706D02*
X023390Y019706D01*
X023375Y019587D02*
X023404Y019587D01*
X023522Y019469D02*
X023257Y019469D01*
X023138Y019350D02*
X023641Y019350D01*
X022641Y019350D02*
X022138Y019350D01*
X022257Y019469D02*
X022522Y019469D01*
X022404Y019587D02*
X022375Y019587D01*
X022390Y019601D02*
X022390Y020016D01*
X022390Y019601D01*
X022390Y019706D02*
X022390Y019706D01*
X022390Y019824D02*
X022390Y019824D01*
X022390Y019943D02*
X022390Y019943D01*
X022344Y020061D02*
X022435Y020061D01*
X022554Y020180D02*
X022226Y020180D01*
X022107Y020298D02*
X022672Y020298D01*
X022574Y020417D02*
X022205Y020417D01*
X022097Y020309D02*
X021683Y020309D01*
X021390Y020016D01*
X021097Y020309D01*
X021390Y020601D01*
X021683Y020309D01*
X022097Y020309D01*
X022323Y020535D02*
X022456Y020535D01*
X022390Y020601D02*
X022390Y021016D01*
X022390Y020601D01*
X022390Y020654D02*
X022390Y020654D01*
X022390Y020772D02*
X022390Y020772D01*
X022390Y020891D02*
X022390Y020891D01*
X022390Y021009D02*
X022390Y021009D01*
X022278Y021128D02*
X022502Y021128D01*
X022620Y021246D02*
X022159Y021246D01*
X021620Y021246D02*
X021159Y021246D01*
X021278Y021128D02*
X021502Y021128D01*
X021390Y021016D02*
X021390Y020601D01*
X021390Y021016D01*
X021390Y021009D02*
X021390Y021009D01*
X021390Y020891D02*
X021390Y020891D01*
X021390Y020772D02*
X021390Y020772D01*
X021390Y020654D02*
X021390Y020654D01*
X021323Y020535D02*
X021456Y020535D01*
X021574Y020417D02*
X021205Y020417D01*
X021097Y020309D02*
X020683Y020309D01*
X021097Y020309D01*
X021107Y020298D02*
X021672Y020298D01*
X021554Y020180D02*
X021226Y020180D01*
X021344Y020061D02*
X021435Y020061D01*
X021390Y020016D02*
X021390Y019601D01*
X021390Y020016D01*
X021390Y019943D02*
X021390Y019943D01*
X021390Y019824D02*
X021390Y019824D01*
X021390Y019706D02*
X021390Y019706D01*
X021375Y019587D02*
X021404Y019587D01*
X021522Y019469D02*
X021257Y019469D01*
X021138Y019350D02*
X021641Y019350D01*
X020641Y019350D02*
X020138Y019350D01*
X020257Y019469D02*
X020522Y019469D01*
X020404Y019587D02*
X020375Y019587D01*
X020390Y019601D02*
X020390Y020016D01*
X020390Y019601D01*
X020390Y019706D02*
X020390Y019706D01*
X020390Y019824D02*
X020390Y019824D01*
X020390Y019943D02*
X020390Y019943D01*
X020344Y020061D02*
X020435Y020061D01*
X020554Y020180D02*
X020226Y020180D01*
X020107Y020298D02*
X020672Y020298D01*
X020574Y020417D02*
X020205Y020417D01*
X020323Y020535D02*
X020456Y020535D01*
X020390Y020601D02*
X020390Y021016D01*
X020390Y020601D01*
X020390Y020654D02*
X020390Y020654D01*
X020390Y020772D02*
X020390Y020772D01*
X020390Y020891D02*
X020390Y020891D01*
X020390Y021009D02*
X020390Y021009D01*
X020278Y021128D02*
X020502Y021128D01*
X020620Y021246D02*
X020159Y021246D01*
X018195Y019350D02*
X018138Y019350D01*
X018313Y019232D02*
X003479Y019232D01*
X003361Y019189D02*
X003361Y019189D01*
X002884Y021365D02*
X036827Y021365D01*
X036941Y021246D02*
X029159Y021246D01*
X029278Y021128D02*
X036416Y021128D01*
X036097Y021012D02*
X036097Y021012D01*
X036094Y021009D02*
X029390Y021009D01*
X029390Y020891D02*
X035953Y020891D01*
X035824Y020772D02*
X029390Y020772D01*
X033251Y020654D02*
X035755Y020654D01*
X035687Y020535D02*
X033369Y020535D01*
X033488Y020417D02*
X035650Y020417D01*
X035664Y020495D02*
X035664Y020495D01*
X035629Y020298D02*
X033560Y020298D01*
X033560Y020180D02*
X035608Y020180D01*
X035605Y020159D02*
X035605Y020159D01*
X035622Y020061D02*
X033560Y020061D01*
X033560Y019943D02*
X035643Y019943D01*
X035664Y019824D02*
X033511Y019824D01*
X033393Y019706D02*
X035731Y019706D01*
X035799Y019587D02*
X033317Y019587D01*
X033436Y019469D02*
X035903Y019469D01*
X035835Y019525D02*
X035835Y019525D01*
X036044Y019350D02*
X033554Y019350D01*
X033560Y019232D02*
X036300Y019232D01*
X036097Y019305D02*
X036097Y019305D01*
X036879Y019232D02*
X037680Y019232D01*
X037680Y019350D02*
X037135Y019350D01*
X037276Y019469D02*
X037679Y019469D01*
X037667Y019587D02*
X037380Y019587D01*
X037448Y019706D02*
X037655Y019706D01*
X037630Y019824D02*
X037516Y019824D01*
X037515Y019822D02*
X037515Y019822D01*
X037536Y019943D02*
X037605Y019943D01*
X037577Y020061D02*
X037557Y020061D01*
X037680Y019113D02*
X033560Y019113D01*
X033560Y018995D02*
X037680Y018995D01*
X037680Y018876D02*
X033560Y018876D01*
X033445Y018758D02*
X037680Y018758D01*
X037124Y021009D02*
X037085Y021009D01*
X037082Y021012D02*
X037082Y021012D01*
X037033Y021128D02*
X036763Y021128D01*
X036712Y021483D02*
X002999Y021483D01*
X003131Y021602D02*
X036571Y021602D01*
X036425Y021720D02*
X003280Y021720D01*
X003447Y021839D02*
X036243Y021839D01*
X036036Y021957D02*
X003654Y021957D01*
X003905Y022076D02*
X035787Y022076D01*
X035441Y022194D02*
X004245Y022194D01*
X017138Y019350D02*
X017641Y019350D01*
X017522Y019469D02*
X017257Y019469D01*
X017375Y019587D02*
X017404Y019587D01*
X017390Y019601D02*
X017390Y020016D01*
X017433Y020059D01*
X017347Y020059D01*
X017390Y020016D01*
X017390Y019601D01*
X017390Y019706D02*
X017390Y019706D01*
X017390Y019824D02*
X017390Y019824D01*
X017390Y019943D02*
X017390Y019943D01*
X009090Y012109D02*
X008140Y013169D01*
X006111Y012714D02*
X005873Y012714D01*
X007890Y011009D02*
X009190Y011309D01*
X009485Y011055D02*
X010312Y011055D01*
X010169Y010937D02*
X009306Y010937D01*
X009073Y010937D02*
X008734Y010937D01*
X008987Y010700D02*
X008129Y010700D01*
X008231Y010818D02*
X009639Y010818D01*
X009938Y010344D02*
X010355Y010344D01*
X010624Y010344D02*
X011338Y010344D01*
X011301Y010463D02*
X010792Y010463D01*
X010857Y010581D02*
X011301Y010581D01*
X011349Y010700D02*
X010878Y010700D01*
X010864Y010818D02*
X011450Y010818D01*
X011929Y010818D02*
X013450Y010818D01*
X013424Y010226D02*
X011955Y010226D01*
X011424Y010226D02*
X009287Y010226D01*
X008290Y010309D02*
X010490Y010709D01*
X011777Y009870D02*
X012802Y009870D01*
X003682Y003712D02*
X003682Y003712D01*
X026743Y007737D02*
X027070Y007737D01*
X027070Y007856D02*
X026823Y007856D01*
X026823Y007974D02*
X027070Y007974D01*
X027070Y008093D02*
X026823Y008093D01*
X026823Y008211D02*
X027070Y008211D01*
X027093Y008330D02*
X026823Y008330D01*
X026823Y008448D02*
X027177Y008448D01*
X027295Y008567D02*
X026823Y008567D01*
X026823Y008685D02*
X027414Y008685D01*
X027845Y008211D02*
X028064Y008211D01*
X028061Y008093D02*
X027726Y008093D01*
X027710Y007974D02*
X027990Y007974D01*
X027990Y007856D02*
X027710Y007856D01*
X027710Y007737D02*
X027990Y007737D01*
X027990Y007619D02*
X027710Y007619D01*
X027710Y007500D02*
X027990Y007500D01*
X027990Y007382D02*
X027710Y007382D01*
X027710Y007263D02*
X028102Y007263D01*
X027825Y007026D02*
X031268Y007026D01*
X031268Y006908D02*
X027943Y006908D01*
X028062Y006789D02*
X031126Y006789D01*
X031113Y006671D02*
X028180Y006671D01*
X027710Y007145D02*
X031268Y007145D01*
X031072Y007263D02*
X029157Y007263D01*
X029128Y005723D02*
X033549Y005723D01*
X033810Y005723D02*
X035227Y005723D01*
X035219Y006434D02*
X033861Y006434D01*
X033126Y006552D02*
X037680Y006552D01*
X037680Y006434D02*
X036160Y006434D01*
X036179Y006315D02*
X037680Y006315D01*
X037680Y006197D02*
X036179Y006197D01*
X036179Y006078D02*
X037680Y006078D01*
X037680Y005960D02*
X036179Y005960D01*
X036179Y005841D02*
X037680Y005841D01*
X037680Y005723D02*
X036152Y005723D01*
X037680Y005604D02*
X029247Y005604D01*
X029365Y005486D02*
X037680Y005486D01*
X037680Y005367D02*
X029484Y005367D01*
X029602Y005249D02*
X037680Y005249D01*
X037680Y005130D02*
X029721Y005130D01*
X029839Y005012D02*
X037680Y005012D01*
X037680Y004893D02*
X029958Y004893D01*
X030076Y004775D02*
X037680Y004775D01*
X037680Y004656D02*
X030195Y004656D01*
X030313Y004538D02*
X037680Y004538D01*
X037680Y004419D02*
X032842Y004419D01*
X032960Y004301D02*
X037680Y004301D01*
X037680Y004182D02*
X033037Y004182D01*
X033086Y004064D02*
X037680Y004064D01*
X037680Y006671D02*
X033126Y006671D01*
X033096Y006789D02*
X037680Y006789D01*
X035303Y008211D02*
X034888Y008211D01*
X034784Y008330D02*
X035370Y008330D01*
X035265Y010107D02*
X033760Y010107D01*
X033777Y010117D02*
X033807Y010147D01*
X033828Y010183D01*
X033839Y010224D01*
X033839Y010435D01*
X033450Y010435D01*
X033450Y010555D01*
X033839Y010555D01*
X033839Y010766D01*
X033828Y010807D01*
X033807Y010843D01*
X033777Y010873D01*
X033741Y010894D01*
X033700Y010905D01*
X033450Y010905D01*
X033450Y010555D01*
X033330Y010555D01*
X033330Y010905D01*
X033079Y010905D01*
X033038Y010894D01*
X033002Y010873D01*
X032972Y010843D01*
X032951Y010807D01*
X032940Y010766D01*
X032940Y010555D01*
X033330Y010555D01*
X033330Y010435D01*
X033450Y010435D01*
X033450Y010085D01*
X033700Y010085D01*
X033741Y010096D01*
X033777Y010117D01*
X033839Y010226D02*
X035200Y010226D01*
X035200Y010344D02*
X033839Y010344D01*
X033839Y010581D02*
X035200Y010581D01*
X035200Y010463D02*
X033450Y010463D01*
X033450Y010581D02*
X033330Y010581D01*
X033330Y010463D02*
X032057Y010463D01*
X032096Y010581D02*
X032940Y010581D01*
X032940Y010700D02*
X032096Y010700D01*
X032096Y010818D02*
X032958Y010818D01*
X033330Y010818D02*
X033450Y010818D01*
X033450Y010700D02*
X033330Y010700D01*
X033330Y010435D02*
X032940Y010435D01*
X032940Y010224D01*
X032951Y010183D01*
X032972Y010147D01*
X033002Y010117D01*
X033038Y010096D01*
X033079Y010085D01*
X033330Y010085D01*
X033330Y010435D01*
X033330Y010344D02*
X033450Y010344D01*
X033450Y010226D02*
X033330Y010226D01*
X033330Y010107D02*
X033450Y010107D01*
X033019Y010107D02*
X031901Y010107D01*
X031901Y010226D02*
X032940Y010226D01*
X032940Y010344D02*
X031901Y010344D01*
X031261Y010107D02*
X030599Y010107D01*
X030655Y009989D02*
X031261Y009989D01*
X031261Y009870D02*
X030655Y009870D01*
X030655Y009633D02*
X031261Y009633D01*
X031261Y009515D02*
X030655Y009515D01*
X030650Y009396D02*
X031261Y009396D01*
X031115Y009278D02*
X030528Y009278D01*
X030240Y009752D02*
X031261Y009752D01*
X030240Y009870D02*
X030120Y009870D01*
X030120Y009989D02*
X030240Y009989D01*
X030240Y010107D02*
X030120Y010107D01*
X030002Y010463D02*
X029008Y010463D01*
X029086Y010581D02*
X029963Y010581D01*
X030955Y010463D02*
X031105Y010463D01*
X031066Y010581D02*
X030993Y010581D01*
X030993Y010700D02*
X031066Y010700D01*
X031066Y010818D02*
X030993Y010818D01*
X030993Y010937D02*
X031066Y010937D01*
X031066Y011055D02*
X030993Y011055D01*
X030993Y011174D02*
X031066Y011174D01*
X031066Y011292D02*
X030993Y011292D01*
X030959Y011411D02*
X031101Y011411D01*
X032061Y011411D02*
X035370Y011411D01*
X035370Y011292D02*
X032096Y011292D01*
X032096Y011174D02*
X035370Y011174D01*
X035370Y011055D02*
X032096Y011055D01*
X032096Y010937D02*
X035299Y010937D01*
X035200Y010818D02*
X033822Y010818D01*
X033839Y010700D02*
X035200Y010700D01*
X032137Y004419D02*
X030432Y004419D01*
X030550Y004301D02*
X032019Y004301D01*
X031943Y004182D02*
X030669Y004182D01*
X030787Y004064D02*
X031894Y004064D01*
X031880Y003945D02*
X030906Y003945D01*
X031024Y003827D02*
X031880Y003827D01*
X031912Y003708D02*
X031143Y003708D01*
X031261Y003590D02*
X031961Y003590D01*
X032064Y003471D02*
X031380Y003471D01*
X031622Y003353D02*
X032238Y003353D01*
X031210Y002642D02*
X029164Y002642D01*
X029148Y002760D02*
X031061Y002760D01*
X031002Y002879D02*
X029267Y002879D01*
X029385Y002997D02*
X030949Y002997D01*
X030830Y003116D02*
X029390Y003116D01*
X029390Y003234D02*
X030712Y003234D01*
X030593Y003353D02*
X029390Y003353D01*
X029334Y003471D02*
X030475Y003471D01*
X030356Y003590D02*
X029216Y003590D01*
X029097Y003708D02*
X030238Y003708D01*
D22*
X031390Y003009D03*
X033890Y002109D03*
X033890Y004509D03*
X019390Y011509D03*
D23*
X019261Y011637D01*
X018390Y011637D01*
X019390Y011509D02*
X026890Y010009D01*
X028016Y008682D01*
X028093Y008609D02*
X028630Y008609D01*
X028632Y008607D02*
X027788Y008607D01*
X027390Y008209D01*
X027390Y007009D01*
X031390Y003009D01*
X033680Y006089D02*
X035683Y006089D01*
X035690Y006082D01*
X035690Y007775D02*
X034523Y007775D01*
X034511Y007777D01*
X034500Y007781D01*
X034490Y007788D01*
X033390Y007791D02*
X033390Y008802D01*
X033384Y008800D02*
X031590Y008800D01*
X031581Y008821D02*
X031581Y010939D01*
X030478Y010939D02*
X028611Y010939D01*
X028610Y011141D02*
X028610Y012599D01*
X029491Y013507D02*
X029791Y013207D01*
X030450Y013207D01*
X029491Y013507D02*
X028612Y013507D01*
X028610Y013509D02*
X027990Y013509D01*
X026690Y012209D01*
X020290Y012209D01*
X019390Y012999D01*
X018390Y012740D02*
X018390Y013799D01*
X028016Y008682D02*
X028026Y008663D01*
X028039Y008645D01*
X028055Y008630D01*
X028073Y008618D01*
X028093Y008608D01*
X028632Y008607D02*
X030180Y008607D01*
X031581Y008821D02*
X031582Y008813D01*
X031585Y008806D01*
X031590Y008800D01*
X033384Y008800D02*
X033387Y008801D01*
X033390Y008802D01*
X033390Y007791D02*
X033390Y007789D01*
X033389Y007788D01*
X031589Y007697D02*
X031588Y007696D01*
X031588Y007694D01*
X031588Y006379D01*
X031590Y007697D02*
X028632Y007697D01*
X028629Y007698D01*
X028632Y008607D02*
X028629Y008608D01*
X028611Y010938D02*
X028601Y010966D01*
X028594Y010995D01*
X028591Y011025D01*
X028590Y011054D01*
X028593Y011084D01*
X028600Y011113D01*
X028610Y011141D01*
X028612Y013507D02*
X028609Y013508D01*
X035690Y014109D02*
X035690Y010505D01*
X035690Y008812D02*
X035690Y007775D01*
D24*
X029790Y015409D02*
X023090Y015409D01*
X023290Y016609D02*
X020690Y013909D01*
X019890Y013909D01*
X018390Y013799D02*
X017100Y013799D01*
X013690Y010509D02*
X011690Y010509D01*
X011490Y009609D02*
X013090Y009609D01*
X013590Y008809D02*
X010290Y008809D01*
X011590Y008109D02*
X006590Y008109D01*
X005890Y007509D02*
X005590Y007209D01*
X005890Y007509D02*
X005890Y009309D01*
X009190Y007409D02*
X010890Y007409D01*
X010890Y006509D02*
X009090Y006509D01*
X023290Y016609D02*
X032390Y016609D01*
X032990Y017109D01*
X029290Y017279D02*
X024090Y017279D01*
X024390Y018209D02*
X028890Y018209D01*
X029590Y018909D02*
X019890Y018909D01*
X018990Y018009D01*
X018990Y018909D01*
X018390Y019509D01*
X018390Y020009D01*
X018090Y020309D01*
X017390Y020309D01*
X016890Y020809D01*
D25*
X019390Y015509D02*
X019390Y012999D01*
M02*
